<svg width="64" height="65" viewBox="0 0 64 65" fill="none" xmlns="http://www.w3.org/2000/svg">
<g filter="url(#filter0_d_1942_8548)">
<path d="M12 12.74C12 8.32172 15.5817 4.74 20 4.74H44C48.4183 4.74 52 8.32172 52 12.74V24.5V36.26C52 40.6783 48.4183 44.26 44 44.26H20C15.5817 44.26 12 40.6783 12 36.26V12.74Z" fill="#89D96D"/>
</g>
<mask id="mask0_1942_8548" style="mask-type:alpha" maskUnits="userSpaceOnUse" x="12" y="4" width="40" height="41">
<path d="M12 12.74C12 8.32172 15.5817 4.74 20 4.74H44C48.4183 4.74 52 8.32172 52 12.74V24.5V36.26C52 40.6783 48.4183 44.26 44 44.26H20C15.5817 44.26 12 40.6783 12 36.26V12.74Z" fill="#49FC5B"/>
</mask>
<g mask="url(#mask0_1942_8548)">
<path d="M60.2342 30.1397H51.6958V54.7334H60.2342V30.1397Z" fill="#FFA412"/>
<path d="M51.6959 30.1397H29.1382V54.7334H51.6959V30.1397Z" fill="#FFB93E"/>
<path d="M51.6948 43.8933V42.1709L29.1372 42.1709V43.8933L51.6948 43.8933Z" fill="#FFA412"/>
<path d="M60.2329 43.8937V42.1713H51.6945V43.8937H60.2329Z" fill="#FA9712"/>
<path d="M44.6913 30.4043C44.6913 30.4043 49.7874 27.0918 53.2518 28.1576L52.5364 28.824L52.8573 29.9462C52.8573 29.9462 49.0058 28.6917 44.5835 30.593L44.6913 30.4043Z" fill="#F99746"/>
<path d="M44.4068 29.6546C44.4068 29.6546 43.5077 29.5468 42.1675 29.3606C38.61 28.8706 31.9459 27.8465 30.7502 26.9007C28.871 25.4136 33.3252 19.0924 35.251 18.2128C37.1792 17.3382 44.4068 29.6546 44.4068 29.6546Z" fill="#F99746"/>
<path d="M58.5044 21.7826C58.8253 23.3482 44.272 30.1128 44.272 30.1128C44.272 30.1128 44.5366 29.3973 44.9678 28.2752C44.9678 28.2752 44.9678 28.2752 44.9702 28.2728C46.5432 24.1812 50.3334 14.6799 51.578 14.8122C51.703 14.8244 51.85 14.871 52.0142 14.942C53.9276 15.7824 58.2079 20.3419 58.5044 21.7826Z" fill="#F99746"/>
<path d="M51.8916 16.3336C51.0023 17.8772 45.0633 28.116 44.9702 28.2752C46.5432 24.1812 50.3334 14.6799 51.578 14.8122C51.578 14.8122 51.8255 14.8048 52.0141 14.942C52.242 15.1062 52.3816 15.481 51.8916 16.3336Z" fill="#ED7D2B"/>
<path d="M42.17 29.3606C38.6101 28.8706 31.9459 27.8465 30.7503 26.9007C30.2113 25.3793 31.6127 25.2543 32.632 25.149C33.6487 25.0412 42.17 29.3606 42.17 29.3606Z" fill="#ED7D2B"/>
<path d="M41.6924 30.1397C41.6924 30.1397 42.5083 28.285 44.113 28.1821C45.7889 28.0743 46.742 30.1397 46.742 30.1397H41.6924Z" fill="#ED7D2B"/>
<path d="M52.0584 30.1397H28.4546V33.5232H52.0584V30.1397Z" fill="#FFC261"/>
<path d="M42.5177 29.858C42.5177 29.858 37.8945 28.3928 34.7756 29.3606C31.1813 30.4778 31.3945 34.9149 31.3945 34.9149L32.2398 34.567L33.3815 35.1035C33.3815 35.1035 33.575 30.4043 36.5053 29.7477C39.0387 29.1768 42.5177 29.858 42.5177 29.858Z" fill="#F99746"/>
<path d="M40.1487 30.1397H38.4263V54.7309H40.1487V30.1397Z" fill="#FFA412"/>
</g>
<defs>
<filter id="filter0_d_1942_8548" x="0" y="0.740002" width="64" height="63.52" filterUnits="userSpaceOnUse" color-interpolation-filters="sRGB">
<feFlood flood-opacity="0" result="BackgroundImageFix"/>
<feColorMatrix in="SourceAlpha" type="matrix" values="0 0 0 0 0 0 0 0 0 0 0 0 0 0 0 0 0 0 127 0" result="hardAlpha"/>
<feOffset dy="8"/>
<feGaussianBlur stdDeviation="6"/>
<feColorMatrix type="matrix" values="0 0 0 0 0.537255 0 0 0 0 0.85098 0 0 0 0 0.427451 0 0 0 0.2 0"/>
<feBlend mode="normal" in2="BackgroundImageFix" result="effect1_dropShadow_1942_8548"/>
<feBlend mode="normal" in="SourceGraphic" in2="effect1_dropShadow_1942_8548" result="shape"/>
</filter>
</defs>
</svg>
