<svg width="73" height="44" viewBox="0 0 73 44" fill="none" xmlns="http://www.w3.org/2000/svg">
<g filter="url(#filter0_d_1928_48298)">
<rect width="73" height="44" rx="3" fill="#53B7D1"/>
<path d="M14.6302 29.8065C14.2145 29.8044 13.8014 29.7468 13.404 29.6356C12.9681 29.5135 12.5469 29.3516 12.1466 29.1524C11.5992 28.8953 11.0762 28.5969 10.5831 28.2603C10.1394 27.9428 9.71996 27.598 9.32782 27.2281C8.79667 26.743 8.3012 26.2467 7.89377 25.7909C7.44314 25.3058 7.05404 24.7756 6.73391 24.2105L6.70684 24.1589V24.1573L6.7006 24.1454V24.1426V24.1399L6.66908 24.0783L6.66699 24.0742L6.66491 24.0701L6.63517 24.0106L6.63131 24.003V24.0008L6.6093 23.9563L6.60246 23.9424L6.5974 23.9319L6.59324 23.9234V23.9218L6.57034 23.8743L6.56796 23.8688L6.56171 23.8637L6.53465 23.8061L6.53019 23.7966L6.50372 23.7382L6.50194 23.7344L6.50015 23.7306L6.47517 23.6735L6.4722 23.6667L6.44811 23.6105V23.6086L6.44484 23.601L6.42194 23.5467L6.41985 23.5412L6.41718 23.535C6.41004 23.5176 6.4032 23.5002 6.39606 23.4823V23.4788L6.3919 23.4682C6.38387 23.4481 6.37762 23.4315 6.37197 23.4168V23.4136L6.36751 23.4014L6.34432 23.3476L6.33866 23.3318L6.32052 23.2818L6.31755 23.274L6.31517 23.2661C6.30863 23.2476 6.30327 23.2316 6.29822 23.2169L6.29316 23.2014L6.27859 23.1574L6.27591 23.149V23.1474L6.27294 23.1379L6.25807 23.0944L6.25569 23.0871L6.25331 23.0759C6.24826 23.0588 6.24379 23.0439 6.23963 23.0298L6.23666 23.0216L6.23398 23.0126C6.23011 22.9988 6.22565 22.9839 6.22119 22.967L6.21673 22.9507V22.9469C6.21346 22.9347 6.209 22.9197 6.20483 22.9024L6.19859 22.8809C6.19502 22.8676 6.19145 22.8537 6.18759 22.8369L6.18521 22.8266L6.18253 22.8157C6.17896 22.801 6.17569 22.7864 6.17242 22.772L6.16885 22.7519C6.16647 22.7416 6.16439 22.7312 6.16201 22.7209V22.7155V22.7109V22.7092L6.15755 22.6875V22.6848L6.1513 22.653C6.14922 22.643 6.14744 22.6329 6.14565 22.6229L6.1397 22.5897C6.13792 22.5802 6.13643 22.5707 6.13465 22.5626C6.13286 22.5544 6.13078 22.5389 6.1287 22.527L6.12692 22.5153L6.12513 22.5036C6.12305 22.4898 6.12097 22.4764 6.11918 22.4626L6.11234 22.4414V22.4376C6.10937 22.4218 6.10937 22.4088 6.1064 22.3969C6.1064 22.3895 6.10461 22.3822 6.10372 22.3749V22.3721C6.10223 22.3591 6.10075 22.345 6.09926 22.3319C6.09926 22.3243 6.09777 22.3165 6.09688 22.3088V22.3072C6.09569 22.296 6.0946 22.2848 6.09361 22.2735C6.09361 22.2635 6.09182 22.2537 6.09123 22.2437C6.09063 22.2336 6.08974 22.2238 6.08885 22.214C6.08885 22.2029 6.08736 22.1918 6.08677 22.1804C6.08617 22.169 6.08677 22.1616 6.08498 22.1532C6.0832 22.1448 6.08498 22.1307 6.0835 22.1195V22.1179C6.0835 22.1084 6.0835 22.0989 6.0835 22.0894C6.0835 22.0799 6.0835 22.0744 6.0835 22.0671V22.0562C6.0835 22.0459 6.0835 22.0353 6.0835 22.025C6.0835 22.0147 6.0835 22.0081 6.0835 21.9997V21.9364C6.0835 21.9234 6.0835 21.9104 6.0835 21.8973C6.0835 21.8881 6.0835 21.8789 6.0835 21.8702C6.0835 21.8615 6.0835 21.8471 6.0835 21.8354C6.0835 21.8289 6.0835 21.8226 6.0835 21.8161V21.8066C6.0835 21.7919 6.0835 21.7794 6.08558 21.7669C6.08558 21.7596 6.08558 21.752 6.08558 21.7447C6.08558 21.7327 6.08706 21.7199 6.08825 21.7047C6.08825 21.6977 6.08825 21.6903 6.09004 21.6833C6.09004 21.6697 6.09242 21.6561 6.09361 21.6425V21.6292V21.6197C6.095 21.6061 6.09648 21.5926 6.09807 21.579L6.10045 21.5575V21.5532C6.10045 21.5409 6.10342 21.5276 6.1058 21.5119C6.1058 21.507 6.1058 21.5021 6.10788 21.4972V21.4901V21.4874C6.10967 21.4738 6.11175 21.4603 6.11383 21.4467L6.1168 21.4274C6.11918 21.4127 6.12156 21.3981 6.12394 21.3837L6.12692 21.3674V21.3649C6.1293 21.3513 6.13197 21.3364 6.13524 21.3193L6.13881 21.3003C6.14179 21.2845 6.14506 21.2685 6.14833 21.2525L6.15101 21.24V21.2332C6.15428 21.2174 6.15785 21.2011 6.16141 21.1854L6.16439 21.1718V21.1693C6.16796 21.1536 6.17182 21.1373 6.17569 21.1213V21.1161L6.17807 21.1061C6.18164 21.0911 6.1858 21.0754 6.19056 21.0569L6.19443 21.0425C6.19859 21.027 6.20305 21.0102 6.2087 20.9895L6.21078 20.9822L6.21257 20.9762C6.21762 20.958 6.22298 20.9395 6.22892 20.9194L6.23041 20.9143L6.2322 20.9086C6.23814 20.8888 6.2435 20.8711 6.24855 20.8543L6.25242 20.8418C6.25747 20.8257 6.26372 20.8067 6.26997 20.7874V20.7853L6.27324 20.7755C6.27978 20.7559 6.28632 20.7369 6.29227 20.7195L6.29554 20.71C6.30208 20.6913 6.30922 20.6712 6.31755 20.6484L6.31933 20.6432V20.6413C6.32677 20.6206 6.3348 20.5997 6.34194 20.5804L6.3455 20.5715C6.35294 20.5517 6.36097 20.5316 6.3684 20.5128L6.37019 20.5085L6.37197 20.5041C6.38119 20.4813 6.38893 20.4626 6.39606 20.4446L6.39904 20.4373C6.40766 20.4169 6.41658 20.3957 6.4258 20.3743L6.42759 20.3702C6.43651 20.3493 6.44632 20.3273 6.45733 20.3028L6.45941 20.2982C6.46952 20.2757 6.47904 20.2545 6.48915 20.2338L6.49242 20.2268C6.50104 20.208 6.51056 20.1879 6.52216 20.1638L6.52573 20.1564C6.53465 20.138 6.54446 20.1173 6.55725 20.0918L6.55993 20.0863C6.57331 20.0592 6.58461 20.0369 6.59502 20.0165C7.2148 18.7996 8.1415 17.9521 9.03935 17.1329L9.05719 17.1166C9.57942 16.6396 10.0669 16.2324 10.5472 15.872C11.0965 15.4553 11.6818 15.0798 12.2974 14.7493C12.6396 14.5633 13.0067 14.4187 13.3897 14.319C13.7179 14.2362 14.0568 14.194 14.3973 14.1935C14.8552 14.1966 15.3095 14.2672 15.7427 14.4027C16.1572 14.5321 16.5584 14.6947 16.9415 14.8887C17.5535 15.1888 18.1405 15.5294 18.698 15.9078C19.2227 16.2648 19.7185 16.656 20.1814 17.0783C20.6647 17.5248 21.107 18.0067 21.5039 18.5193C21.8749 18.9769 22.1811 19.4755 22.4152 20.0032C22.5678 20.3723 22.6975 20.7489 22.8036 21.1313C22.8961 21.4637 22.9482 21.8044 22.9588 22.1472C22.9661 22.4832 22.9216 22.8184 22.8265 23.143C22.7144 23.5144 22.5552 23.8726 22.3521 24.2103C22.0628 24.7058 21.7244 25.1759 21.341 25.6149C20.9591 26.0457 20.5504 26.4561 20.1169 26.844C19.6485 27.2718 19.1551 27.676 18.6388 28.055C18.0984 28.4524 17.5317 28.8188 16.9418 29.1524C16.2548 29.5662 15.453 29.793 14.6302 29.8065V29.8065ZM15.8956 28.0762C15.5524 28.2606 15.1818 28.3986 14.7952 28.4858C15.1818 28.3986 15.5525 28.2606 15.8956 28.0762V28.0762ZM10.8469 27.453C10.8829 27.4753 10.9201 27.4978 10.9573 27.5198C10.9162 27.4954 10.8802 27.4734 10.8469 27.453ZM9.59132 26.4961L9.65467 26.5523L9.59132 26.4961ZM10.1971 21.0267L10.1775 21.0656V21.0686L10.1599 21.1044L10.1582 21.1085L10.1415 21.1435V21.1454V21.1473L10.1252 21.1832V21.1856L10.1088 21.2229V21.2245L10.0939 21.2595V21.262V21.2641L10.0805 21.297L10.0788 21.3011L10.066 21.3337V21.3364V21.3386C10.0618 21.3489 10.0579 21.36 10.0535 21.3723V21.375C10.0484 21.3888 10.0446 21.3991 10.0413 21.4092L10.0395 21.4144L10.0291 21.4456L10.027 21.4521C10.0236 21.4621 10.0204 21.472 10.0172 21.482V21.4855V21.4891L10.008 21.5189L9.99281 21.5276L9.99102 21.5341L9.98389 21.5586L9.98181 21.5659C9.97913 21.5757 9.97645 21.5855 9.97378 21.5953L9.97169 21.6031L9.96485 21.6303L9.96307 21.6379L9.96069 21.6482L9.95682 21.6648V21.6692V21.6738L9.95177 21.6963V21.7007L9.94582 21.7148L9.94225 21.7322L9.94047 21.7414V21.7455V21.7512C9.93898 21.7596 9.93749 21.7678 9.93601 21.7762L9.93422 21.7865L9.93036 21.8109L9.92857 21.8213C9.92857 21.8294 9.92619 21.8373 9.925 21.8454V21.8517V21.8579C9.925 21.8655 9.92292 21.8731 9.92203 21.8808V21.8884V21.8951V21.9025C9.92203 21.9076 9.92203 21.9128 9.92054 21.9177V21.9305V21.9373C9.92054 21.9424 9.92054 21.9478 9.92054 21.953C9.92054 21.9582 9.92054 21.9609 9.92054 21.965C9.92054 21.969 9.92054 21.9791 9.91905 21.9861C9.91905 21.9889 9.91905 21.9916 9.91905 21.9946V21.9995C9.91905 22.0065 9.91905 22.0136 9.91905 22.0209C9.91905 22.0282 9.91905 22.0312 9.91905 22.0364C9.91905 22.0424 9.91905 22.0486 9.91905 22.0546V22.0717C9.91905 22.0785 9.91905 22.0853 9.91905 22.0921V22.1412C9.91905 22.147 9.91905 22.1529 9.91905 22.1586C9.91905 22.1643 9.91905 22.1709 9.91905 22.1771V22.1929C9.91905 22.1994 9.91905 22.2059 9.91905 22.2124V22.2203V22.2282C9.91905 22.2325 9.91905 22.2366 9.91905 22.2409V22.2475V22.2559V22.264C9.91905 22.2695 9.91905 22.2752 9.91905 22.2806V22.2898V22.2999V22.3124C9.91905 22.3197 9.92054 22.327 9.92143 22.3344C9.92143 22.3374 9.92143 22.3401 9.92143 22.3431V22.348C9.92143 22.3556 9.92322 22.3629 9.92441 22.3702V22.3759V22.3835L9.92619 22.395L9.92768 22.4053L9.92976 22.4183V22.4248L9.93184 22.4373V22.4438V22.4517L9.93363 22.461V22.4688V22.4767L9.93541 22.4857L9.93928 22.5041V22.5093L9.94136 22.5196V22.5248L9.94433 22.5389L9.94671 22.5492C9.9485 22.5574 9.95038 22.5654 9.95236 22.5734L9.95504 22.5851L9.9592 22.6017L9.96099 22.6093V22.615V22.6201L9.96723 22.644L9.97021 22.6552C9.97288 22.665 9.97526 22.6731 9.97734 22.6804L9.98032 22.6908L9.98775 22.7155L9.98924 22.7204L9.99073 22.7253C9.99311 22.7334 9.99578 22.7413 9.99816 22.7494L10.0014 22.76L10.0095 22.7847L10.011 22.7894V22.7934L10.0202 22.8206V22.8247V22.829L10.0249 22.8421L10.03 22.8559L10.0321 22.8613V22.8646L10.0398 22.8855L10.0422 22.8918L10.0454 22.9002V22.904L10.0547 22.9279L10.0576 22.9358L10.0695 22.9651L10.0713 22.9692V22.9719L10.0841 23.0026L10.0865 23.008L10.0999 23.0393L10.1017 23.0431L10.1136 23.0702L10.1156 23.0748V23.0768V23.0792C10.1204 23.0898 10.1254 23.1007 10.1305 23.1115L10.1323 23.1156L10.1472 23.1476L10.1492 23.1523L10.1608 23.1764L10.1641 23.1832L10.1671 23.1892L10.1828 23.2215V23.2234L10.1846 23.227L10.2013 23.2601V23.2628V23.2647L10.206 23.274L10.2188 23.2992V23.3008L10.2251 23.3125L10.2376 23.3367C10.6259 23.9565 11.1109 24.5213 11.6773 25.0135C12.1267 25.4507 12.6567 25.8124 13.2431 26.0821C13.6625 26.3066 14.1368 26.4315 14.6227 26.4453C15.0798 26.4379 15.5252 26.3119 15.9069 26.0821C16.5465 25.7177 17.1382 25.2875 17.6705 24.8C18.1651 24.3742 18.5841 23.8806 18.9124 23.337C19.4001 22.5036 19.3068 21.8973 18.9475 21.0009C18.6563 20.4033 18.2461 19.8602 17.7377 19.3994C17.206 18.9159 16.5997 18.5062 15.9381 18.183C15.5095 17.9497 15.0242 17.8171 14.5258 17.797C14.1162 17.801 13.7155 17.906 13.3659 18.101C12.7053 18.4652 12.1002 18.9073 11.5661 19.416L11.5565 19.4247C11.0007 19.8788 10.5404 20.422 10.1983 21.0273L10.1971 21.0267ZM9.3995 26.3236L9.50983 26.4235L9.3995 26.3236ZM19.0846 25.7287C18.9981 25.8102 18.9062 25.8955 18.8083 25.9851C18.6938 26.0897 18.5763 26.1937 18.4571 26.2961C18.576 26.1937 18.695 26.0897 18.8083 25.9851C18.9068 25.8949 18.9984 25.8096 19.0846 25.7282V25.7287ZM20.8226 23.5752C20.8018 23.6124 20.7804 23.6502 20.7584 23.6879C20.6146 23.9342 20.4568 24.1734 20.2855 24.4045C20.4568 24.1734 20.6146 23.9342 20.7584 23.6879C20.7807 23.6496 20.8009 23.6119 20.8229 23.5744L20.8226 23.5752ZM21.0195 20.568C21.1271 20.8705 21.206 21.1809 21.2553 21.4958C21.2067 21.1806 21.1277 20.8698 21.0195 20.5671V20.568ZM18.4095 17.0729C18.5659 17.2011 18.7177 17.3324 18.8648 17.467C19.2865 17.8565 19.6724 18.2769 20.0187 18.7241C20.1692 18.9186 20.3051 19.109 20.4226 19.2905C19.9858 18.6275 19.4627 18.0152 18.8648 17.467C18.7181 17.3321 18.5663 17.2007 18.4095 17.0729ZM15.6981 15.3963C15.8067 15.4441 15.9182 15.4963 16.0386 15.5555C16.3726 15.7185 16.7012 15.8989 17.015 16.0882C16.7018 15.898 16.3732 15.7199 16.0389 15.5555C15.9182 15.4974 15.807 15.4431 15.6981 15.3963ZM10.397 22.8809C10.3409 22.7617 10.2936 22.6392 10.2554 22.5142C10.2075 22.3591 10.1803 22.1993 10.1742 22.0383C10.1907 22.3292 10.2664 22.6147 10.3973 22.8804L10.397 22.8809Z" fill="white"/>
<path d="M32.7352 25.5326C33.12 25.5326 33.4742 25.5256 33.7981 25.5117C34.1221 25.4977 34.4563 25.4677 34.8007 25.4215C34.8307 25.4151 34.8621 25.4155 34.8919 25.4227C34.9217 25.4299 34.9489 25.4438 34.9715 25.463C34.994 25.4822 35.0112 25.5062 35.0211 25.5328C35.0311 25.5595 35.0337 25.5879 35.0287 25.6157V26.656C35.0287 26.7761 34.948 26.8595 34.7856 26.9057C34.3892 27.0177 33.9825 27.0966 33.5704 27.1415C33.1325 27.1952 32.6911 27.2229 32.2493 27.2246C31.5393 27.2423 30.8322 27.1339 30.1675 26.9054C29.6278 26.7109 29.152 26.3928 28.7856 25.9819C28.4136 25.5463 28.1491 25.0422 28.0108 24.5044C27.8406 23.8551 27.7593 23.1891 27.7682 22.5215V21.8835C27.7594 21.2163 27.8385 20.5505 28.0038 19.9005C28.1368 19.3636 28.3959 18.8595 28.7633 18.4231C29.1257 18.0114 29.5995 17.693 30.1379 17.4996C30.8026 17.271 31.5096 17.1626 32.2197 17.1804C33.0452 17.1859 33.8648 17.3075 34.6497 17.5412C34.7193 17.557 34.7827 17.5908 34.8321 17.6384C34.8649 17.6834 34.881 17.737 34.8777 17.791V18.7898C34.8826 18.8176 34.8798 18.8461 34.8698 18.8727C34.8598 18.8994 34.8427 18.9234 34.8202 18.9426C34.7976 18.9618 34.7704 18.9756 34.7406 18.9828C34.7108 18.9901 34.6794 18.9905 34.6494 18.984C34.3657 18.9478 34.0568 18.92 33.7229 18.9007C33.389 18.8813 33.0498 18.8722 32.7052 18.8735C32.2889 18.8628 31.8743 18.924 31.4828 19.0539C31.162 19.1684 30.8847 19.3661 30.6853 19.6227C30.4669 19.917 30.3194 20.2503 30.2526 20.6005C30.1597 21.0603 30.1165 21.5273 30.1233 21.9949V22.4249C30.1164 22.8926 30.1621 23.3597 30.2598 23.8189C30.3308 24.1683 30.4836 24.4995 30.708 24.7899C30.915 25.0437 31.1969 25.2386 31.5206 25.3517C31.9097 25.4804 32.3217 25.5416 32.7355 25.532L32.7352 25.5326ZM36.7907 17.5699C36.7907 17.4219 36.8661 17.348 37.0184 17.348H38.9015C38.9346 17.3437 38.9684 17.3465 39 17.3561C39.0316 17.3657 39.0604 17.382 39.0839 17.4035C39.1075 17.425 39.1251 17.4513 39.1356 17.4802C39.1462 17.509 39.1494 17.5398 39.1446 17.5699V24.7411C39.1278 24.9497 39.1807 25.1581 39.2965 25.3386C39.3764 25.4133 39.4744 25.4698 39.5826 25.5035C39.6908 25.5373 39.806 25.5473 39.9192 25.5328H43.5179C43.5509 25.5285 43.5844 25.5313 43.6161 25.5409C43.6477 25.5506 43.6764 25.5668 43.7 25.5883C43.7236 25.6099 43.7415 25.6361 43.752 25.665C43.7625 25.6939 43.7654 25.7246 43.7607 25.7548V26.7813C43.7607 26.9569 43.6749 27.0494 43.5028 27.0586C42.9461 27.1048 42.308 27.1441 41.5889 27.1765C40.8698 27.2089 40.1255 27.2251 39.3561 27.2251C38.9501 27.2319 38.5445 27.1946 38.1482 27.114C37.8552 27.0564 37.5819 26.9353 37.3509 26.7609C37.1439 26.5924 36.9937 26.3735 36.9179 26.1299C36.8245 25.8182 36.7813 25.4958 36.7893 25.1727L36.7907 17.5699ZM47.5282 26.8226C47.5332 26.8546 47.5301 26.8873 47.5189 26.918C47.5077 26.9487 47.4887 26.9766 47.4637 26.9994C47.4386 27.0223 47.4081 27.0395 47.3745 27.0498C47.3409 27.06 47.3053 27.0629 47.2703 27.0584H45.4321C45.3971 27.0629 45.3615 27.06 45.3279 27.0498C45.2943 27.0395 45.2638 27.0223 45.2387 26.9994C45.2137 26.9766 45.1947 26.9487 45.1835 26.918C45.1723 26.8873 45.1689 26.8546 45.1739 26.8226V17.5976C45.1739 17.4312 45.26 17.348 45.4321 17.348H47.2703C47.4426 17.348 47.5284 17.4312 47.5282 17.5976V26.8226ZM54.6361 25.5323C55.0211 25.5323 55.3757 25.5253 55.6997 25.5114C56.0236 25.4974 56.3577 25.4674 56.7019 25.4212C56.7319 25.4148 56.763 25.4152 56.7928 25.4225C56.8226 25.4297 56.8502 25.4435 56.8727 25.4627C56.8953 25.4819 56.9124 25.5059 56.9224 25.5325C56.9324 25.5591 56.9348 25.5876 56.9299 25.6154V26.6558C56.9299 26.776 56.849 26.8593 56.6868 26.9054C56.2905 27.0174 55.8836 27.0963 55.4717 27.1412C55.0337 27.1949 54.5925 27.2227 54.1505 27.2243C53.4405 27.2421 52.7335 27.1336 52.0687 26.9051C51.529 26.7106 51.053 26.3926 50.6866 25.9816C50.315 25.5459 50.0514 25.0419 49.9135 24.5042C49.7432 23.8549 49.6615 23.1889 49.6704 22.5213V21.8832C49.6615 21.216 49.7406 20.5502 49.9059 19.9003C50.039 19.3634 50.2984 18.8593 50.6657 18.4229C51.0281 18.0111 51.5019 17.6928 52.0403 17.4993C52.705 17.2708 53.412 17.1624 54.1221 17.1801C54.9477 17.1856 55.7674 17.3073 56.5524 17.5409C56.6219 17.5568 56.6849 17.5905 56.7342 17.6381C56.767 17.6832 56.7831 17.7367 56.7798 17.7908V18.7896C56.7847 18.8174 56.7822 18.8458 56.7722 18.8725C56.7623 18.8991 56.7454 18.9231 56.7228 18.9423C56.7003 18.9615 56.6728 18.9754 56.643 18.9826C56.6132 18.9898 56.5821 18.9902 56.5521 18.9838C56.2684 18.9476 55.9594 18.9198 55.6253 18.9004C55.2912 18.881 54.9521 18.872 54.6079 18.8732C54.1915 18.8625 53.7765 18.9238 53.3849 19.0536C53.0641 19.1681 52.7871 19.3658 52.5877 19.6224C52.3695 19.9168 52.222 20.2501 52.155 20.6003C52.0624 21.0601 52.019 21.5271 52.0257 21.9946V22.4246C52.0187 22.8923 52.0644 23.3594 52.162 23.8186C52.2329 24.1681 52.3861 24.4994 52.6107 24.7897C52.8176 25.0436 53.0992 25.2384 53.423 25.3514C53.812 25.4801 54.2239 25.5413 54.6376 25.5318L54.6361 25.5323ZM66.316 17.3478C66.3498 17.3448 66.3835 17.3511 66.4133 17.3659C66.4431 17.3807 66.4674 17.4034 66.483 17.4309C66.4976 17.4604 66.5025 17.4931 66.4972 17.5251C66.492 17.5571 66.4768 17.587 66.4534 17.6112L63.2029 22.0225L66.8786 26.8084C66.8982 26.8305 66.9106 26.8571 66.9146 26.8852C66.9186 26.9134 66.9141 26.942 66.9012 26.9679C66.887 26.9983 66.8622 27.0236 66.8306 27.0399C66.7991 27.0562 66.7626 27.0626 66.7267 27.0581H64.5853C64.497 27.0621 64.4087 27.0479 64.3271 27.0165C64.2571 26.9807 64.1995 26.9279 64.1604 26.8639L61.0465 22.5357V26.822C61.0514 26.8541 61.0484 26.8867 61.0372 26.9173C61.0259 26.948 61.007 26.9759 60.982 26.9988C60.957 27.0216 60.9264 27.0389 60.8928 27.0491C60.8592 27.0594 60.8236 27.0623 60.7886 27.0578H58.9501C58.9151 27.0623 58.8795 27.0594 58.8459 27.0491C58.8123 27.0389 58.7817 27.0216 58.7567 26.9988C58.7317 26.9759 58.713 26.948 58.7018 26.9173C58.6906 26.8867 58.6872 26.854 58.6922 26.822V17.5971C58.6922 17.4307 58.7782 17.3475 58.9501 17.3475H60.7886C60.9605 17.3475 61.0463 17.4307 61.0465 17.5971V21.5086L63.9473 17.5134C63.9861 17.4617 64.0385 17.4194 64.0995 17.3904C64.1604 17.3613 64.2282 17.3464 64.2969 17.3469L66.316 17.3478Z" fill="white"/>
</g>
<defs>
<filter id="filter0_d_1928_48298" x="0" y="0" width="73" height="44" filterUnits="userSpaceOnUse" color-interpolation-filters="sRGB">
<feFlood flood-opacity="0" result="BackgroundImageFix"/>
<feColorMatrix in="SourceAlpha" type="matrix" values="0 0 0 0 0 0 0 0 0 0 0 0 0 0 0 0 0 0 127 0" result="hardAlpha"/>
<feMorphology radius="26" operator="erode" in="SourceAlpha" result="effect1_dropShadow_1928_48298"/>
<feOffset dy="6"/>
<feGaussianBlur stdDeviation="6"/>
<feColorMatrix type="matrix" values="0 0 0 0 0.203922 0 0 0 0 0.270588 0 0 0 0 0.796078 0 0 0 0.08 0"/>
<feBlend mode="normal" in2="BackgroundImageFix" result="effect1_dropShadow_1928_48298"/>
<feBlend mode="normal" in="SourceGraphic" in2="effect1_dropShadow_1928_48298" result="shape"/>
</filter>
</defs>
</svg>
