<svg width="199" height="89" viewBox="0 0 199 89" fill="none" xmlns="http://www.w3.org/2000/svg">
<mask id="mask0_1763_63618" style="mask-type:alpha" maskUnits="userSpaceOnUse" x="0" y="0" width="199" height="89">
<path d="M0 12C0 5.37259 5.37258 0 12 0H187C193.627 0 199 5.37258 199 12V89H0V12Z" fill="#92E3A9"/>
</mask>
<g mask="url(#mask0_1763_63618)">
<path d="M67.9541 9.10962H146.516C147.545 9.11139 148.564 8.91028 149.515 8.5178C150.466 8.12531 151.33 7.54915 152.058 6.82229C152.786 6.09542 153.364 5.23212 153.758 4.28177C154.152 3.33143 154.355 2.3127 154.355 1.28387V-63.4576C154.355 -64.4865 154.152 -65.5052 153.758 -66.4556C153.364 -67.4059 152.786 -68.2692 152.058 -68.9961C151.33 -69.7229 150.466 -70.2991 149.515 -70.6916C148.564 -71.0841 147.545 -71.2852 146.516 -71.2834H67.9541C66.9255 -71.2843 65.9068 -71.0826 64.9562 -70.6898C64.0056 -70.297 63.1416 -69.7208 62.4137 -68.9941C61.6857 -68.2674 61.1081 -67.4044 60.7136 -66.4545C60.3192 -65.5046 60.1157 -64.4862 60.1148 -63.4576V1.28387C60.1157 2.31245 60.3192 3.33078 60.7136 4.28072C61.1081 5.23067 61.6857 6.09362 62.4137 6.82031C63.1416 7.547 64.0056 8.12319 64.9562 8.51599C65.9068 8.90879 66.9255 9.1105 67.9541 9.10962V9.10962Z" stroke="#263238" stroke-width="1.0631" stroke-miterlimit="10"/>
<path d="M43.747 -12.9282L33.8195 -27.9985L17.134 -21.254L-2.33573 -39.8925L-32.7332 -27.62V-0.236675H50.1063V-17.2938L43.747 -12.9282Z" fill="#92E3A9" stroke="#263238" stroke-width="0.876601" stroke-miterlimit="10"/>
<path d="M43.747 -12.9282L33.8195 -27.9985L17.134 -21.254L-2.33573 -39.8925L-32.7332 -27.62V-0.236676H50.1063V-17.2938L43.747 -12.9282Z" stroke="#263238" stroke-width="0.876601" stroke-miterlimit="10"/>
<path d="M-29.388 9.10962H49.1736C50.2025 9.11139 51.2216 8.91028 52.1726 8.5178C53.1236 8.12531 53.9879 7.54915 54.716 6.82229C55.4442 6.09542 56.0218 5.23212 56.4159 4.28177C56.8101 3.33143 57.0129 2.3127 57.0129 1.28387V-63.4576C57.0129 -64.4865 56.8101 -65.5052 56.4159 -66.4556C56.0218 -67.4059 55.4442 -68.2692 54.716 -68.9961C53.9879 -69.7229 53.1236 -70.2991 52.1726 -70.6916C51.2216 -71.0841 50.2025 -71.2852 49.1736 -71.2834H-29.388C-30.4168 -71.2852 -31.4359 -71.0841 -32.3869 -70.6916C-33.3379 -70.2991 -34.2022 -69.7229 -34.9303 -68.9961C-35.6585 -68.2692 -36.2361 -67.4059 -36.6302 -66.4556C-37.0244 -65.5052 -37.2272 -64.4865 -37.2272 -63.4576V1.28387C-37.2272 2.3127 -37.0244 3.33143 -36.6302 4.28177C-36.2361 5.23212 -35.6585 6.09542 -34.9303 6.82229C-34.2022 7.54915 -33.3379 8.12531 -32.3869 8.5178C-31.4359 8.91028 -30.4168 9.11139 -29.388 9.10962V9.10962Z" stroke="#263238" stroke-width="1.0631" stroke-miterlimit="10"/>
<path d="M240.81 -71.2834H167.351C166.072 -71.2843 164.805 -71.0333 163.623 -70.5447C162.442 -70.0561 161.368 -69.3396 160.463 -68.4359C159.558 -67.5322 158.84 -66.4592 158.349 -65.278C157.859 -64.0969 157.606 -62.8307 157.606 -61.5519V-0.615129C157.609 1.96645 158.638 4.44097 160.465 6.26452C162.292 8.08807 164.769 9.11141 167.351 9.10961H240.81C242.088 9.11139 243.355 8.86121 244.537 8.37338C245.718 7.88554 246.792 7.16961 247.697 6.2665C248.602 5.36338 249.321 4.29078 249.811 3.11C250.301 1.92922 250.554 0.663399 250.555 -0.615129V-61.5519C250.554 -62.8307 250.301 -64.0969 249.811 -65.278C249.321 -66.4592 248.603 -67.5322 247.698 -68.4359C246.793 -69.3396 245.719 -70.0561 244.537 -70.5447C243.355 -71.0333 242.089 -71.2843 240.81 -71.2834V-71.2834Z" stroke="#263238" stroke-width="1.0631" stroke-miterlimit="10"/>
<path d="M157.308 121.765H240.215C242.954 121.767 245.582 120.681 247.521 118.746C249.46 116.811 250.551 114.185 250.555 111.446V24.1259C250.554 22.7689 250.286 21.4255 249.766 20.1721C249.246 18.9188 248.484 17.7802 247.524 16.8214C246.564 15.8625 245.424 15.1021 244.17 14.5836C242.916 14.0652 241.572 13.7988 240.215 13.7997H117.76C116.403 13.7988 115.06 14.0652 113.806 14.5836C112.552 15.1021 111.412 15.8625 110.452 16.8214C109.492 17.7802 108.73 18.9188 108.21 20.1721C107.69 21.4255 107.422 22.7689 107.421 24.1259V81.6634" stroke="#263238" stroke-width="1.0631" stroke-miterlimit="10"/>
<path d="M147.523 64.7211H127.803V93.3817H147.523V64.7211Z" fill="#92E3A9" stroke="#263238" stroke-width="1.16063" stroke-miterlimit="10"/>
<path opacity="0.2" d="M147.523 64.7211H127.803V93.3817H147.523V64.7211Z" fill="black"/>
<path d="M147.523 64.7211H127.803V93.3817H147.523V64.7211Z" stroke="#263238" stroke-width="1.16063" stroke-miterlimit="10"/>
<path d="M174.906 50.3874H155.186V82.1162H174.906V50.3874Z" fill="#92E3A9" stroke="#263238" stroke-width="1.16063" stroke-miterlimit="10"/>
<path opacity="0.2" d="M174.906 50.3874H155.186V82.1162H174.906V50.3874Z" fill="black"/>
<path d="M174.906 50.3874H155.186V82.1162H174.906V50.3874Z" stroke="#263238" stroke-width="1.16063" stroke-miterlimit="10"/>
<path d="M202.289 38.6218H182.57V59.6053H202.289V38.6218Z" fill="#92E3A9" stroke="#263238" stroke-width="1.16063" stroke-miterlimit="10"/>
<path opacity="0.2" d="M202.289 38.6218H182.57V59.6053H202.289V38.6218Z" fill="black"/>
<path d="M202.289 38.6218H182.57V59.6053H202.289V38.6218Z" stroke="#263238" stroke-width="1.16063" stroke-miterlimit="10"/>
<path d="M174.906 82.1162H155.186V105.147H174.906V82.1162Z" fill="#263238" stroke="#263238" stroke-width="1.16063" stroke-linecap="round" stroke-linejoin="round"/>
<path d="M202.289 59.5986H182.57V105.147H202.289V59.5986Z" fill="#263238" stroke="#263238" stroke-width="1.16063" stroke-linecap="round" stroke-linejoin="round"/>
<path d="M171.486 38.6623H159.18C158.616 38.6623 158.074 38.8866 157.675 39.2858C157.276 39.685 157.051 40.2265 157.051 40.7911V43.6227C157.051 44.1873 157.276 44.7287 157.675 45.1279C158.074 45.5272 158.616 45.7514 159.18 45.7514H163.742L165.337 48.5087L166.925 45.7514H171.486C172.051 45.7514 172.592 45.5272 172.992 45.1279C173.391 44.7287 173.615 44.1873 173.615 43.6227V40.7911C173.615 40.2265 173.391 39.685 172.992 39.2858C172.592 38.8866 172.051 38.6623 171.486 38.6623Z" fill="#92E3A9"/>
<path opacity="0.5" d="M171.486 38.6623H159.18C158.616 38.6623 158.074 38.8866 157.675 39.2858C157.276 39.685 157.051 40.2265 157.051 40.7911V43.6227C157.051 44.1873 157.276 44.7287 157.675 45.1279C158.074 45.5272 158.616 45.7514 159.18 45.7514H163.742L165.337 48.5087L166.925 45.7514H171.486C172.051 45.7514 172.592 45.5272 172.992 45.1279C173.391 44.7287 173.615 44.1873 173.615 43.6227V40.7911C173.615 40.2265 173.391 39.685 172.992 39.2858C172.592 38.8866 172.051 38.6623 171.486 38.6623Z" fill="white"/>
<path d="M171.486 38.6623H159.18C158.616 38.6623 158.074 38.8866 157.675 39.2858C157.276 39.685 157.051 40.2265 157.051 40.7911V43.6227C157.051 44.1873 157.276 44.7287 157.675 45.1279C158.074 45.5272 158.616 45.7514 159.18 45.7514H163.742L165.337 48.5087L166.925 45.7514H171.486C172.051 45.7514 172.592 45.5272 172.992 45.1279C173.391 44.7287 173.615 44.1873 173.615 43.6227V40.7911C173.615 40.2265 173.391 39.685 172.992 39.2858C172.592 38.8866 172.051 38.6623 171.486 38.6623V38.6623Z" stroke="#263238" stroke-width="1.16689" stroke-linecap="round" stroke-linejoin="round"/>
<path d="M143.812 53.3609H131.513C130.95 53.3609 130.409 53.5843 130.01 53.982C129.611 54.3798 129.386 54.9195 129.384 55.4829V58.3213C129.386 58.8847 129.611 59.4244 130.01 59.8222C130.409 60.22 130.95 60.4433 131.513 60.4433H136.068L137.663 63.2005L139.258 60.4433H143.812C144.376 60.4433 144.916 60.22 145.315 59.8222C145.714 59.4244 145.939 58.8847 145.941 58.3213V55.4829C145.939 54.9195 145.714 54.3798 145.315 53.982C144.916 53.5843 144.376 53.3609 143.812 53.3609Z" fill="#92E3A9"/>
<path opacity="0.5" d="M143.812 53.3609H131.513C130.95 53.3609 130.409 53.5843 130.01 53.982C129.611 54.3798 129.386 54.9195 129.384 55.4829V58.3213C129.386 58.8847 129.611 59.4244 130.01 59.8222C130.409 60.22 130.95 60.4433 131.513 60.4433H136.068L137.663 63.2005L139.258 60.4433H143.812C144.376 60.4433 144.916 60.22 145.315 59.8222C145.714 59.4244 145.939 58.8847 145.941 58.3213V55.4829C145.939 54.9195 145.714 54.3798 145.315 53.982C144.916 53.5843 144.376 53.3609 143.812 53.3609Z" fill="white"/>
<path d="M143.812 53.3609H131.513C130.95 53.3609 130.409 53.5843 130.01 53.982C129.611 54.3798 129.386 54.9195 129.384 55.4829V58.3213C129.386 58.8847 129.611 59.4244 130.01 59.8222C130.409 60.22 130.95 60.4433 131.513 60.4433H136.068L137.663 63.2005L139.258 60.4433H143.812C144.376 60.4433 144.916 60.22 145.315 59.8222C145.714 59.4244 145.939 58.8847 145.941 58.3213V55.4829C145.939 54.9195 145.714 54.3798 145.315 53.982C144.916 53.5843 144.376 53.3609 143.812 53.3609V53.3609Z" stroke="#263238" stroke-width="1.16689" stroke-linecap="round" stroke-linejoin="round"/>
<path d="M198.458 26.8561H186.151C185.587 26.8561 185.045 27.0804 184.646 27.4796C184.247 27.8788 184.023 28.4203 184.023 28.9849V31.8165C184.023 32.0957 184.078 32.3722 184.185 32.6301C184.292 32.888 184.449 33.1222 184.646 33.3194C184.844 33.5165 185.079 33.6727 185.337 33.7789C185.595 33.8851 185.872 33.9394 186.151 33.9385H190.713L192.301 36.6957L193.896 33.9385H198.458C198.737 33.9394 199.013 33.8851 199.272 33.7789C199.53 33.6727 199.765 33.5165 199.962 33.3194C200.16 33.1222 200.317 32.888 200.424 32.6301C200.531 32.3722 200.586 32.0957 200.586 31.8165V28.9849C200.586 28.4203 200.362 27.8788 199.963 27.4796C199.564 27.0804 199.022 26.8561 198.458 26.8561Z" fill="#92E3A9"/>
<path opacity="0.5" d="M198.458 26.8561H186.151C185.587 26.8561 185.045 27.0804 184.646 27.4796C184.247 27.8788 184.023 28.4203 184.023 28.9849V31.8165C184.023 32.0957 184.078 32.3722 184.185 32.6301C184.292 32.888 184.449 33.1222 184.646 33.3194C184.844 33.5165 185.079 33.6727 185.337 33.7789C185.595 33.8851 185.872 33.9394 186.151 33.9385H190.713L192.301 36.6957L193.896 33.9385H198.458C198.737 33.9394 199.013 33.8851 199.272 33.7789C199.53 33.6727 199.765 33.5165 199.962 33.3194C200.16 33.1222 200.317 32.888 200.424 32.6301C200.531 32.3722 200.586 32.0957 200.586 31.8165V28.9849C200.586 28.4203 200.362 27.8788 199.963 27.4796C199.564 27.0804 199.022 26.8561 198.458 26.8561Z" fill="white"/>
<path d="M198.458 26.8561H186.151C185.587 26.8561 185.045 27.0804 184.646 27.4796C184.247 27.8788 184.023 28.4203 184.023 28.9849V31.8165C184.023 32.0957 184.078 32.3722 184.185 32.6301C184.292 32.888 184.449 33.1222 184.646 33.3194C184.844 33.5165 185.079 33.6727 185.337 33.7789C185.595 33.8851 185.872 33.9394 186.151 33.9385H190.713L192.301 36.6957L193.896 33.9385H198.458C198.737 33.9394 199.013 33.8851 199.272 33.7789C199.53 33.6727 199.765 33.5165 199.962 33.3194C200.16 33.1222 200.317 32.888 200.424 32.6301C200.531 32.3722 200.586 32.0957 200.586 31.8165V28.9849C200.586 28.4203 200.362 27.8788 199.963 27.4796C199.564 27.0804 199.022 26.8561 198.458 26.8561V26.8561Z" stroke="#263238" stroke-width="1.16689" stroke-linecap="round" stroke-linejoin="round"/>
<path d="M128.472 22.8283H156.484" stroke="#263238" stroke-width="1.0631" stroke-miterlimit="10"/>
<path d="M128.472 25.8221H156.484" stroke="#263238" stroke-width="1.0631" stroke-miterlimit="10"/>
<path d="M128.472 28.8227H156.484" stroke="#263238" stroke-width="1.0631" stroke-miterlimit="10"/>
<path d="M128.472 31.8165H156.484" stroke="#263238" stroke-width="1.0631" stroke-miterlimit="10"/>
<path d="M128.472 34.8103H156.484" stroke="#263238" stroke-width="1.0631" stroke-miterlimit="10"/>
<path d="M51.2619 79.5346C50.2752 79.1156 45.7068 61.3354 45.7068 61.3354L43.355 54.6314C43.355 54.6314 39.8206 42.5684 38.469 40.3248C37.1174 38.0811 31.711 36.27 31.711 36.27L29.6836 35.1549L20.8982 30.4243V30.4716L19.6345 27.8292L4.51011 15.6649C4.51011 15.6649 4.78043 18.5978 5.18591 21.4903C5.14536 21.4903 2.03669 23.5177 0.928377 25.295C0.71888 25.6261 0.536413 26.3357 -0.301577 28.1942C-3.68057 29.9377 -16.4059 36.6079 -20.6161 39.8585C-25.5562 43.6632 -26.455 46.3529 -26.232 48.5965L-26.0022 52.1783C-26.0022 52.1783 -23.8937 65.0184 -21.6974 71.3507L-21.9677 71.2223L-22.042 150.034L41.233 147.635L41.3344 89.0904C43.4969 88.3808 45.7474 87.5496 47.1057 86.9481L47.4436 87.2522L50.2955 89.3404C50.7539 89.6851 51.2861 89.9189 51.8501 90.0232C52.4141 90.1276 52.9946 90.0997 53.5461 89.9419C54.7557 89.5973 53.9988 88.1646 53.1203 87.6915C52.4534 87.2413 51.8209 86.7421 51.2281 86.198L48.5925 82.9136C50.1738 83.1974 52.7081 83.6435 53.7623 83.7921C55.3302 84.0152 57.3508 84.4679 57.5738 82.4405C57.7968 80.4131 52.8365 80.2104 51.2619 79.5346Z" fill="white"/>
<path d="M4.58444 15.6919C4.58444 15.6919 5.44271 25.2207 6.00362 26.9372C6.51047 28.4915 9.07175 36.9728 11.3154 40.7776C13.5591 44.5823 16.296 44.1565 16.7218 39.8855C17.1475 35.6144 16.9313 28.6875 16.9313 28.6875" stroke="#263238" stroke-width="0.969857" stroke-linecap="round" stroke-linejoin="round"/>
<path d="M5.09806 21.7133C5.09806 21.7133 2.11779 23.5312 0.995959 25.322C-0.125867 27.1129 -4.84294 43.6902 -4.84294 43.6902L4.13166 44.143L-3.4981 47.522" stroke="#263238" stroke-width="0.969857" stroke-linecap="round" stroke-linejoin="round"/>
<path d="M-3.26833 49.5156C-3.26833 49.5156 4.36144 62.0652 5.48327 63.4168C6.17248 64.2532 6.77267 65.1592 7.27413 66.12" stroke="#263238" stroke-width="0.969857" stroke-linecap="round" stroke-linejoin="round"/>
<path d="M5.70627 25.5721C5.70627 25.5721 9.51777 41.2574 11.7885 49.5427C14.0591 57.828 16.2285 68.1474 16.2285 68.1474" stroke="#263238" stroke-width="0.969857" stroke-linecap="round" stroke-linejoin="round"/>
<path d="M16.9043 30.4784C16.9043 30.4784 17.8031 48.6236 17.8031 55.7938V67.2148" stroke="#263238" stroke-width="0.969857" stroke-linecap="round" stroke-linejoin="round"/>
<path d="M20.067 28.6808L26.1289 41.0073L21.1888 42.5752L28.8186 46.826L21.8646 68.5596" stroke="#263238" stroke-width="0.969857" stroke-linecap="round" stroke-linejoin="round"/>
<path d="M20.9658 30.4784L29.7174 35.1819" stroke="#263238" stroke-width="0.969857" stroke-linecap="round" stroke-linejoin="round"/>
<path d="M36.6781 48.8466L37.8 69.9045" stroke="#263238" stroke-width="0.969857" stroke-linecap="round" stroke-linejoin="round"/>
<path d="M-0.355646 28.2347C-0.355646 28.2347 -15.6152 36.074 -20.5485 39.8855C-25.4818 43.697 -26.3874 46.3799 -26.1644 48.6236" stroke="#263238" stroke-width="0.969857" stroke-linecap="round" stroke-linejoin="round"/>
<path d="M47.0111 64.2953C45.4027 60.2405 44.0578 56.8616 43.355 54.6382C43.3921 55.9858 43.1541 57.3267 42.6557 58.5793C42.1572 59.8318 41.4087 60.9697 40.4558 61.9233C35.7928 66.4782 34.475 64.8968 34.6845 71.2223C34.894 77.5477 37.3877 80.4199 35.8266 85.8128C34.2655 91.2057 27.4737 96.5309 27.717 105.87C27.8047 107.918 28.3743 109.916 29.3795 111.703L1.25275 149.243L41.4763 148.061V94.3549L47.0111 64.2953Z" fill="#92E3A9"/>
<path opacity="0.7" d="M47.0111 64.2953C45.4027 60.2405 44.0578 56.8616 43.355 54.6382C43.3921 55.9858 43.1541 57.3267 42.6557 58.5793C42.1572 59.8318 41.4087 60.9697 40.4558 61.9233C35.7928 66.4782 34.475 64.8968 34.6845 71.2223C34.894 77.5477 37.3877 80.4199 35.8266 85.8128C34.2655 91.2057 27.4737 96.5309 27.717 105.87C27.8047 107.918 28.3743 109.916 29.3795 111.703L1.25275 149.243L41.4763 148.061V94.3549L47.0111 64.2953Z" fill="white"/>
<path d="M28.3928 -2.90608C29.7444 -3.1291 36.4686 -7.38663 35.3468 -11.6442C34.225 -15.9017 24.7841 -21.058 17.3773 -18.5846C12.9153 -17.0991 8.79382 -14.7397 5.25349 -11.6442C5.25349 -11.6442 0.320164 -11.6442 -1.50449 -9.61677C-3.32915 -7.58937 -1.95052 -4.46718 -0.828694 -2.22353C0.144456 -0.283987 0.103906 4.85885 0.0768738 6.19017C0.0156493 6.18681 -0.0452757 6.20087 -0.0988355 6.23072C-0.474394 6.43799 -0.802086 6.72202 -1.06058 7.06435C-1.31907 7.40668 -1.50256 7.79962 -1.5991 8.21757C-1.90321 9.56917 -1.3423 11.3735 0.0228086 13.4145C0.47703 14.1807 1.11555 14.8214 1.88034 15.2781C2.64513 15.7349 3.51194 15.9933 4.40199 16.0298C4.98735 16.7041 5.46388 17.4657 5.8144 18.287C6.38207 19.6386 12.0385 28.3158 15.2756 28.5659C15.7419 28.6064 16.1879 28.6199 16.6272 28.6199C19.4182 28.6199 21.4456 27.8698 22.5337 26.4236C23.9731 24.5111 27.5413 16.8002 27.9874 13.0495C28.0617 12.3737 28.1023 11.529 28.1225 10.5153C28.6219 9.88305 28.8935 9.10093 28.8935 8.29528C28.8935 7.48963 28.6219 6.70751 28.1225 6.07528C28.0482 2.10834 27.8387 -2.00051 27.7846 -2.94663C27.9816 -2.88697 28.1897 -2.87311 28.3928 -2.90608Z" fill="white"/>
<path d="M27.4737 -3.12909C27.4737 -3.12909 28.1495 9.19072 27.6968 13.0022C27.244 16.8137 23.642 24.4232 22.2904 26.2209C20.9388 28.0185 18.2356 28.4577 15.3364 28.2483C12.4372 28.0388 6.80782 19.7332 6.13202 18.1653C5.75761 17.2598 5.22692 16.4272 4.56417 15.7054C4.56417 15.7054 2.09751 15.9284 0.299881 13.2388C-1.49774 10.5491 -2.16679 7.83237 0.0768662 6.51456" stroke="#263238" stroke-width="0.969857" stroke-linecap="round" stroke-linejoin="round"/>
<path d="M17.8233 8.9677C17.8233 8.9677 19.3979 6.26451 20.9658 7.84588L22.0876 15.0161L18.7086 15.9149L19.1547 19.4966" stroke="#263238" stroke-width="0.969857" stroke-linecap="round" stroke-linejoin="round"/>
<path d="M14.4579 12.3264C16.3166 12.3264 17.8233 10.8227 17.8233 8.9677C17.8233 7.11273 16.3166 5.60899 14.4579 5.60899C12.5992 5.60899 11.0924 7.11273 11.0924 8.9677C11.0924 10.8227 12.5992 12.3264 14.4579 12.3264Z" fill="#92E3A9" stroke="#263238" stroke-width="0.969857" stroke-linecap="round" stroke-linejoin="round"/>
<path opacity="0.4" d="M14.4579 12.3264C16.3166 12.3264 17.8233 10.8227 17.8233 8.9677C17.8233 7.11273 16.3166 5.60899 14.4579 5.60899C12.5992 5.60899 11.0924 7.11273 11.0924 8.9677C11.0924 10.8227 12.5992 12.3264 14.4579 12.3264Z" fill="white" stroke="#263238" stroke-width="1.16689" stroke-miterlimit="10"/>
<path d="M28.5956 8.29867C28.5956 7.63037 28.3974 6.97707 28.0261 6.4214C27.6548 5.86573 27.1271 5.43263 26.5097 5.17688C25.8922 4.92114 25.2128 4.85422 24.5574 4.9846C23.9019 5.11498 23.2998 5.4368 22.8273 5.90936C22.3547 6.38192 22.0329 6.984 21.9025 7.63946C21.7721 8.29492 21.8391 8.97433 22.0948 9.59176C22.3505 10.2092 22.7836 10.7369 23.3393 11.1082C23.895 11.4795 24.5483 11.6777 25.2166 11.6777C26.1127 11.6777 26.9722 11.3217 27.6059 10.688C28.2396 10.0543 28.5956 9.19483 28.5956 8.29867Z" fill="#92E3A9" stroke="#263238" stroke-width="0.969857" stroke-linecap="round" stroke-linejoin="round"/>
<path opacity="0.4" d="M28.5956 8.29867C28.5956 7.63037 28.3974 6.97707 28.0261 6.4214C27.6548 5.86573 27.1271 5.43263 26.5097 5.17688C25.8922 4.92114 25.2128 4.85422 24.5574 4.9846C23.9019 5.11498 23.2998 5.4368 22.8273 5.90936C22.3547 6.38192 22.0329 6.984 21.9025 7.63946C21.7721 8.29492 21.8391 8.97433 22.0948 9.59176C22.3505 10.2092 22.7836 10.7369 23.3393 11.1082C23.895 11.4795 24.5483 11.6777 25.2166 11.6777C26.1127 11.6777 26.9722 11.3217 27.6059 10.688C28.2396 10.0543 28.5956 9.19483 28.5956 8.29867Z" fill="white" stroke="#263238" stroke-width="1.16689" stroke-miterlimit="10"/>
<path d="M11.0924 8.9677L4.36143 9.41373" stroke="#263238" stroke-width="0.969857" stroke-linecap="round" stroke-linejoin="round"/>
<path d="M11.1465 4.29794C11.1465 4.29794 12.9508 2.50031 16.3028 3.52753" stroke="#263238" stroke-width="0.969857" stroke-linecap="round" stroke-linejoin="round"/>
<path d="M22.4864 3.27072C22.4864 3.27072 25.8654 1.47309 26.8655 3.78432" stroke="#263238" stroke-width="0.969857" stroke-linecap="round" stroke-linejoin="round"/>
<path d="M7.05111 -2.68306C7.05111 -2.68306 8.84873 1.57447 9.29476 2.25027C9.74078 2.92607 7.05111 6.05501 7.05111 6.05501V9.19071L4.34791 9.41373L1.64472 6.95382L0.0768635 6.50104C0.0768635 6.50104 0.299876 0.00661278 -0.82195 -2.23028C-1.94378 -4.46717 -3.28861 -7.63667 -1.49775 -9.62352C0.293118 -11.6104 5.26024 -11.6509 5.26024 -11.6509C8.80056 -14.7465 12.922 -17.1059 17.3841 -18.5914C24.8179 -21.058 34.2115 -15.8882 35.3333 -11.6509C36.4551 -7.41366 29.7444 -3.12909 28.3928 -2.90608C27.0412 -2.68307 25.0138 -5.36599 22.9864 -5.36599H19.844C17.6003 -5.36599 17.3773 -5.59576 14.9039 -5.59576C12.4305 -5.59576 7.05111 -2.68306 7.05111 -2.68306Z" fill="#263238"/>
<path d="M7.0511 -2.68306C7.0511 -2.68306 4.75339 -0.19612 1.77312 0.0201352" stroke="white" stroke-width="0.484928" stroke-linecap="round" stroke-linejoin="round"/>
<path d="M8.15942 0.445892C8.15942 0.445892 4.10463 2.35839 1.98262 2.35839" stroke="white" stroke-width="0.484928" stroke-linecap="round" stroke-linejoin="round"/>
<path d="M1.98262 4.05465C1.98262 4.05465 5.17915 4.73045 6.88216 4.05465" stroke="white" stroke-width="0.484928" stroke-linecap="round" stroke-linejoin="round"/>
<path d="M124.505 114.21C124.505 114.21 115.686 90.7529 113.422 88.4957C111.158 86.2385 99.8112 79.3251 99.8112 79.3251L98.8989 77.764L98.3447 75.865C98.3447 75.865 97.669 73.0064 95.7227 71.594L95.5672 71.2628L82.1864 65.5321C82.1864 65.5321 82.281 67.3027 82.4229 69.4382C80.8416 70.0126 77.3342 71.5534 76.1312 74.2972C75.3473 76.0745 74.9013 79.0278 74.6783 81.8053L74.1309 82.2108L74.3336 81.4674C74.3336 81.4674 59.5201 89.773 58.8511 91.1246C57.9861 92.2599 55.7492 99.5383 55.7492 99.5383C55.7492 99.5383 53.519 106.533 51.0659 114.257C47.6058 124.881 44.2606 135.498 44.0443 137.194C44.0443 137.349 44.0443 137.275 44.0443 137.275C43.8213 140.188 54.945 150.926 54.945 150.926H55.0936L56.4452 152.278C56.4452 152.278 56.4452 152.142 56.4452 151.717C57.3846 153.629 58.9187 156.447 60.1351 155.853C61.1353 155.359 60.8109 153.622 59.9999 151.358C61.0069 152.893 62.1625 154.008 63.0816 153.562C64.6697 152.778 63.879 150.068 62.2841 146.189C62.1478 145.858 61.9402 145.561 61.6763 145.319C61.4123 145.077 61.0984 144.897 60.7568 144.79C61.2704 144.736 61.7908 144.682 62.3247 144.614C62.8586 147.094 64.0547 149.243 65.3996 148.959C66.7444 148.676 66.9471 146.932 66.6768 143.965C66.812 143.965 66.9945 143.567 67.1296 143.546C67.7243 145.634 68.6366 147.493 69.7855 147.25C71.0492 146.979 71.3939 145.722 71.2452 143.195C71.2452 142.255 71.1776 141.951 71.1438 141.357C71.6372 141.661 74.0565 143.121 74.3336 143.33C75.2324 144.006 82.0715 142.546 82.0715 142.546C92.0598 139.316 108.029 139.167 118.342 132.26C125.228 127.618 124.505 114.21 124.505 114.21ZM61.5475 133.396L64.2507 115.609L65.3252 131.828L65.0076 135.829L61.5475 133.396Z" fill="white"/>
<path d="M58.8916 90.7393L74.9824 81.2782C74.9824 81.2782 75.9893 72.655 78.0438 71.7764C78.0438 71.7764 80.8686 69.3098 84.0787 69.7963C85.9168 70.0667 87.2752 67.7689 88.3159 63.7682C88.3159 55.8546 88.2078 45.7514 88.1267 39.4395C87.4509 36.324 86.721 33.7966 86.4777 32.8099L78.8953 29.6269C78.8953 29.6269 77.2734 24.1529 68.934 22.9297C60.5947 21.7065 51.6538 30.6473 50.6334 36.7363C49.6129 42.8252 55.5126 49.3196 53.2758 52.773C51.0389 56.2263 41.6858 61.2948 39.2462 67.181C36.8065 73.0672 37.4148 77.1288 37.4148 77.1288C37.4148 77.1288 44.1254 86.6643 42.294 89.9149C40.4626 93.1655 29.6904 96.2066 29.8931 105.749C30.0823 114.588 38.8339 120.812 48.5316 121.968L58.8916 90.7393Z" fill="#263238"/>
<path d="M76.4962 31.2556C76.4962 31.2556 70.7519 24.6733 63.5141 26.7953C56.2763 28.9173 53.5055 36.5741 54.999 40.3991C56.4925 44.2241 59.8918 47.4071 57.3373 53.1447C54.7828 58.8822 48.3965 59.7337 45.1729 66.3227C41.9494 72.9118 42.8346 75.0406 42.8346 75.0406" stroke="white" stroke-width="0.484928" stroke-linecap="round" stroke-linejoin="round"/>
<path d="M72.6644 36.7836C72.6644 36.7836 67.3459 37.4188 67.3459 40.8384C67.3459 44.2579 70.3261 45.9339 70.7249 50.1847C71.1236 54.4354 69.8734 56.1384 66.6701 61.4502C63.4668 66.762 63.2911 69.526 65.6091 73.1416C67.9271 76.7571 69.4408 82.7041 66.4606 84.8261" stroke="white" stroke-width="0.484928" stroke-linecap="round" stroke-linejoin="round"/>
<path d="M73.9417 32.5328C73.9417 32.5328 67.5554 29.1538 62.4531 32.3233C57.3508 35.4928 64.1561 41.8859 65.0076 47.8329C65.8591 53.7799 61.6286 58.0374 55.8573 64.4102C54.1666 66.3386 52.9112 68.6086 52.1766 71.0657C51.4419 73.5228 51.2451 76.1094 51.5998 78.6493" stroke="white" stroke-width="0.484928" stroke-linecap="round" stroke-linejoin="round"/>
<path d="M51.1672 86.0898C51.1672 86.0898 52.654 89.2729 48.606 93.5236C44.5579 97.7744 35.8334 98.8422 33.7384 105.215C31.6434 111.588 35.8266 114.994 35.8266 114.994" stroke="white" stroke-width="0.484928" stroke-linecap="round" stroke-linejoin="round"/>
<path d="M82.2337 65.1739C82.2337 65.1739 82.6797 73.716 83.1325 75.9529C83.5853 78.1898 85.3897 86.1777 86.0723 93.233C86.4023 96.8936 87.0812 100.514 88.0997 104.046C88.0997 104.046 93.5669 125.279 93.8912 98.6057C94.0061 89.1985 92.9924 74.412 92.9924 74.412L93.4385 69.9315" fill="white"/>
<g style="mix-blend-mode:multiply" opacity="0.3">
<path d="M91.3773 70.6343L83.1325 75.9529L82.6054 66.9715C82.6054 66.9715 88.1132 70.2289 91.3773 70.6343Z" fill="#92E3A9"/>
</g>
<g style="mix-blend-mode:multiply" opacity="0.3">
<path d="M93.0059 74.385C93.0059 74.385 92.7356 89.631 91.9922 96.0782C91.5819 100.175 92.0049 104.313 93.2357 108.243C93.2357 108.243 94.2697 84.6572 93.0059 74.385Z" fill="#92E3A9"/>
</g>
<path d="M82.2337 65.1739C82.2337 65.1739 82.6797 73.716 83.1325 75.9529C83.5853 78.1898 85.3897 86.1777 86.0723 93.233C86.4023 96.8936 87.0812 100.514 88.0997 104.046C88.0997 104.046 93.5669 125.279 93.8912 98.6057C94.0061 89.1985 92.9924 74.412 92.9924 74.412L93.4385 69.9315" stroke="#263238" stroke-width="0.969857" stroke-linecap="round" stroke-linejoin="round"/>
<path d="M82.3418 69.3841C82.3418 69.3841 77.7464 70.3505 76.1718 73.939C74.5972 77.5275 74.3809 85.8128 74.604 88.0497C74.7288 89.8496 74.7288 91.6561 74.604 93.4561L80.8889 91.4287" fill="white"/>
<g style="mix-blend-mode:multiply" opacity="0.3">
<path d="M83.2069 75.0743C81.3137 75.1187 79.4924 75.8077 78.0438 77.0274C75.3879 79.1156 75.1108 82.8798 75.1108 82.8798C75.1108 82.8798 74.2728 78.4195 75.9488 74.5202C77.6248 70.6208 82.3419 69.3841 82.3419 69.3841L83.2069 75.0743Z" fill="#92E3A9"/>
</g>
<path d="M82.3418 69.3841C82.3418 69.3841 77.7464 70.3505 76.1718 73.939C74.5972 77.5275 74.3809 85.8128 74.604 88.0497C74.7288 89.8496 74.7288 91.6561 74.604 93.4561L80.8889 91.4287" stroke="#263238" stroke-width="0.969857" stroke-linecap="round" stroke-linejoin="round"/>
<path d="M100.19 109.331L103.778 95.6659L97.4933 90.9353L102.433 89.3675L98.3786 75.4798C98.3786 75.4798 97.6284 71.9927 94.9996 70.8709" stroke="#263238" stroke-width="0.969857" stroke-linecap="round" stroke-linejoin="round"/>
<path d="M85.8357 85.137C85.8357 85.137 88.0794 87.8402 90.5663 87.3806C93.0533 86.9211 93.033 85.5898 93.033 85.5898" stroke="#263238" stroke-width="0.969857" stroke-linecap="round" stroke-linejoin="round"/>
<path d="M63.879 87.9618C63.879 87.9618 60.25 91.9152 60.4122 92.9019C60.5744 93.8886 64.8657 95.6997 63.879 96.8486C62.8924 97.9974 60.4122 95.2064 59.9188 95.6997C59.4255 96.193 50.3563 127.138 51.1808 127.618C52.0052 128.098 53.9853 126.3 54.4787 127.456C54.972 128.611 46.2339 131.896 48.0451 132.862C49.8562 133.828 54.3097 131.706 53.4515 132.037C52.5932 132.369 50.1535 135.491 50.8158 136.809C51.4781 138.126 58.5402 144.803 58.5402 144.803C58.1243 144.975 57.7911 145.301 57.6109 145.713C57.4306 146.125 57.4173 146.591 57.5738 147.013C57.7618 147.863 58.2397 148.62 58.9254 149.155C58.9254 149.155 57.0332 147.594 56.7426 149.284C56.5773 150.165 56.4801 151.057 56.452 151.953L51.8228 147.371C48.0518 143.533 44.9837 139.938 44.0781 136.849C44.0781 136.849 43.9159 137.302 44.9094 133.68C45.9028 130.057 55.7897 99.1125 55.7897 99.1125C55.7897 99.1125 58.0266 91.8274 58.8849 90.6988C59.7431 89.5702 63.879 87.9618 63.879 87.9618Z" fill="#92E3A9"/>
<path opacity="0.7" d="M63.879 87.9618C63.879 87.9618 60.25 91.9152 60.4122 92.9019C60.5744 93.8886 64.8657 95.6997 63.879 96.8486C62.8924 97.9974 60.4122 95.2064 59.9188 95.6997C59.4255 96.193 50.3563 127.138 51.1808 127.618C52.0052 128.097 53.9853 126.3 54.4787 127.455C54.972 128.611 46.2339 131.895 48.0451 132.862C49.8562 133.828 54.3097 131.706 53.4515 132.037C52.5932 132.369 50.1536 135.491 50.8158 136.809C51.4781 138.126 58.5402 144.803 58.5402 144.803C58.1243 144.975 57.7911 145.301 57.6109 145.713C57.4306 146.125 57.4173 146.591 57.5738 147.013C57.7618 147.863 58.2397 148.62 58.9254 149.155C58.9254 149.155 57.0332 147.594 56.7426 149.284C56.452 150.973 56.3033 152.082 56.3033 152.082L51.8228 147.351C47.1463 142.681 44.2538 138.998 44.0781 136.829C44.0781 136.829 43.5307 137.856 44.9094 133.659C46.0785 130.091 55.7897 99.0922 55.7897 99.0922C55.7897 99.0922 58.0266 91.8071 58.8849 90.6785C59.7431 89.5499 63.879 87.9618 63.879 87.9618Z" fill="white"/>
<path d="M72.0021 83.461V96.0782L79.9563 94.044L82.6054 90.9894L74.4485 92.6181L74.9824 81.2444L72.0021 83.461Z" fill="#92E3A9"/>
<path opacity="0.7" d="M72.0021 83.461V96.0782L79.9563 94.044L82.6054 90.9894L74.4485 92.6181L74.9824 81.2444L72.0021 83.461Z" fill="white"/>
<path d="M74.3809 81.1092C74.3809 81.1092 59.5674 89.3945 58.8916 90.7394C58.2158 92.0842 44.3079 133.99 44.0849 136.89C43.8619 139.789 55.0801 150.777 55.0801 150.777" stroke="#263238" stroke-width="0.969857" stroke-linecap="round" stroke-linejoin="round"/>
<path d="M99.8586 78.9602C99.8586 78.9602 111.205 85.8803 113.469 88.1375C115.733 90.3947 123.68 111.561 123.68 111.561" stroke="#263238" stroke-width="0.969857" stroke-linecap="round" stroke-linejoin="round"/>
<path d="M79.5373 28.9105C79.5373 28.9105 73.0293 32.7153 72.5833 38.3176C72.3683 42.0124 72.7471 45.7177 73.7051 49.2926C73.7051 49.2926 71.6777 47.5017 71.4615 51.5363C71.2452 55.5708 74.6039 58.6997 75.9488 58.6997H77.3004C77.3004 58.6997 80.2942 64.8495 83.8894 67.7622C87.4847 70.6749 90.9921 70.8033 93.4587 69.9045C95.9254 69.0057 100.642 64.9779 101.095 59.5985C101.548 54.2192 101.095 45.2581 100.642 39.6625C100.19 34.0669 99.0746 30.0256 93.0127 28.0117C86.9508 25.9978 82.6797 27.3359 79.5373 28.9105Z" fill="white"/>
<g style="mix-blend-mode:multiply" opacity="0.3">
<path d="M73.7051 49.2926C73.7051 49.2926 71.6777 47.5017 71.4615 51.5363C71.2452 55.5708 74.6039 58.6997 75.9488 58.6997H77.3004C77.3004 58.6997 80.2942 64.8427 83.8894 67.7622L85.4302 68.8232C85.9551 69.1408 86.5042 69.4165 87.0724 69.6477C85.8628 68.1609 83.2339 64.7346 81.9972 61.653C80.3618 57.5982 79.9698 49.0358 80.3617 43.5416C80.7537 38.0473 83.6259 35.8037 83.6259 35.8037L79.5711 35.6009C78.9696 35.6009 75.8271 40.2774 72.6374 42.9604L73.7051 49.2926Z" fill="#92E3A9"/>
</g>
<path d="M79.5373 28.9105C79.5373 28.9105 73.0293 32.7153 72.5833 38.3176C72.3683 42.0124 72.7471 45.7177 73.7051 49.2926C73.7051 49.2926 71.6777 47.5017 71.4615 51.5363C71.2452 55.5708 74.6039 58.6997 75.9488 58.6997H77.3004C77.3004 58.6997 80.2942 64.8495 83.8894 67.7622C87.4847 70.6749 90.9921 70.8033 93.4587 69.9045C95.9254 69.0057 100.642 64.9779 101.095 59.5985C101.548 54.2192 101.095 45.2581 100.642 39.6625C100.19 34.0669 99.0746 30.0256 93.0127 28.0117C86.9508 25.9978 82.6797 27.3359 79.5373 28.9105Z" stroke="#263238" stroke-width="0.969857" stroke-linecap="round" stroke-linejoin="round"/>
<path d="M89.9311 49.4751C89.9311 49.4751 91.8098 46.265 93.6817 48.1235L95.0333 54.4963L92.3301 55.0504L92.587 59.0309" stroke="#263238" stroke-width="0.969857" stroke-linecap="round" stroke-linejoin="round"/>
<path d="M85.9168 53.4826C88.1338 53.4826 89.9311 51.6883 89.9311 49.4751C89.9311 47.2618 88.1338 45.4676 85.9168 45.4676C83.6998 45.4676 81.9026 47.2618 81.9026 49.4751C81.9026 51.6883 83.6998 53.4826 85.9168 53.4826Z" fill="#92E3A9" stroke="#263238" stroke-width="0.969857" stroke-linecap="round" stroke-linejoin="round"/>
<path opacity="0.4" d="M85.9168 53.4826C88.1338 53.4826 89.9311 51.6883 89.9311 49.4751C89.9311 47.2618 88.1338 45.4676 85.9168 45.4676C83.6998 45.4676 81.9026 47.2618 81.9026 49.4751C81.9026 51.6883 83.6998 53.4826 85.9168 53.4826Z" fill="white" stroke="#263238" stroke-width="1.16689" stroke-miterlimit="10"/>
<path d="M102.792 48.6709C102.793 47.8768 102.559 47.1 102.119 46.4386C101.68 45.7773 101.054 45.2608 100.322 44.9545C99.589 44.6482 98.7821 44.5656 98.0026 44.7173C97.2231 44.869 96.5059 45.248 95.9416 45.8067C95.3772 46.3654 94.9909 47.0787 94.8314 47.8567C94.672 48.6346 94.7464 49.4424 95.0453 50.1781C95.3443 50.9138 95.8544 51.5444 96.5114 51.9906C97.1683 52.4368 97.9426 52.6784 98.7367 52.6851C99.2673 52.6905 99.7936 52.5906 100.285 52.3913C100.777 52.1919 101.224 51.8971 101.601 51.5238C101.979 51.1505 102.278 50.7062 102.482 50.2165C102.686 49.7268 102.792 49.2015 102.792 48.6709Z" fill="#92E3A9" stroke="#263238" stroke-width="0.969857" stroke-linecap="round" stroke-linejoin="round"/>
<path opacity="0.4" d="M102.792 48.6709C102.793 47.8768 102.559 47.1 102.119 46.4386C101.68 45.7773 101.054 45.2608 100.322 44.9545C99.589 44.6482 98.7821 44.5656 98.0026 44.7173C97.2231 44.869 96.5059 45.248 95.9416 45.8067C95.3772 46.3654 94.9909 47.0787 94.8314 47.8567C94.672 48.6346 94.7464 49.4424 95.0453 50.1781C95.3443 50.9138 95.8544 51.5444 96.5114 51.9906C97.1683 52.4368 97.9426 52.6784 98.7367 52.6851C99.2673 52.6905 99.7936 52.5906 100.285 52.3913C100.777 52.1919 101.224 51.8971 101.601 51.5238C101.979 51.1505 102.278 50.7062 102.482 50.2165C102.686 49.7268 102.792 49.2015 102.792 48.6709Z" fill="white" stroke="#263238" stroke-width="1.16689" stroke-miterlimit="10"/>
<path d="M81.9026 49.4751L73.8673 50.009" stroke="#263238" stroke-width="0.969857" stroke-linecap="round" stroke-linejoin="round"/>
<path d="M82.646 44.116C83.1145 43.5399 83.7322 43.1035 84.4317 42.8545C85.1312 42.6054 85.8857 42.5532 86.6129 42.7036" stroke="#263238" stroke-width="0.969857" stroke-linecap="round" stroke-linejoin="round"/>
<path d="M95.128 42.4197C95.7907 42.0557 96.5563 41.9244 97.3025 42.0469C98.0486 42.1694 98.7321 42.5387 99.2436 43.0955" stroke="#263238" stroke-width="0.969857" stroke-linecap="round" stroke-linejoin="round"/>
<path d="M100.636 39.6625C100.19 34.0601 99.0679 30.0256 93.0059 28.0117C86.944 25.9978 82.6797 27.3359 79.5373 28.9105C79.5373 28.9105 73.0293 32.7153 72.5833 38.3176C72.3683 42.0124 72.7471 45.7177 73.7051 49.2926C73.7051 49.2926 75.5027 51.0835 75.9488 48.6168C76.3948 46.1501 75.05 42.1156 81.3552 37.4121C87.6604 32.7085 96.6147 34.9522 99.7572 39.4395C100.124 39.7335 100.442 40.0849 100.697 40.4802C100.703 40.3991 100.642 39.7638 100.636 39.6625Z" fill="#263238"/>
<path d="M2.56381 64.5251C2.56381 64.5251 -2.84258 63.6331 -6.89738 66.3227C-8.05178 67.0908 -8.96151 68.1741 -9.51854 69.4439C-10.0756 70.7137 -10.2565 72.1166 -10.0398 73.4862" stroke="#263238" stroke-width="0.969857" stroke-linecap="round" stroke-linejoin="round"/>
<path d="M-25.9414 52.2053C-25.9414 52.2053 -23.2382 68.5596 -20.7783 73.4862C-18.3184 78.4128 -11.3171 83.1231 -5.96476 85.36C-0.612436 87.5969 24.5543 91.1854 25.4531 90.9624C26.3519 90.7393 21.1888 86.0358 22.3107 80.2104C22.8716 77.318 26.798 74.385 26.798 74.385C26.798 74.385 15.8027 69.6544 11.5384 67.8906C7.27413 66.1267 2.56381 64.5116 2.56381 64.5116C2.56381 64.5116 -3.51837 58.916 -6.41079 56.4493C-9.07026 54.3565 -11.843 52.4118 -14.7164 50.6239" stroke="#263238" stroke-width="0.969857" stroke-linecap="round" stroke-linejoin="round"/>
<path d="M48.2681 82.5487L51.201 86.198C51.7939 86.7421 52.4264 87.2413 53.0933 87.6915C53.9718 88.1646 54.7287 89.5972 53.519 89.9419C52.9676 90.0997 52.3871 90.1276 51.823 90.0232C51.259 89.9189 50.7269 89.6851 50.2684 89.3404L47.4166 87.2522L45.031 85.0964L46.761 81.9878L48.2681 82.5487Z" fill="white" stroke="#263238" stroke-width="0.969857" stroke-linecap="round" stroke-linejoin="round"/>
<path d="M26.7979 74.385C26.7979 74.385 33.7587 75.9529 36.0023 76.4124C38.246 76.872 49.694 78.8791 51.2619 79.5481C52.8297 80.2172 57.7698 80.4469 57.5468 82.4608C57.3238 84.4747 55.3031 84.0287 53.7353 83.8124C52.1674 83.5961 47.2206 82.6973 47.2206 82.6973C47.2206 82.6973 48.7952 85.61 48.3492 86.2791C47.9031 86.9481 37.7999 90.5366 35.7793 90.5366C33.7587 90.5366 32.4003 86.9481 31.515 85.806L28.8118 82.427L23.4054 79.9671" fill="white"/>
<path d="M26.7979 74.385C26.7979 74.385 33.7587 75.9529 36.0023 76.4124C38.246 76.872 49.694 78.8791 51.2618 79.5481C52.8297 80.2172 57.7698 80.4469 57.5468 82.4608C57.3238 84.4747 55.3031 84.0287 53.7353 83.8124C52.1674 83.5961 47.2206 82.6973 47.2206 82.6973C47.2206 82.6973 48.7952 85.61 48.3492 86.2791C47.9031 86.9481 37.7999 90.5366 35.7793 90.5366C33.7587 90.5366 32.4003 86.9481 31.515 85.806L28.8118 82.427L23.4054 79.9671" stroke="#263238" stroke-width="0.969857" stroke-linecap="round" stroke-linejoin="round"/>
<path d="M47.2206 82.6771L45.6527 80.4334" stroke="#263238" stroke-width="0.969857" stroke-linecap="round" stroke-linejoin="round"/>
<path d="M25.4531 90.9624C26.627 89.8936 27.5415 88.5711 28.1271 87.0955C28.7126 85.6199 28.9537 84.0302 28.8321 82.4473" stroke="#263238" stroke-width="0.969857" stroke-linecap="round" stroke-linejoin="round"/>
<path d="M37.3472 85.36L39.1448 89.6175" stroke="#263238" stroke-width="0.969857" stroke-linecap="round" stroke-linejoin="round"/>
<path d="M41.8345 83.5691L43.6321 88.2727" stroke="#263238" stroke-width="0.969857" stroke-linecap="round" stroke-linejoin="round"/>
<path d="M31.7718 36.297C31.7718 36.297 37.1782 38.0946 38.5298 40.3518C39.8814 42.609 43.355 54.6314 43.355 54.6314" stroke="#263238" stroke-width="0.969857" stroke-linecap="round" stroke-linejoin="round"/>
<rect y="86" width="156" height="3" fill="#E4C418"/>
</g>
</svg>
