<svg width="85" height="85" viewBox="0 0 85 85" fill="none" xmlns="http://www.w3.org/2000/svg">
<mask id="mask0_22_15" style="mask-type:alpha" maskUnits="userSpaceOnUse" x="0" y="0" width="85" height="85">
<rect width="85" height="85" rx="42.5" fill="#34BEB6"/>
</mask>
<g mask="url(#mask0_22_15)">
<path d="M42.5231 77.7102C62.0266 77.7102 77.8372 61.7222 77.8372 42C77.8372 22.2778 62.0266 6.28986 42.5231 6.28986C23.0197 6.28986 7.20898 22.2778 7.20898 42C7.20898 61.7222 23.0197 77.7102 42.5231 77.7102Z" fill="white"/>
<path fill-rule="evenodd" clip-rule="evenodd" d="M42.5231 -1C65.993 -1 85.0463 18.2353 85.0463 42C85.0463 65.7331 65.993 85 42.5231 85C19.022 85 0 65.7331 0 42C0 18.2353 19.022 -1 42.5231 -1ZM42.5231 8.86088C60.6081 8.86088 75.2947 23.7122 75.2947 42C75.2947 60.2878 60.6081 75.1391 42.5231 75.1391C24.4381 75.1391 9.75152 60.2878 9.75152 42C9.75152 23.7122 24.4381 8.86088 42.5231 8.86088V8.86088Z" fill="#111E6C"/>
<path fill-rule="evenodd" clip-rule="evenodd" d="M33.1464 32.2149C33.1464 32.2149 33.2214 32.3665 33.3338 32.5181C33.4838 32.6318 33.7024 32.7456 33.9273 32.7076C34.1522 32.7076 34.4146 32.5939 34.5645 32.4423C34.6769 32.3286 34.7144 32.2149 34.7894 31.9875C34.8643 31.7222 35.0143 31.3811 35.2766 31.1158C35.5015 30.8568 35.8701 30.6672 36.2074 30.5535C36.5823 30.4777 36.9571 30.4777 37.2569 30.5156C37.588 30.5914 37.8504 30.7052 38.0378 30.8189C38.2627 30.8883 38.4126 31.0021 38.4876 31.0779C38.5625 31.1537 38.6 31.2295 38.5625 31.2295C38.5251 31.2295 38.3751 31.1537 38.1877 31.1158C38.0003 31.04 37.7379 31.0021 37.4818 30.9641C37.182 30.9262 36.8821 30.9262 36.5448 31.0021C36.2074 31.0779 35.8701 31.1916 35.6452 31.3811C35.3891 31.5706 35.2017 31.798 35.1267 31.9496C35.0143 32.1012 34.8643 32.2528 34.9018 32.3286C34.9393 32.3665 35.1267 32.5181 35.2766 32.5939C35.464 32.7076 35.7577 32.8214 36.0575 32.9351C36.3574 33.0045 36.8071 33.0045 37.182 32.9666C37.5568 32.9351 38.0003 32.8214 38.3002 32.6697C38.6375 32.5181 38.675 32.2149 38.8249 32.1391C38.9748 32.0633 39.0873 32.1012 39.1622 32.1391C39.2747 32.1391 39.3497 32.2149 39.3871 32.2528C39.4621 32.2528 39.4621 32.2528 39.4621 32.1012C39.4621 31.9875 39.4246 31.7601 39.3122 31.4948C39.1997 31.2295 39.0123 30.8883 39.1622 30.8883C39.2747 30.8568 39.6433 31.1537 39.9431 31.419C40.2055 31.7222 40.3179 31.9875 40.3554 32.4044C40.6178 35.1208 40.5428 31.8738 40.5428 31.4948C40.5428 31.1537 40.6553 31.0779 40.6928 31.0021C40.6928 30.9262 40.6178 30.8883 40.4304 30.781C40.2805 30.7052 39.9806 30.5535 39.6433 30.364C39.3122 30.1366 38.9374 29.8713 38.6 29.7197C38.2252 29.5681 37.9254 29.5302 37.4818 29.5302C37.032 29.5681 36.4698 29.606 36.02 29.8713C35.5702 30.0608 35.2017 30.4777 34.9393 30.8568C34.6769 31.2674 34.527 31.6843 34.3771 31.9496C34.2271 32.2528 34.1147 32.3665 33.9273 32.4423C33.7399 32.4802 33.515 32.4423 33.3713 32.3665C33.2214 32.3286 33.1464 32.2149 33.1464 32.2149V32.2149ZM58.4779 47.7043C58.178 48.955 57.8469 51.2608 57.2472 53.5222C56.61 55.7522 55.7167 57.9442 54.2549 59.6813C52.7994 61.3869 50.7816 62.6314 49.3261 63.3894C47.8643 64.1033 46.971 64.3307 47.2708 64.7097C47.5707 65.0887 49.1387 65.5815 51.0815 65.9921C53.0618 66.4469 55.4169 66.8259 57.4721 66.788C59.4899 66.788 61.1703 66.409 62.6259 65.5435C64.0439 64.7097 65.2059 63.4653 66.399 61.8355C67.5985 60.212 68.7916 58.2095 69.6912 56.3965C70.5845 54.5835 71.1842 52.96 71.559 51.7093C71.9713 50.5027 72.1213 49.7068 72.0463 49.2962C71.9339 48.8792 71.559 48.8413 71.1093 49.2583C70.697 49.6689 70.2097 50.5785 69.9161 50.7301C69.6537 50.8438 69.5788 50.2374 69.3913 49.8205C69.2039 49.4035 68.8666 49.2204 68.4543 50.3132C68.0483 51.4124 67.5235 53.7876 66.6614 55.9038C65.7681 58.02 64.4937 59.9088 63.6379 60.8184C62.7758 61.6902 62.326 61.6144 62.4385 61.1595C62.5884 60.7047 63.2631 59.9467 63.9752 58.7022C64.6811 57.4578 65.4683 55.7901 66.068 53.9771C66.6614 52.202 67.0737 50.3132 67.1112 49.2583C67.1862 48.197 66.8488 47.9696 66.5115 47.9317C66.2116 47.8559 65.8431 47.9696 65.4683 47.8559C65.0934 47.7422 64.6436 47.401 64.3438 47.4769C64.0502 47.5906 63.9003 48.0833 63.488 48.197C63.1131 48.3486 62.5134 48.0454 62.1011 47.7043C61.6951 47.3631 61.4702 46.9904 61.1703 46.9904C60.908 46.9904 60.6081 47.3631 60.4207 47.4769C60.2333 47.5527 60.1583 47.3631 60.0084 47.1042C59.8647 46.8388 59.6398 46.5735 59.3775 46.4977C59.1151 46.384 58.7777 46.4977 58.4779 47.7043V47.7043ZM60.1583 53.7497C59.7523 54.6214 59.0026 56.5481 58.2155 58.1337C57.3972 59.7193 56.5351 61.0079 55.7917 61.9492C55.0795 62.8967 54.4798 63.4652 54.2175 63.7621C53.9551 64.1033 54.03 64.1412 54.18 64.1412C54.3674 64.1033 54.6672 63.9896 55.2295 63.5032C55.7917 63.0104 56.61 62.1387 57.3222 61.2353C58.0281 60.2878 58.6278 59.2707 59.1151 58.3232C59.6023 57.3441 59.9397 56.4344 60.1583 55.5627C60.4207 54.7351 60.5706 53.9771 60.6081 53.5222C60.6456 53.0737 60.5706 52.8842 60.1583 53.7497V53.7497ZM26.9057 47.7422C26.8682 48.3865 26.6808 49.2962 26.8682 50.7301C27.0556 52.1262 27.6116 54.0529 28.7735 55.9417C29.8917 57.8305 31.5722 59.6814 34.3771 61.5007C37.2194 63.3136 41.18 65.0887 44.6908 66.1437C48.1641 67.2428 51.1939 67.6598 53.3616 67.8809C55.5293 68.1462 56.7975 68.222 57.2098 68.601C57.6595 69.0179 57.2098 69.7002 56.0103 70.4519C54.8172 71.172 52.8744 71.9995 50.2194 72.606C47.5332 73.2124 44.1661 73.5914 40.5803 73.3261C36.9946 73.0608 33.1839 72.0754 29.6669 70.3761C26.1561 68.6768 22.8701 66.2195 20.4776 63.838C18.0475 61.4249 16.4795 59.1191 15.355 56.8892C14.1994 54.6593 13.4497 52.581 13.4122 51.5198C13.3373 50.5027 14.0119 50.5027 14.5367 50.6164C15.0989 50.6922 15.4675 50.8817 15.7299 50.9196C15.9548 50.9575 15.9922 50.8438 16.1047 50.8817C16.2171 50.9196 16.3671 51.1091 16.5545 51.6335C16.7794 52.202 17.0042 53.1116 17.3353 53.9392C17.7102 54.7351 18.1974 55.4174 18.3099 55.2657C18.4598 55.0762 18.2349 54.015 18.0475 53.0737C17.8601 52.1262 17.7102 51.2987 17.7102 50.6164C17.7102 49.8963 17.8601 49.3341 18.0475 49.1066C18.2349 48.8792 18.4598 49.0308 18.6472 49.1066C18.8346 49.1825 18.9471 49.2204 19.097 48.9929C19.2469 48.7655 19.4281 48.3107 19.7279 48.0075C19.9903 47.7422 20.3651 47.6285 20.7025 47.8938C21.0023 48.1212 21.2647 48.7276 21.5958 49.5552C21.8956 50.4269 22.233 51.5198 22.8327 53.0358C23.4636 54.5835 24.3257 56.586 25.2253 58.0958C26.1186 59.6435 27.0556 60.7426 27.318 60.8563C27.5366 60.97 27.1306 60.0983 26.6058 58.8159C26.0436 57.5715 25.4127 55.9417 25.0004 54.394C24.5506 52.8463 24.3257 51.3366 24.4007 50.1616C24.4756 48.9929 24.8504 48.1212 25.3002 47.5527C25.7438 46.9904 26.306 46.763 26.6058 46.8009C26.9432 46.8388 26.9807 47.1421 26.9057 47.7422V47.7422ZM30.4915 65.1266C31.4285 65.6194 33.3338 66.8638 35.3516 67.7735C37.3694 68.6768 39.5371 69.2453 41.6298 69.6623C43.7225 70.1108 45.7715 70.414 47.1959 70.6414C48.5764 70.8688 49.3261 70.9825 49.476 71.172C49.5884 71.3615 49.1012 71.551 47.9767 71.6647C46.8585 71.7406 45.0656 71.7027 43.1228 71.4752C41.2175 71.2478 39.1248 70.8688 37.2194 70.1866C35.2766 69.4727 33.5525 68.4873 32.2843 67.584C31.0537 66.6743 30.304 65.8784 29.9292 65.354C29.5544 64.8234 29.5544 64.596 30.4915 65.1266V65.1266ZM30.454 47.0662C30.0042 47.0283 29.2983 47.0283 28.6986 47.18C28.1363 47.3252 27.724 47.5906 27.6491 48.4623C27.5366 49.3341 27.799 50.8059 28.2863 52.1641C28.7735 53.5602 29.4794 54.8488 30.379 55.9796C33.1839 59.4603 39.4621 62.5177 43.2728 64.0654C43.2728 64.0654 51.9748 61.7597 53.3616 58.3232C53.4741 58.2095 53.549 58.0958 53.6615 57.9821C53.8489 57.7926 54.03 57.5715 54.2175 57.2682C55.0046 55.9038 55.7167 53.3391 56.1603 51.4439C56.5726 49.5552 56.7225 48.3486 56.7975 47.5906C56.8724 46.8388 56.8349 46.5735 56.4226 46.384C56.0103 46.2324 55.2295 46.1566 54.5548 46.2324C54.105 46.3082 52.7994 45.3227 52.8369 45.7397C52.8744 46.6493 51.9748 47.4769 51.8623 47.7422C51.7561 47.9696 51.6437 48.1212 51.4938 48.2728C50.7816 48.955 50.7067 49.3341 50.032 50.1616C49.957 50.3132 49.2886 50.3132 49.1761 50.4269C49.0637 50.5027 48.9887 50.6543 48.8013 50.8438C48.6139 51.0333 48.3515 51.2608 48.1641 51.4124C47.9767 51.5577 47.8643 51.5956 47.5707 51.7472C47.2708 51.8988 46.8585 52.202 46.5212 52.3915C46.1838 52.5431 45.959 52.581 45.7715 52.7326C45.5529 52.8842 45.328 53.1116 45.0656 53.3012C44.8407 53.4843 44.5784 53.5981 44.3535 53.7118C44.1286 53.7876 43.9037 53.8255 43.6476 53.9013C43.4227 53.9771 43.1228 54.0908 42.9354 54.0908C42.7855 54.0908 42.7105 54.0529 42.3357 53.9771C41.9609 53.9013 41.3299 53.8255 40.8052 53.7118C40.243 53.5602 39.7932 53.4149 39.4621 53.1874C39.1248 52.96 38.9374 52.6568 38.6375 52.5052C38.3751 52.3157 38.0753 52.2778 37.7379 52.202C37.4443 52.0883 37.0695 51.9746 36.8071 51.7472C36.5073 51.5577 36.2449 51.2987 35.9451 51.0712C35.6452 50.8438 35.3141 50.6543 35.0517 50.5027C34.8269 50.3511 34.7144 50.2374 34.6394 50.0858C34.527 49.9721 34.4895 49.8584 34.1522 49.631C33.8523 49.4415 33.2963 49.1824 32.884 48.8034C32.5092 48.4244 32.2469 47.9696 32.0594 47.6285C31.9095 47.2873 31.7971 47.0662 31.7221 46.9146C31.6471 46.763 31.6097 46.6872 31.5347 46.6493C30.6789 46.4219 30.7913 47.1041 30.454 47.0662V47.0662ZM28.0989 36.1062C28.1738 36.1062 28.3238 36.3336 28.5486 36.4852C28.7735 36.6368 29.0734 36.7126 29.1858 36.7505C29.3358 36.8263 29.2608 36.9022 29.2233 37.0474C29.1484 37.1991 29.0734 37.4265 29.0734 37.616C29.1109 37.6539 29.1484 37.6539 29.1858 37.6918C29.4482 37.9192 29.5544 38.1466 29.6669 38.3361C29.7793 38.5256 29.8543 38.6772 30.0417 38.7151C30.1166 38.7151 30.2291 38.6772 30.3415 38.6393C30.304 38.4498 30.2291 38.2603 30.1541 38.1087C30.0792 37.9192 30.0417 37.7297 30.1166 37.1991C30.1916 36.7126 30.4165 35.8409 30.5289 35.1587C30.454 35.3103 30.379 35.424 30.3415 35.424C30.2291 35.4998 30.304 35.1587 30.304 34.8239C30.304 34.5206 30.1916 34.2553 29.9667 34.0279C29.8917 33.9521 29.7793 33.9142 29.7043 33.8384C29.7043 33.8763 29.7043 33.8763 29.7043 33.9142C29.6294 34.1037 29.3732 34.369 29.3358 34.5206C29.2608 34.6722 29.3358 34.748 29.4482 34.8618C29.5544 34.9691 29.7043 35.1208 29.7418 35.3103C29.8168 35.4619 29.8168 35.6514 29.7793 35.8409C29.7043 35.9925 29.6294 36.182 29.4857 36.182C29.3732 36.2199 29.2233 36.1062 29.0734 35.9546C28.9235 35.803 28.7735 35.6135 28.6236 35.2345C28.5112 34.8618 28.4362 34.2932 28.3987 33.8384C28.3987 33.611 28.3987 33.4215 28.4362 33.2699C28.0989 33.1183 27.799 32.9666 27.5741 32.7455C27.243 32.4423 27.0556 32.1012 27.0181 32.1012C26.9807 32.1012 27.0556 32.4802 27.1681 32.8593C27.318 33.232 27.4992 33.6489 27.6866 34.0279C27.8365 34.4069 28.0239 34.748 28.0239 34.8618C27.9864 34.9376 27.799 34.7859 27.5741 34.5964C27.3555 34.4069 27.0556 34.2174 26.8307 33.8763C26.6433 33.5731 26.4934 33.1183 26.306 32.6318C26.1186 32.1012 25.8937 31.5327 25.7063 31.0021C25.5563 30.4777 25.4501 30.0229 25.4127 29.606C25.3377 29.1512 25.3377 28.7027 25.4127 28.2099C25.4814 27.7551 25.5938 27.3003 25.7438 27.1487C25.9312 26.9971 26.1186 27.1866 26.3435 27.4898C26.6058 27.8309 26.8682 28.2478 27.0181 28.551C27.1306 28.81 27.1681 28.9617 27.1306 28.7721C27.0931 28.6269 26.9807 28.1341 26.8682 27.7172C26.7558 27.2624 26.5684 26.8454 26.3809 26.5106C26.1935 26.2074 25.9686 25.9421 25.7812 25.6768C25.6313 25.4115 25.4814 25.1462 25.5189 24.843C25.5189 24.5461 25.7063 24.167 25.8187 23.9396C25.9312 23.6743 26.0436 23.5227 26.1186 23.2574C26.231 22.9921 26.306 22.613 26.5309 22.1645C26.6808 21.8234 26.8682 20.9896 27.4304 21.2928C27.5054 21.3307 27.4304 20.6484 27.4679 20.6105C28.6236 18.9871 29.4107 19.404 29.9292 20.5411C29.8917 20.2378 29.9292 20.0104 29.9292 19.8209C29.9292 19.5935 29.8917 19.4419 29.7418 19.2145C29.5607 18.9871 29.2983 18.6839 29.3358 18.4628C29.3358 18.1974 29.6669 17.97 29.7793 17.7426C29.9292 17.5152 29.8168 17.2878 29.9292 16.9846C30.0417 16.6435 30.379 16.2707 30.7538 16.0054C31.0912 15.7401 31.466 15.6643 31.6471 15.5885C31.872 15.5127 31.947 15.4748 31.9845 15.7401C31.9845 16.0433 31.947 16.6435 32.0594 16.5676C32.1719 16.4539 32.4343 15.6643 32.6592 15.2474C32.8466 14.8305 32.959 14.7547 33.2214 14.641C33.5212 14.5272 33.9273 14.382 34.2646 14.2682C34.602 14.1545 34.7894 14.1166 35.0143 14.1924C35.2392 14.3062 35.464 14.5652 35.539 14.8684C35.5765 14.6789 35.6827 14.4514 35.7951 14.3062C35.9451 14.1166 36.1325 14.0029 36.2824 13.8892C36.4698 13.8134 36.6197 13.7755 36.8071 13.7755C36.9946 13.7755 37.2194 13.8134 37.4443 13.8134C37.6317 13.7755 37.7754 13.7376 37.9628 13.6618C38.1502 13.586 38.3751 13.5102 38.6 13.5102C38.8249 13.4723 39.0873 13.5102 39.3497 13.5481C39.612 13.586 39.8307 13.6618 40.1305 13.6618C40.4304 13.6618 40.7677 13.6239 40.9926 13.6239C41.2175 13.6618 41.3299 13.7755 41.5548 14.0408C41.5923 14.0787 41.6673 14.1545 41.7048 14.1924C41.6673 14.1545 41.6673 14.0787 41.6673 14.0029C41.6298 13.8892 41.7422 13.6997 41.811 13.6239C41.9234 13.5102 42.0359 13.5102 42.2607 13.5102C42.4856 13.5481 42.7855 13.6239 43.1603 13.6239C43.5351 13.6618 43.9412 13.6239 44.316 13.6618C44.6908 13.6997 45.0656 13.8134 45.4779 13.9271C45.884 14.0408 46.3338 14.1166 46.6336 14.1924C46.9335 14.2303 47.0834 14.2303 47.3833 14.4199C47.5332 14.4893 47.7206 14.641 47.9018 14.8305C47.9392 14.7547 47.9767 14.6789 48.0142 14.641C48.1641 14.4893 48.464 14.4893 48.9513 14.6031C49.476 14.7168 50.1819 14.9063 50.6692 15.2474C51.1939 15.5506 51.4563 16.0054 51.6062 16.4982C51.7561 16.9846 51.7561 17.5531 51.9436 18.0458C52.1247 18.5765 52.4995 18.9871 52.7994 19.404C53.0618 19.8209 53.2867 20.2378 53.3616 20.2757C53.4366 20.3515 53.4366 20.0483 53.3241 19.7451C53.2492 19.4419 53.0243 19.1387 52.7994 18.8355C52.612 18.5386 52.3871 18.2732 52.2746 18.0079C52.1997 17.7805 52.2372 17.5531 52.1622 17.2878C52.1247 17.0604 51.9748 16.7572 52.0498 16.7572C52.1247 16.7193 52.3871 16.9467 52.612 17.2878C52.8744 17.591 53.0618 18.0079 53.4741 18.349C53.9238 18.6839 54.5173 19.025 54.9671 19.4798C55.4169 19.9725 55.6792 20.6169 55.7542 21.1791C55.8292 21.7097 55.7167 22.1266 55.7167 22.5436C55.7167 22.9542 55.8292 23.3332 55.8667 23.2953C55.9041 23.2574 55.7917 22.8026 55.8667 22.6573C55.9416 22.5436 56.1977 22.7267 56.3852 23.2574C56.5351 23.7501 56.685 24.6219 56.7975 25.3736C56.8724 26.1316 56.9474 26.776 56.9474 27.2245C56.9474 27.6793 56.8724 27.9067 56.76 28.1341C56.685 28.3236 56.5726 28.5131 56.4976 28.7785C56.4226 29.0375 56.3477 29.3407 56.0853 29.7576C55.8667 30.1366 55.4544 30.6293 55.0421 31.0021C54.7047 31.3053 54.3299 31.5327 54.0675 31.7601C54.18 32.3286 54.4049 33.1941 54.4423 33.3457C54.4798 33.4973 54.5173 34.4069 54.4798 34.5585C54.4423 34.748 54.2924 34.9755 53.9926 35.1208C53.7364 35.2724 53.3241 35.3861 53.0992 35.3861C53.0618 35.4619 53.0618 35.5377 53.0243 35.6135C52.9493 35.9167 52.7994 36.1441 52.7244 36.4094C52.6495 36.7126 52.6495 37.0538 52.7244 37.2749C52.7619 37.5023 52.8369 37.5402 52.8369 37.5402C52.8744 37.5402 52.7994 37.4265 52.8369 37.2749C52.9118 37.0853 53.0243 36.9022 53.1367 36.7126C53.2867 36.561 53.4366 36.4094 53.5115 36.2578C53.549 36.1062 53.549 35.9546 53.6615 36.0304C53.699 36.0683 53.699 36.0683 53.7364 36.1062C53.8114 35.9925 53.8864 35.9167 53.9551 35.8409C54.1425 35.6514 54.2175 35.5377 54.4049 35.3861C54.5548 35.1966 54.7797 34.9755 54.9296 34.5964C55.0795 34.2174 55.1545 33.6868 55.2669 33.2699C55.3419 32.8593 55.4544 32.556 55.4918 32.4802C55.5293 32.4044 55.4918 32.5939 55.5293 32.9666C55.5293 33.3836 55.6043 33.99 55.5668 34.4448C55.5293 34.9376 55.4169 35.2724 55.2295 35.5377C55.0795 35.803 54.8546 35.9925 54.6672 36.182C54.4798 36.4094 54.2924 36.6368 54.1425 36.9022C54.2175 37.237 54.2549 37.5402 54.18 37.8434C54.1425 38.1845 53.9926 38.5256 53.9613 38.9046C53.9613 39.2774 54.105 39.6943 54.1425 40.0354C54.18 40.3765 54.1425 40.6418 54.105 40.8313C54.03 41.0588 53.9551 41.204 53.9238 41.3557C53.8864 41.5073 53.9238 41.621 53.9238 41.8105C53.8864 42.0379 53.8489 42.2653 53.7739 42.5685C53.7364 42.8338 53.6615 43.0992 53.4741 43.3203C53.2867 43.5477 53.0243 43.7372 52.8369 43.9646C52.6869 44.1541 52.5745 44.3815 52.537 44.571C52.4995 44.7226 52.4995 44.8363 52.4246 44.7984C52.3871 44.7226 52.2746 44.5331 52.1622 44.3057C52.0498 44.0783 51.9061 43.8509 51.8686 43.5856C51.7936 43.2824 51.7561 42.9096 51.8311 42.6064C51.8686 42.3032 52.0123 42.0379 52.0123 41.9242C52.0498 41.8484 51.9748 41.9242 51.8686 42.0758C51.7561 42.2653 51.6062 42.5685 51.5313 42.9096C51.4563 43.2444 51.4188 43.6235 51.5313 44.0783C51.6437 44.4952 51.8686 45.0258 51.9373 45.5123C51.9748 46.005 51.8311 46.4977 51.6062 46.8767C51.4188 47.2179 51.119 47.4769 50.8941 47.7422C50.7067 48.0075 50.5942 48.2728 50.5192 48.4623C50.4443 48.6518 50.4068 48.8034 50.2944 48.9171C50.1444 49.0687 49.9195 49.1825 49.7384 49.2962C49.551 49.372 49.401 49.4415 49.2886 49.5173C49.2136 49.5931 49.1761 49.7068 49.1761 49.631C49.2136 49.5931 49.2511 49.4035 49.3636 49.1825C49.476 48.955 49.6259 48.6897 49.6634 48.4244C49.7384 48.1591 49.7384 47.8938 49.7009 47.5906C49.7009 47.3316 49.6634 47.0662 49.6259 47.1042C49.5884 47.18 49.551 47.5527 49.476 47.8559C49.401 48.1212 49.2886 48.2728 49.2136 48.5002C49.1012 48.7276 49.0262 48.9929 48.9513 49.2204C48.9138 49.4414 48.8763 49.631 48.7638 49.7826C48.6889 49.9342 48.539 50.0858 48.3515 50.2374C48.2016 50.3511 48.0142 50.4648 47.7956 50.6164C47.5332 50.768 47.2333 50.9575 46.7836 51.2987C46.2963 51.5956 45.7403 52.0883 45.328 52.3536C44.8782 52.581 44.6159 52.6189 44.5034 52.581C44.4284 52.5431 44.5409 52.4294 44.6533 52.2778C44.7658 52.0883 44.8782 51.823 44.9532 51.5577C44.9907 51.2987 44.9907 50.9954 44.9532 50.6922C44.9532 50.4269 44.8782 50.1616 44.9532 49.9721C45.0282 49.7447 45.2156 49.5552 45.3655 49.372C45.5154 49.2204 45.6279 49.0687 45.5529 49.0687C45.4779 49.1066 45.2156 49.2962 44.9532 49.4794C44.6908 49.6689 44.4659 49.8963 44.3535 50.1995C44.2785 50.5027 44.316 50.8817 44.2785 51.2228C44.241 51.5577 44.1286 51.823 43.9787 52.0504C43.835 52.2399 43.6851 52.3536 43.4602 52.4673C43.2353 52.581 42.9354 52.6568 42.673 52.7326C42.5231 52.7705 42.4107 52.8084 42.3357 52.8084C42.2233 52.8463 42.1108 52.8463 41.9984 52.8463C41.9234 52.8463 41.8484 52.8463 41.7422 52.8463C41.6298 52.8084 41.5174 52.7705 41.4049 52.7326C41.255 52.6947 41.0676 52.6568 40.9926 52.6568C40.9177 52.6947 40.9176 52.7705 40.8052 52.7326C40.6553 52.6947 40.3929 52.5431 40.093 52.3915C39.7932 52.2399 39.4621 52.0504 39.2372 51.823C39.0123 51.5956 38.8999 51.3366 38.7874 51.0333C38.675 50.768 38.5625 50.4648 38.4126 50.2374C38.3002 50.01 38.1502 49.8205 37.9253 49.631C37.7067 49.4415 37.4069 49.2583 37.4069 49.372C37.4443 49.4414 37.7442 49.8205 37.9253 50.1616C38.1502 50.5027 38.1877 50.768 38.2627 50.9954C38.3002 51.2608 38.3002 51.4503 38.4126 51.6335C38.4876 51.823 38.675 51.9746 38.5625 51.9367C38.4501 51.8988 38.1128 51.6714 37.8504 51.4819C37.5943 51.2987 37.4069 51.1091 37.2194 50.9575C37.032 50.8059 36.8446 50.6922 36.6572 50.5785C36.4698 50.5027 36.3199 50.389 36.2074 50.2753C36.1325 50.1995 36.0575 50.0858 36.02 50.0479C35.9825 50.01 35.9451 50.01 35.8326 50.01C35.7264 50.01 35.5015 49.9721 35.2392 49.8205C34.9768 49.6689 34.7144 49.372 34.5645 49.0687C34.4146 48.7655 34.452 48.4244 34.6394 48.3107C34.7894 48.197 35.0892 48.3107 35.2766 48.3486C35.464 48.4244 35.5015 48.4623 35.4266 48.3486C35.3516 48.2349 35.1267 47.9317 34.9393 47.7801C34.7144 47.5906 34.4895 47.5527 34.3396 47.5527C34.1522 47.5527 34.0023 47.5906 33.7774 47.5527C33.5212 47.5527 33.1464 47.4769 32.9215 47.3316C32.6592 47.18 32.5467 46.9904 32.3968 46.763C32.2469 46.5356 32.0594 46.3082 32.022 46.1566C31.9845 46.005 32.0594 45.9292 32.2094 45.8155C32.3218 45.7018 32.4717 45.5502 32.5467 45.3291C32.6592 45.1017 32.6592 44.8363 32.6592 44.571C32.6217 44.3436 32.5842 44.1162 32.5467 44.1541C32.4717 44.192 32.3968 44.4573 32.2843 44.6468C32.1719 44.8363 32.0594 44.9121 31.947 45.0258C31.8346 45.1396 31.7596 45.2912 31.6909 45.3291C31.6159 45.3606 31.5409 45.2912 31.4285 45.1775C31.3535 45.0258 31.2036 44.8363 31.0912 44.6089C30.9412 44.3436 30.7538 44.0404 30.4915 43.5856C30.2291 43.0992 29.8543 42.4927 29.7793 41.8484C29.6731 41.2104 29.8543 40.566 30.0042 40.0733C30.0417 39.9596 30.0792 39.8459 30.1166 39.7701C29.9292 39.6564 29.7043 39.4669 29.5607 39.2395C29.4107 38.9805 29.3732 38.6772 29.1484 38.374C28.886 38.0329 28.5112 37.6918 28.2863 37.3507C28.0614 37.0538 27.9864 36.7505 27.9115 36.3715C27.874 36.0304 27.8365 35.5756 27.874 35.5377C27.9115 35.4998 27.9864 35.803 28.0614 36.1062H28.0989V36.1062ZM43.4976 36.8263C43.4976 36.6747 43.4227 36.5231 43.3477 36.2957C43.2728 36.1062 43.1978 35.9167 43.1603 35.7651C43.1228 35.5756 43.1228 35.4619 43.1603 35.4619C43.1603 35.4619 43.2353 35.6135 43.3477 35.803C43.4602 35.9546 43.6851 36.1441 43.9037 36.3715C44.1286 36.5989 44.391 36.8263 44.6159 37.0474C44.8033 37.237 44.9532 37.4265 45.0656 37.616C45.2156 37.8055 45.328 38.0329 45.3655 38.1466C45.403 38.2982 45.3655 38.3361 45.328 38.3361C45.253 38.2982 45.1781 38.1845 45.1031 38.0708C45.0282 37.9571 44.9532 37.8813 44.8782 37.8055C44.8782 38.0329 44.8782 38.2603 44.8782 38.5256C44.8407 38.7909 44.8033 39.2016 44.6159 39.429C44.4284 39.6185 44.1286 39.6185 43.9037 39.5806C43.6851 39.5427 43.5726 39.4669 43.4602 39.429C43.3477 39.3911 43.2728 39.429 43.0853 39.5427C42.8979 39.6943 42.5981 39.9217 42.3732 39.9975C42.1858 40.0733 42.0733 39.9975 41.8859 39.8838C41.6985 39.808 41.4799 39.6943 41.2925 39.6564C41.1051 39.6185 40.9551 39.6564 40.8427 39.6943C40.6928 39.7322 40.5428 39.7701 40.3179 39.7701C40.093 39.7701 39.7932 39.7322 39.5745 39.6943C39.3871 39.6185 39.2747 39.5427 39.1622 39.4669C39.0123 39.429 38.8624 39.3532 38.7874 39.2016C38.5251 38.8288 38.3751 38.5635 38.4126 38.2982C38.3751 38.3361 38.3751 38.3361 38.3376 38.4119C38.2627 38.4877 38.1128 38.6393 38.0003 38.753C37.8879 38.8667 37.8129 38.9426 37.8129 38.8667C37.8504 38.7909 37.9254 38.5635 38.0753 38.2603C38.2627 37.9571 38.4501 37.5402 38.7499 37.1991C39.0873 36.9022 39.4621 36.6747 39.7182 36.3715C39.9806 36.0683 40.1305 35.6893 40.2055 35.5377C40.2805 35.3861 40.3554 35.4619 40.3179 35.7272C40.243 35.9925 40.093 36.4473 40.1305 36.8642C40.1305 37.2749 40.2805 37.5023 39.7182 37.616C39.5746 37.6539 39.4246 37.7297 39.2747 37.8813C39.1622 38.0329 39.0873 38.2603 39.0498 38.4877C39.0123 38.753 39.0498 39.0184 39.1622 39.1257C39.2747 39.2016 39.4621 39.1636 39.687 39.0878C39.9056 38.9805 40.1305 38.9046 40.3929 38.9046C40.6553 38.8667 40.9176 38.9426 41.18 39.0563C41.4799 39.1636 41.7735 39.3153 41.9984 39.3911C42.2233 39.429 42.3357 39.3911 42.5231 39.2774C42.7105 39.2015 42.8979 39.0563 43.0853 38.9426C43.2728 38.8288 43.4602 38.7909 43.6476 38.753C43.7913 38.7151 43.9037 38.753 44.0536 38.753C44.1661 38.7909 44.316 38.7909 44.391 38.6393C44.4659 38.4877 44.4659 38.1466 44.4659 37.9571C44.3535 37.0853 43.4602 37.8813 43.4976 36.8263V36.8263ZM47.8268 43.813C47.8643 43.7751 47.9767 43.5856 48.0517 43.3582C48.1641 43.175 48.2391 42.9855 48.3515 42.7959C48.464 42.6064 48.5764 42.3411 48.6514 42.0758C48.7264 41.8105 48.7638 41.5073 48.6514 41.204C48.539 40.9071 48.3141 40.6039 48.1641 40.3765C48.0142 40.1491 47.9018 39.9975 47.8643 39.808C47.8268 39.6564 47.8643 39.4669 47.5707 39.2016C47.3083 38.9426 46.7461 38.6014 46.821 38.5635C46.9335 38.5256 47.6831 38.7909 48.0142 38.8667C48.3515 38.9805 48.2391 38.8667 48.0517 38.6014C47.9018 38.3361 47.6831 37.9192 47.8268 37.616C48.0142 37.2749 48.6139 37.0853 49.1012 36.7884C49.5884 36.4852 49.957 36.0304 50.2194 35.6135C50.4443 35.1966 50.5567 34.8239 50.5567 34.4448C50.5567 34.1037 50.4443 33.7626 50.4818 33.4215C50.5192 33.0804 50.7067 32.7076 50.8191 32.3665C50.969 32.0633 51.044 31.798 51.044 31.4569C50.9315 31.2295 50.8566 31.0021 50.7816 30.7431C50.6317 30.1745 50.5942 29.4544 50.7067 28.8479C50.8191 28.2099 51.044 27.7172 51.1939 27.3761C51.2689 26.9971 51.2689 26.776 51.119 26.359C51.0065 25.98 50.7441 25.4115 50.7067 24.843C50.7067 24.805 50.7067 24.7671 50.6692 24.7292C50.6317 24.8809 50.5567 25.0325 50.4818 25.222C50.3318 25.601 50.1819 25.98 50.1819 26.2832C50.1444 26.5864 50.2194 26.8075 50.3693 27.035C50.4818 27.2245 50.6317 27.4519 50.7067 27.5656C50.7441 27.6793 50.6692 27.6414 50.4068 27.4898C50.1819 27.3003 49.8071 26.9971 49.551 26.6244C49.3261 26.2453 49.2136 25.7905 49.2511 25.2978C49.2886 24.843 49.4385 24.3565 49.476 23.9396C49.5135 23.5227 49.4385 23.2195 49.3636 22.9542C49.2886 22.7267 49.2136 22.5815 49.1012 22.4298C49.0262 22.2782 48.9138 22.1266 48.8763 22.1266C48.8763 22.1645 48.9513 22.354 49.0262 22.5436C49.1012 22.7647 49.1387 23.03 49.1387 23.2953C49.1012 23.5606 49.0637 23.8638 48.9513 24.2428C48.8388 24.584 48.6514 24.9946 48.5764 25.3357C48.5015 25.7147 48.539 26.0179 48.5764 26.2074C48.6514 26.359 48.7264 26.3969 48.6139 26.2074C48.5015 25.98 48.2016 25.5631 48.0142 25.2978C47.8268 24.9946 47.7581 24.9188 47.6831 24.7356C47.6082 24.584 47.5332 24.3565 47.5707 23.9775C47.5707 23.5985 47.6456 23.1058 47.6831 22.6888C47.7206 22.2782 47.6831 21.975 47.5332 21.6718C47.3458 21.3686 47.0459 21.1033 46.7461 20.9138C46.4087 20.7622 46.1089 20.6863 45.7715 20.579C45.4405 20.4653 45.1406 20.2757 44.9157 20.162C44.7283 20.0483 44.6533 19.9725 44.7283 20.0104C44.8033 20.0862 44.9907 20.2378 45.1781 20.4273C45.3655 20.6105 45.4779 20.8001 45.5529 20.8759C45.6653 20.9896 45.6653 21.0275 45.6279 20.9896C45.5529 20.9896 45.403 20.8759 45.1781 20.7622C44.9907 20.6863 44.7283 20.579 44.2785 20.4653C43.8662 20.3515 43.3102 20.1999 42.7855 19.8967C42.2607 19.5935 41.811 19.1387 41.6298 18.5701C41.4424 18.0458 41.4424 17.4015 41.5174 16.833C41.4799 16.9467 41.4424 17.0604 41.4049 17.1362C41.2175 17.7426 41.255 18.2353 41.4049 18.6839C41.5548 19.1766 41.8485 19.6314 42.1108 20.0483C42.3732 20.4653 42.5981 20.838 42.6356 21.3307C42.673 21.8234 42.5231 22.4298 42.1108 22.9921C41.661 23.5985 40.9177 24.167 40.2805 24.5461C39.6808 24.9188 39.1997 25.1462 39.0873 25.1462C38.9748 25.1462 39.2372 24.9567 39.4246 24.7356C39.6433 24.5461 39.7557 24.3186 39.7557 24.2807C39.7557 24.2049 39.6433 24.3186 39.4621 24.5461C39.2372 24.7356 38.9748 25.0325 38.675 25.222C38.3751 25.4494 38.0378 25.5631 37.7379 25.6768C37.4818 25.7526 37.2194 25.8663 37.107 25.8663C37.032 25.8284 37.107 25.7147 37.2569 25.5631C37.3694 25.3736 37.5193 25.1083 37.6255 24.843C37.7005 24.584 37.7005 24.3186 37.588 24.0533C37.4818 23.7501 37.2944 23.409 37.2569 23.3711C37.182 23.3332 37.2944 23.5985 37.3319 23.8259C37.4069 24.0533 37.4069 24.2428 37.4069 24.2807C37.4069 24.3186 37.4069 24.2428 37.2194 24.0154C37.032 23.788 36.6947 23.409 36.3574 23.03C36.02 22.6888 35.7202 22.3161 35.5015 21.8613C35.2766 21.4444 35.1267 20.9138 35.1267 20.3515C35.1267 19.783 35.2017 19.1387 35.2017 18.7597C35.1642 18.6459 35.1642 18.5386 35.1267 18.4628C35.1267 18.7218 35.1267 19.025 35.0517 19.2903C34.9393 19.9725 34.527 20.6863 34.3396 21.2549C34.1147 21.7855 34.0397 22.1266 34.0023 22.4298C33.9273 22.7267 33.8898 23.03 33.7774 23.2953C33.6649 23.5606 33.4838 23.8259 33.3713 23.9775C33.2589 24.167 33.1839 24.2807 33.1464 24.1291C33.1464 23.9775 33.1464 23.5985 33.1464 23.5606C33.1464 23.5227 33.1089 23.8638 32.959 24.167C32.8091 24.4702 32.5842 24.7671 32.4343 25.1083C32.3218 25.4115 32.2843 25.7147 32.3218 26.0937C32.3593 26.4348 32.4343 26.8075 32.3968 26.9213C32.3968 26.9971 32.2469 26.8075 32.0969 26.5485C31.9845 26.3211 31.872 26.0179 31.7596 25.7147C31.6471 25.4115 31.5722 25.1083 31.4972 24.7292C31.466 24.3565 31.466 23.9017 31.2786 23.4469C31.0912 22.9921 30.7538 22.5815 30.4915 22.0887C30.4915 22.0508 30.454 22.0129 30.4165 21.975C30.8663 23.7122 31.0162 25.7147 31.0162 25.7147C30.6414 24.9188 30.9412 26.2074 30.9787 26.3969C31.0537 26.8454 31.2411 27.3003 31.4285 27.7551C31.5722 28.2099 31.7596 28.6268 31.8346 29.1133C31.9095 29.5681 31.872 30.0987 31.8346 30.4777C31.7596 30.8568 31.6846 31.04 31.6471 31.2295C31.6097 31.419 31.6097 31.5706 31.5722 31.8359C31.5722 32.0254 31.5347 32.2149 31.5347 32.4044C31.5347 32.556 31.5722 32.6697 31.6097 32.8214C31.7971 33.4973 32.1719 33.99 32.3968 34.369C32.5842 34.748 32.5467 35.007 32.5842 35.3103C32.6217 35.6135 32.6966 35.9925 33.2214 36.3336C33.7774 36.7126 34.8269 37.0474 35.2766 37.616C35.7202 38.1845 35.5702 38.9426 35.6827 39.1636C35.7951 39.429 36.17 39.1257 36.3948 38.9805C36.6197 38.7909 36.6947 38.753 36.5823 38.9426C36.4323 39.1636 36.1325 39.6564 35.8701 39.9596C35.6452 40.3007 35.5015 40.4523 35.464 40.6418C35.3891 40.7934 35.464 41.0209 35.5015 41.204C35.539 41.4315 35.5702 41.621 35.5015 41.8105C35.464 42 35.3516 42.1895 35.3516 42.379C35.3516 42.5685 35.464 42.758 35.5702 42.9475C35.7202 43.175 35.9076 43.3582 36.02 43.4719C36.0575 43.5098 36.095 43.5477 36.095 43.5477C36.1325 43.5098 36.1325 43.434 36.17 43.3582C36.2074 43.2129 36.2824 43.0992 36.3948 42.9475C36.5073 42.8338 36.6572 42.7201 36.7322 42.5306C36.8446 42.379 36.8821 42.1895 36.9196 42.0379C36.9571 41.8863 36.9196 41.8105 36.8821 41.6968C36.8821 41.5831 36.8446 41.4315 36.8071 41.3178C36.8071 41.1661 36.8071 41.0588 36.8071 40.9451C36.8446 40.8313 36.9196 40.7555 36.9196 40.7555C36.9571 40.7555 36.9571 40.8692 36.9571 40.9451C36.9946 41.0209 37.032 41.0967 37.0695 41.204C37.182 41.3178 37.3319 41.4694 37.4069 41.5831C37.4818 41.6968 37.4069 41.8484 37.4443 41.8105C37.513 41.7726 37.6255 41.621 37.8129 41.4315C38.0003 41.2799 38.2252 41.1346 38.3751 41.0967C38.5625 41.0209 38.675 41.0209 38.7499 41.0209C38.8624 40.9829 38.8999 40.983 38.8999 41.0588C38.8999 41.0967 38.8249 41.204 38.7499 41.2799C38.7125 41.3557 38.7125 41.3936 38.7125 41.3936C38.7125 41.3936 38.7125 41.3936 38.8249 41.3178C38.9374 41.2799 39.0873 41.1346 39.1997 41.0967C39.3122 41.0209 39.3871 41.0588 39.5308 40.983C39.7182 40.945 40.0181 40.8692 40.2055 40.7176C40.3929 40.5281 40.5428 40.2628 40.5803 40.2249C40.6553 40.2249 40.6928 40.4144 40.8052 40.6039C40.9176 40.7934 41.1051 40.9829 41.33 41.0209C41.5174 41.0588 41.7735 40.9071 41.9234 40.9071C42.0733 40.8692 42.1483 40.9829 42.2607 40.9071C42.3732 40.8692 42.5231 40.6418 42.5981 40.566C42.6731 40.4902 42.673 40.4902 42.7855 40.566C42.8605 40.6039 43.0104 40.6797 43.1228 40.7176C43.2353 40.7555 43.2728 40.7934 43.2728 40.7934C43.2728 40.7934 43.2353 40.7555 43.2353 40.6797C43.2353 40.6418 43.2353 40.5281 43.2728 40.4902C43.2728 40.4523 43.2728 40.4144 43.4976 40.4902C43.6788 40.566 44.0536 40.7555 44.241 40.6797C44.4284 40.6039 44.4284 40.2628 44.4284 40.1491C44.4284 40.0354 44.5034 40.1112 44.5784 40.3007C44.6533 40.5281 44.7658 40.8313 44.9157 40.983C45.0282 41.1346 45.1406 41.1725 45.2156 41.2104C45.2905 41.2419 45.328 41.2799 45.3655 41.2799C45.403 41.2799 45.403 41.2419 45.4405 41.0209C45.4779 40.7934 45.5154 40.3765 45.5529 40.4144C45.5904 40.4902 45.6216 40.983 45.6216 41.2799C45.6591 41.5831 45.6591 41.6968 45.7341 41.8105C45.8465 41.8863 45.959 42.0379 46.1464 42.1137C46.2963 42.1895 46.4462 42.2653 46.4462 42.1895C46.4462 42.1516 46.2963 41.9621 46.2588 41.7726C46.2213 41.621 46.2963 41.3936 46.3338 41.3557C46.3713 41.3557 46.3713 41.5073 46.4462 41.621C46.5212 41.7726 46.6711 41.8863 46.821 42C47.0084 42.0758 47.1959 42.1895 47.3833 42.379C47.5332 42.5306 47.6394 42.758 47.7144 42.9854C47.7518 43.2129 47.7893 43.3961 47.7893 43.6235C47.7893 43.6993 47.8268 43.7751 47.8268 43.8509C47.8268 43.8509 47.8268 43.8509 47.8268 43.813V43.813ZM52.6869 32.8593C52.7619 33.0804 52.8369 33.2699 52.8744 33.4215C52.9868 33.8384 53.0992 34.1795 53.0992 34.5585C53.1367 34.6343 53.1367 34.7101 53.1367 34.8239C53.2117 34.748 53.2867 34.6722 53.3991 34.6343C53.5865 34.4827 53.7739 34.369 53.8114 34.2553C53.8114 34.1416 53.7739 33.99 53.7739 33.8384H53.7364C53.699 33.7626 53.624 33.6489 53.549 33.5352C53.5115 33.4215 53.5115 33.2699 53.5115 33.1183C53.549 32.9666 53.5865 32.8214 53.624 32.6697C53.6615 32.5181 53.6615 32.3665 53.6615 32.2528C53.6615 32.2149 53.624 32.177 53.549 32.1012C53.3991 32.2528 53.2492 32.3665 53.1367 32.5181C52.9493 32.7456 52.8369 32.9666 52.7994 33.0046C52.7244 33.0046 52.7619 32.8214 52.7244 32.7835C52.7244 32.7456 52.7244 32.7835 52.6869 32.8593V32.8593ZM38.1502 42C38.0378 42.0758 37.8504 42.1895 37.7379 42.3411C37.5193 42.5685 37.4443 42.9475 37.4443 43.175C37.4443 43.3961 37.588 43.434 37.663 43.5477C37.7379 43.6235 37.7754 43.7372 37.7379 43.8888C37.7379 44.0783 37.7005 44.2678 37.7754 44.4573C37.8129 44.6468 38.0003 44.8363 38.2627 44.95C38.4876 45.1017 38.75 45.2154 38.8999 45.3607C39.0873 45.4744 39.1997 45.6639 39.3497 45.7397C39.5371 45.8155 39.7557 45.8155 39.9806 45.7018C40.2055 45.5502 40.4304 45.2848 40.5053 45.0637C40.5803 44.7984 40.5428 44.571 40.4304 44.3815C40.3179 44.1541 40.168 43.9646 40.093 43.7751C39.9806 43.6235 39.9806 43.434 39.9431 43.2823C39.9056 43.1371 39.8682 43.0613 39.7182 42.9854C39.5371 42.8717 39.2747 42.7959 39.3497 42.7959C39.4621 42.7959 39.9056 42.8717 40.3554 42.9096C40.7677 42.9855 41.2175 43.0234 41.5548 43.0234C41.8859 43.0613 42.1483 43.0613 42.5231 43.0613C42.8979 43.0613 43.3477 43.0233 43.7163 42.9854C44.1286 42.9096 44.4284 42.7959 44.4659 42.8338C44.5034 42.8717 44.316 43.0234 44.1286 43.1371C43.9412 43.2824 43.7913 43.3961 43.7538 43.5477C43.7163 43.6993 43.7913 43.8509 43.9037 43.9267C44.0536 44.0404 44.2036 44.0404 44.3535 44.0404C44.5034 44.0025 44.6533 43.9646 44.6908 44.0025C44.6908 44.0404 44.5409 44.1541 44.3535 44.3057C44.2036 44.4573 44.0161 44.6468 43.9037 44.6847C43.7538 44.7226 43.6101 44.6468 43.6101 44.7226C43.6101 44.7984 43.7163 45.0259 43.7913 45.2154C43.9037 45.4365 43.9787 45.5881 44.1661 45.6639C44.316 45.7018 44.5784 45.6639 44.7658 45.5881C44.9907 45.4744 45.1781 45.3227 45.4405 45.2533C45.7028 45.1775 46.0339 45.1396 46.3338 45.0637C46.5961 44.9879 46.7836 44.8363 46.896 44.4194C46.9335 44.0404 46.9335 43.5098 47.0084 43.2129C46.971 43.2129 46.971 43.2129 46.9335 43.175C46.6711 43.0613 46.3338 42.9854 46.0714 42.8717C45.809 42.758 45.6653 42.6443 45.5529 42.4927C45.403 42.3411 45.328 42.1895 45.1781 42.0758C45.0282 42 44.8033 42 44.5409 41.9242C44.241 41.8484 43.8662 41.6968 43.5351 41.621C43.1978 41.5452 42.8979 41.5452 42.5981 41.5452C42.2982 41.5831 42.0359 41.6589 41.8484 41.6589C41.6298 41.6968 41.5174 41.6968 41.3674 41.621C41.2175 41.5831 41.0301 41.5073 40.7302 41.4694C40.4679 41.4694 40.1305 41.5452 39.8307 41.621C39.5371 41.6968 39.2372 41.8105 39.0123 41.8484C38.8249 41.9242 38.6375 41.9242 38.4876 41.9621C38.3751 41.9621 38.2627 41.9621 38.1502 42V42ZM35.0143 18.2353C35.0143 18.2732 35.0143 18.2732 35.0143 18.3111C35.0143 18.2732 35.0143 18.2732 35.0143 18.2353ZM53.0618 30.6293C53.1367 30.4398 53.3991 29.7955 53.7364 29.2649C54.0675 28.7785 54.5173 28.3994 54.7047 27.793C54.8921 27.1487 54.8546 26.3211 54.7047 25.5631C54.5923 24.805 54.3674 24.167 54.18 23.6743C53.9551 23.2195 53.7364 22.9542 53.624 22.6194C53.5115 22.3161 53.5115 21.9371 53.5865 21.8992C53.6615 21.8992 53.8489 22.2403 54.1425 22.7267C54.4798 23.2574 54.9671 23.9396 55.2295 24.584C55.4918 25.1841 55.5293 25.7526 55.4918 26.359C55.4169 26.9592 55.2295 27.5656 54.9671 28.0204C54.7047 28.4752 54.4049 28.7785 54.105 29.1512C53.8114 29.4923 53.549 29.9092 53.3616 30.2503C53.1742 30.5535 53.0243 30.8189 53.0618 30.6293V30.6293ZM35.0517 18.3111V18.349V18.3111ZM35.0517 18.349H35.0892C35.0892 18.387 35.1267 18.4249 35.1267 18.4628C35.1267 18.4249 35.0892 18.387 35.0892 18.349H35.0517ZM28.3238 21.6339C27.9864 21.4065 27.6866 21.3307 27.6116 21.4823C27.4992 21.6339 27.6116 21.975 27.799 22.2782C27.9864 22.5815 28.2863 22.8405 28.5112 23.1816C28.6986 23.5227 28.8485 23.9396 29.0359 24.2807C29.1858 24.6598 29.3732 24.9188 29.6669 25.1083C30.0042 25.2978 30.454 25.3736 30.4165 25.2599C30.379 25.1083 29.8917 24.8051 29.6294 24.3186C29.3358 23.8638 29.2608 23.2953 29.1109 22.8026C28.9235 22.2782 28.6236 21.8613 28.3238 21.6339V21.6339ZM32.022 17.7805C32.022 17.97 31.947 18.2353 32.022 18.5007C32.0594 18.7218 32.2094 18.9492 32.3968 19.1387C32.5842 19.3661 32.7716 19.5556 32.8466 19.783C32.9215 20.0104 32.8466 20.2757 32.7341 20.5411C32.6592 20.8001 32.5092 21.0654 32.4343 21.3686C32.3968 21.7097 32.3593 22.0887 32.3968 22.354C32.4343 22.6194 32.4717 22.8026 32.3968 22.6194C32.3593 22.4677 32.2094 21.9371 32.1719 21.4444C32.1719 20.9517 32.3218 20.5032 32.2843 20.1241C32.2469 19.7451 32.0594 19.5177 31.9095 19.2903C31.7596 19.1008 31.6471 18.9492 31.6471 18.6459C31.6097 18.387 31.7596 17.97 31.8346 17.7426C31.9095 17.5152 31.947 17.4773 31.9845 17.4773C32.022 17.5152 32.0594 17.591 32.022 17.7805V17.7805ZM44.316 15.4369C44.316 15.5127 44.4284 15.8159 44.4284 16.0054C44.4284 16.2328 44.316 16.3845 44.241 16.6056C44.1286 16.833 44.0536 17.1741 44.0911 17.4773C44.0911 17.7426 44.241 18.0079 44.4284 18.2353C44.5784 18.4628 44.8033 18.6459 45.0282 18.8355C45.2905 19.025 45.5904 19.2145 45.8465 19.3661C46.1089 19.4798 46.2963 19.5556 46.2963 19.5177C46.2588 19.4798 46.0339 19.3282 45.7028 19.0629C45.403 18.8355 44.9907 18.5322 44.7658 18.2353C44.5409 17.8942 44.4659 17.6289 44.5034 17.3636C44.5409 17.0983 44.6908 16.8709 44.7658 16.6814C44.8407 16.4918 44.9157 16.3086 44.8782 16.157C44.8407 15.9675 44.7658 15.778 44.6159 15.6264C44.5034 15.4748 44.3535 15.3611 44.316 15.4369V15.4369ZM39.3122 28.172C39.7182 28.2099 40.4304 28.2857 41.1425 28.2857C41.8484 28.2857 42.5606 28.2099 43.1228 28.1341C43.6851 28.0204 44.1286 27.9067 44.316 27.8688C44.5409 27.8309 44.5409 27.8688 44.241 28.0204C43.9412 28.172 43.3477 28.4373 42.6356 28.5889C41.9234 28.7027 41.1051 28.7027 40.4304 28.6269C39.7557 28.551 39.2747 28.3615 39.0873 28.2478C38.8624 28.172 38.9374 28.1341 39.3122 28.172ZM35.464 27.3382C35.7951 27.2624 36.4323 27.0729 37.0695 26.9971C37.7005 26.9213 38.3002 26.9213 38.8999 26.9971C39.4621 27.0729 39.9806 27.2245 40.8427 27.2624C41.661 27.3003 42.8605 27.1866 43.8287 27.035C44.8033 26.8834 45.6279 26.6244 46.0714 26.4727C46.5212 26.2832 46.6711 26.2453 46.3713 26.2832C46.0714 26.3211 45.3655 26.5106 44.3535 26.5485C43.3477 26.6244 42.0733 26.5865 40.9926 26.5485C39.9431 26.4727 39.1248 26.3969 38.3751 26.4727C37.6255 26.5106 36.9196 26.6623 36.3574 26.8454C35.7951 27.035 35.3516 27.2245 35.2017 27.3382C35.0143 27.4519 35.0892 27.4519 35.464 27.3382V27.3382ZM42.3357 30.8189C42.2982 30.8568 42.4482 30.9641 42.5606 31.0779C42.6356 31.1916 42.673 31.3053 42.673 31.419C42.673 31.5327 42.6356 31.6843 42.6356 31.8359C42.6356 31.9875 42.673 32.1391 42.748 32.6697C42.7855 33.1941 42.8979 34.1037 42.9354 34.3311C42.9729 34.5585 43.0104 34.1037 43.0104 33.5731C43.0104 33.0425 43.0104 32.4802 43.0104 32.1391C43.0479 31.798 43.1228 31.6843 43.1978 31.6085C43.2353 31.5706 43.3102 31.5706 43.3102 31.6464C43.3102 31.7222 43.3102 31.8738 43.2728 31.9875C43.2728 32.1012 43.2728 32.2149 43.3102 32.2528C43.3477 32.2907 43.3852 32.2907 43.5351 32.2528C43.6476 32.2149 43.8287 32.1391 44.0161 32.177C44.2036 32.177 44.391 32.2528 44.6533 32.3665C44.8782 32.4802 45.1781 32.5939 45.5154 32.6318C45.8465 32.7076 46.2213 32.7456 46.5961 32.7076C46.9335 32.6697 47.2333 32.556 47.5332 32.3286C47.7893 32.1391 48.0517 31.798 48.1641 31.6085C48.2391 31.3811 48.2016 31.3053 48.0892 31.1916C47.9767 31.0779 47.7893 30.8883 47.5707 30.781C47.3458 30.6293 47.0459 30.5535 46.6336 30.5156C46.2213 30.4777 45.7028 30.5156 45.328 30.5914C44.9532 30.7052 44.7658 30.8189 44.6533 30.9262C44.5034 31.0021 44.4659 31.04 44.5784 30.9262C44.6908 30.8189 44.9907 30.5156 45.328 30.2882C45.6653 30.0987 46.0339 29.985 46.4837 29.985C46.896 30.0229 47.3458 30.1366 47.6831 30.364C48.0142 30.5535 48.2016 30.8189 48.3515 31.0021C48.5015 31.1916 48.6514 31.3811 48.8388 31.3811C49.0262 31.419 49.2886 31.3053 49.5135 31.1537C49.7009 31.0021 49.8446 30.8189 49.957 30.6673C50.032 30.5156 50.0695 30.4398 49.957 30.2503C49.8446 30.0608 49.6259 29.7955 49.5135 29.6439C49.3636 29.4923 49.2886 29.4544 49.3636 29.5302C49.401 29.606 49.5135 29.8334 49.5884 29.985C49.7009 30.1745 49.7384 30.2882 49.6259 30.4398C49.476 30.5914 49.2136 30.781 48.9887 30.781C48.7264 30.781 48.539 30.5914 48.3141 30.3261C48.0892 30.0229 47.9018 29.6439 47.6456 29.3786C47.4207 29.1512 47.1209 29.0375 46.6711 29.0754C46.2213 29.1133 45.6653 29.227 45.2156 29.3786C44.7658 29.5302 44.4659 29.6818 44.2036 29.7576C43.9412 29.8713 43.7163 29.8713 43.5726 29.9092C43.4227 29.9471 43.3477 29.985 43.2728 30.0987C43.1978 30.2124 43.1603 30.4019 43.0853 30.5156C43.0104 30.6293 42.9729 30.7052 42.7855 30.7431C42.6356 30.781 42.3732 30.781 42.3357 30.8189V30.8189ZM44.391 31.7601C44.4659 31.6464 44.6533 31.419 44.8407 31.2674C45.0282 31.1158 45.253 30.9641 45.5904 30.8883C45.884 30.8189 46.2963 30.781 46.6711 30.8568C47.0084 30.8883 47.3458 31.04 47.5332 31.1537C47.7206 31.3053 47.7893 31.3811 47.8268 31.4569C47.8643 31.4948 47.8643 31.5327 47.8268 31.6464C47.7581 31.7222 47.6456 31.8738 47.4957 32.0254C47.3458 32.1391 47.1209 32.2528 46.8585 32.3286C46.5587 32.3665 46.1838 32.4044 45.884 32.3665C45.5529 32.3665 45.2905 32.2528 45.0656 32.177C44.8407 32.1012 44.6159 32.0254 44.5034 31.9875C44.3535 31.9117 44.316 31.8738 44.391 31.7601V31.7601ZM38.6 31.9117C38.4876 31.798 38.3002 31.6085 38.0378 31.4569C37.7754 31.3432 37.4443 31.2674 37.1445 31.2295C36.8071 31.2295 36.5073 31.3053 36.2074 31.3811C35.9076 31.4948 35.6452 31.6843 35.464 31.798C35.3141 31.9496 35.2392 32.0633 35.2766 32.1391C35.3141 32.2528 35.464 32.3665 35.6452 32.4802C35.8701 32.556 36.095 32.6318 36.3574 32.6697C36.6197 32.7076 36.8446 32.7076 37.107 32.6697C37.3694 32.6318 37.6317 32.556 37.8879 32.4802C38.1128 32.4044 38.3751 32.2907 38.4876 32.177C38.6375 32.1012 38.675 32.0254 38.6 31.9117V31.9117Z" fill="#111E6C"/>
<path d="M7.43396 22.8784L7.84626 22.0508L12.9313 22.6194L12.519 23.4469L11.4695 23.3332L10.5762 25.1083L11.2821 25.9042L10.8386 26.776L7.43396 22.8784V22.8784ZM8.78331 23.0679L9.93899 24.3945L10.5387 23.2574L8.78331 23.0679V23.0679ZM12.0317 15.9296L12.6689 15.1716C13.0063 14.7926 13.2999 14.5273 13.5248 14.4199C13.7496 14.3062 13.9745 14.2683 14.2369 14.3062C14.4993 14.3441 14.7242 14.4515 14.9491 14.641C15.2114 14.8684 15.3551 15.1337 15.3926 15.399C15.4676 15.7022 15.4301 15.9675 15.2802 16.2708C15.2114 16.4224 15.024 16.6814 14.7242 17.0604L16.2547 18.387L15.655 19.0629L12.0317 15.9296ZM14.0495 16.4603L14.2369 16.2329C14.3868 16.0812 14.4993 15.9296 14.4993 15.8538C14.5368 15.7401 14.5742 15.6643 14.5368 15.5885C14.4993 15.4748 14.4618 15.399 14.3868 15.3232C14.2369 15.2095 14.087 15.1716 13.9371 15.2474C13.8246 15.2853 13.6747 15.399 13.4873 15.6264L13.2999 15.8159L14.0495 16.4603V16.4603ZM17.9726 10.0738L18.7222 9.50523L21.6708 13.3207L20.9649 13.8892L17.9726 10.0738ZM25.2628 10.9013L25.3003 8.18497L23.0951 6.59308L25.7063 5.23492L26.0812 6.03086L24.7755 6.70678L26.1561 7.73014L26.1186 9.42942L27.4992 8.70928L27.9115 9.54313L25.2628 10.9013ZM30.4166 3.45983L32.9591 2.70179L33.2215 3.57354L32.3594 3.83886L33.4089 7.61644L32.5468 7.84385L31.4661 4.06627L30.6415 4.32527L30.4166 3.45983V3.45983ZM40.7303 1.53314C41.405 1.53314 41.961 1.76055 42.4857 2.24697C42.973 2.70179 43.2353 3.30823 43.2728 4.02837C43.2728 4.74219 43.0479 5.34862 42.5607 5.84135C42.1109 6.32776 41.5549 6.59308 40.8428 6.63098C40.1306 6.63098 39.5371 6.40357 39.0499 5.91716C38.5626 5.42443 38.3002 4.81799 38.3002 4.14207C38.2628 3.68725 38.3752 3.23242 38.6001 2.8534C38.7875 2.47438 39.0874 2.13326 39.4622 1.91216C39.8682 1.68475 40.2805 1.53314 40.7303 1.53314V1.53314ZM40.7303 2.43648C40.2805 2.43648 39.9057 2.62599 39.6496 2.9292C39.3497 3.27032 39.1998 3.64935 39.1998 4.14207C39.2373 4.66639 39.4247 5.08331 39.7933 5.38653C40.0931 5.61394 40.4305 5.72765 40.8428 5.72765C41.2551 5.72765 41.6299 5.53813 41.9235 5.23492C42.2233 4.8938 42.3358 4.51478 42.3358 4.06627C42.3358 3.57354 42.1484 3.19452 41.8485 2.8913C41.5549 2.58808 41.1801 2.43648 40.7303 2.43648V2.43648ZM48.2392 2.09536L50.8192 2.55018L50.6692 3.45983L49.8134 3.30823L49.1387 7.16161L48.2017 7.01L48.9138 3.11871L48.0518 2.96711L48.2392 2.09536V2.09536ZM56.3852 4.36317L58.8153 5.31072L58.5154 6.18247L56.91 5.53814L56.6101 6.32776L58.1781 6.9721L57.8845 7.80595L56.2728 7.16161L55.8292 8.33026L57.3972 8.9746L57.0599 9.80844L54.6298 8.86089L56.3852 4.36317V4.36317ZM55.9729 4.06627L55.4169 5.19702L54.8172 4.9317L55.1546 3.72515L55.9729 4.06627V4.06627ZM63.6005 13.965L64.5687 10.3012L61.4328 12.3732L60.6456 11.8109L64.9061 8.9746L65.6557 9.50523L64.3813 14.5273L63.6005 13.965ZM71.0344 14.4515L71.6341 15.1716L70.2472 16.3466L71.2967 17.591L72.6773 16.3845L73.277 17.0983L69.6538 20.2378L69.0541 19.5556L70.6595 18.1595L69.6163 16.9467L68.0108 18.3112L67.4111 17.6289L71.0344 14.4515V14.4515ZM72.0464 23.9396L74.7326 23.9775L76.3006 21.7476L77.6499 24.3945L76.8253 24.8051L76.1569 23.4848L75.1823 24.8809L73.5019 24.843L74.1766 26.2453L73.3895 26.6623L72.0464 23.9396V23.9396Z" fill="#F8F8F8"/>
<path d="M12.1816 59.4982C12.4814 60.0983 12.5189 60.7426 12.294 61.4248C12.0691 62.0629 11.6193 62.5556 10.9884 62.8588C10.3887 63.162 9.75149 63.2378 9.08306 63.0104C8.44587 62.783 7.95861 62.3661 7.65875 61.7217C7.3589 61.0837 7.32142 60.4394 7.54631 59.7572C7.80868 59.1191 8.22098 58.6643 8.82069 58.3611C9.22674 58.1337 9.67652 58.0579 10.1263 58.0958C10.5761 58.1337 10.9509 58.2474 11.3195 58.5127C11.6943 58.778 11.9941 59.0812 12.1816 59.4982V59.4982ZM11.357 59.8709C11.1758 59.4982 10.8759 59.2328 10.4636 59.0812C10.0513 58.9296 9.63904 58.9675 9.22674 59.1949C8.74572 59.4224 8.44587 59.7951 8.33342 60.2499C8.25846 60.6289 8.29594 61.0079 8.44587 61.349C8.67076 61.7217 8.97062 61.9871 9.37667 62.1387C9.78897 62.2524 10.2013 62.2145 10.6136 62.025C11.0259 61.8355 11.282 61.5386 11.4319 61.1216C11.5818 60.7047 11.5818 60.2878 11.357 59.8709V59.8709ZM14.6866 63.6169L15.2426 64.2549L14.1993 67.9187L16.5919 65.8404L17.1916 66.5606L13.5621 69.7001L13.0062 69.0179L14.0494 65.3919L11.6568 67.4702L11.0633 66.7501L14.6866 63.6169V63.6169ZM19.2469 68.6768L19.9153 69.2832L17.3728 72.2649L18.3848 73.1745L17.8226 73.8188L16.1421 72.3407L19.2469 68.6768V68.6768ZM23.0575 71.7026L23.8009 72.1891L21.2272 76.232L20.4775 75.7455L23.0575 71.7026ZM26.4184 73.7809L27.168 74.1158L27.724 77.8996L29.0734 74.9875L29.8917 75.4044L27.8739 79.7884L27.0931 79.4094L26.5308 75.6697L25.2252 78.5377L24.4006 78.1586L26.4184 73.7809V73.7809ZM32.6966 76.3078L35.2016 77.0658L34.9767 77.9375L33.3338 77.4448L33.0714 78.2723L34.7144 78.7651L34.4895 79.5989L32.8465 79.1441L32.4717 80.3506L34.1147 80.8434L33.8898 81.7151L31.3535 80.9571L32.6966 76.3078V76.3078ZM40.8052 77.7101L41.736 77.748L43.4226 82.6564L42.4856 82.6185L42.1108 81.6014L40.168 81.5635L39.7557 82.5427L38.8249 82.5048L40.8052 77.7101V77.7101ZM41.2175 79.0304L40.5428 80.6539L41.8109 80.6918L41.2175 79.0304V79.0304ZM50.3318 77.748L49.8133 78.4619C49.326 78.0892 48.8013 77.9375 48.2391 78.0513C47.7893 78.1271 47.4582 78.3482 47.1958 78.7272C46.9709 79.0683 46.8585 79.4852 46.9709 79.94C47.0084 80.2748 47.1209 80.5402 47.3083 80.7676C47.4957 80.995 47.7206 81.1466 47.9767 81.2224C48.2765 81.3361 48.5764 81.3361 48.8762 81.2982C49.1386 81.2224 49.3635 81.1466 49.5509 80.995C49.7383 80.8434 49.957 80.6539 50.1819 80.3127L50.894 80.8434C50.5942 81.2603 50.3318 81.5635 50.0319 81.753C49.7758 81.9425 49.401 82.0942 49.0262 82.17C48.2765 82.2773 47.6456 82.17 47.0834 81.7909C46.5211 81.4119 46.1838 80.8434 46.0714 80.1296C45.9589 79.6368 45.9964 79.2199 46.1463 78.803C46.2963 78.3861 46.5586 78.0513 46.896 77.748C47.2708 77.4448 47.6456 77.2553 48.1266 77.1795C48.5014 77.1037 48.8763 77.1037 49.2886 77.2174C49.6634 77.2932 50.0319 77.4827 50.3318 77.748V77.748ZM54.03 75.7834L54.8921 75.4423L58.3279 79.2957L57.4346 79.6368L56.7224 78.8409L54.8921 79.561V80.616L54.03 80.9571V75.7834V75.7834ZM54.9296 76.8005L54.8921 78.5756L56.1227 78.1271L54.9296 76.8005V76.8005ZM58.8901 73.5914L59.8272 73.0608C60.4206 72.6818 60.9079 72.4923 61.2827 72.4923C61.695 72.4544 62.0636 72.5681 62.4384 72.7955C62.8132 73.0229 63.1506 73.364 63.4129 73.8188C63.6004 74.1157 63.7128 74.4569 63.7503 74.798C63.8252 75.1391 63.7878 75.4423 63.7128 75.7076C63.6378 76.0109 63.4879 76.232 63.338 76.4594C63.1506 76.6489 62.7758 76.9142 62.251 77.2174L61.3202 77.7859L58.8901 73.5914V73.5914ZM60.1208 73.8947L61.6575 76.5352L61.9949 76.3078C62.3635 76.1182 62.5883 75.8971 62.7008 75.7455C62.8132 75.556 62.8882 75.3286 62.8507 75.0633C62.8507 74.8359 62.7758 74.5327 62.5883 74.2674C62.3635 73.8188 62.0261 73.5535 61.6575 73.4398C61.2827 73.364 60.8704 73.4398 60.3832 73.743L60.1208 73.8947V73.8947ZM64.2313 69.9591L66.2116 68.2599L66.7738 68.9421L65.5057 70.0729L66.0617 70.7172L67.336 69.5864L67.8983 70.2624L66.6239 71.3994L67.4485 72.3786L68.7166 71.2478L69.3163 71.9301L67.336 73.6672L64.2313 69.9591V69.9591ZM68.3043 66.2195L68.8291 65.5056L72.1587 66.6743L70.2096 63.7306L70.7344 63.0104L75.0323 65.3161L74.4701 66.03L71.7839 64.5581L73.5393 67.2428L73.052 67.8808L70.066 66.8259L72.1212 69.1316L71.559 69.8139L68.3043 66.2195V66.2195ZM72.3399 60.591L72.7896 59.6813L74.695 59.6434L73.5768 58.0958L73.9891 57.1924L75.8194 59.6813L77.6498 60.6289L77.275 61.4627L75.4071 60.5152L72.3399 60.591V60.591Z" fill="#F8F8F8"/>
<path d="M5.56607 48.7655C5.60355 48.9929 5.64104 49.2204 5.67852 49.5173C5.75348 49.7447 5.79096 49.9721 5.82844 50.2753L5.94089 50.6922L6.35319 50.5785L7.8837 50.2374L8.25852 50.1237L8.18356 49.7068C8.14608 49.5173 8.10859 49.3341 8.07111 49.1066C8.03363 48.9171 7.99615 48.7276 7.95867 48.4623C7.8837 48.2349 7.8837 48.0454 7.84622 47.8559C7.80874 47.7043 7.77126 47.4769 7.73377 47.2558L7.69629 46.8009L7.28399 46.8767C6.80297 46.9525 6.31571 47.0283 5.82844 47.1042L3.81067 47.4011L3.84815 47.818C3.88563 48.197 3.9606 48.576 3.99808 48.955C4.07304 49.2962 4.14801 49.6689 4.22297 50.0479C4.29793 50.389 4.3729 50.768 4.44786 51.1471C4.56031 51.5198 4.63527 51.8609 4.74772 52.2399L4.86016 52.6568L5.26622 52.5431C6.1283 52.2778 6.99038 52.0504 7.84622 51.823C7.92118 52.0125 7.95867 52.202 8.03363 52.3915C8.10859 52.7326 8.22104 53.0737 8.33349 53.377C8.44593 53.7118 8.59586 54.015 8.7083 54.3561C8.78327 54.5456 8.85823 54.6972 8.9332 54.8867L6.84046 55.7522C6.80297 55.6764 6.76549 55.6006 6.72801 55.5311C6.65305 55.3037 6.57808 55.0762 6.46564 54.8867C6.42816 54.6972 6.31571 54.4698 6.24075 54.2424L6.16578 53.9771L6.84046 53.7497C6.87794 53.8634 6.91542 53.9771 6.9529 54.0908C7.02787 54.3182 7.10283 54.5456 7.20903 54.8109L7.99615 54.5077C7.92118 54.3182 7.84622 54.0529 7.73377 53.7876C7.65881 53.5602 7.58385 53.3012 7.50888 53.0737L7.35896 52.6947C6.61556 52.96 5.86593 53.1874 5.08505 53.4528L5.22873 53.8255C5.3037 54.0908 5.37866 54.3182 5.45363 54.5077C5.52859 54.7351 5.60355 54.9246 5.67852 55.1899C5.79096 55.3795 5.86593 55.6006 5.94089 55.828C6.05334 56.0933 6.1283 56.2828 6.24075 56.4723L6.39067 56.8513C7.58385 56.3586 8.82075 55.8659 10.0139 55.3795L9.864 54.9625C9.75155 54.6593 9.60162 54.3561 9.48918 54.0529C9.37673 53.7118 9.23305 53.4149 9.1206 53.1116C9.00816 52.7705 8.9332 52.4673 8.82075 52.1641C8.7083 51.823 8.63334 51.4819 8.52089 51.185L8.40845 50.768C7.43392 51.0333 6.42815 51.3366 5.45363 51.5956C5.37866 51.3745 5.34118 51.185 5.26622 50.9575C5.19125 50.5785 5.12254 50.2374 5.04757 49.8584C4.97261 49.5173 4.89764 49.1825 4.82268 48.8034C4.82268 48.576 4.7852 48.3486 4.74772 48.1212L6.99038 47.7801L7.02787 48.0075C7.06535 48.2349 7.10283 48.4623 7.10283 48.6139C7.14031 48.8034 7.17779 49.0308 7.24651 49.2583L7.28399 49.4794L6.57808 49.6689L6.50312 49.3341C6.46564 49.1067 6.42815 48.8792 6.39067 48.576L5.56607 48.7655V48.7655Z" fill="white"/>
<path d="M77.8747 29.1511C77.9497 29.3786 78.0246 29.606 78.1371 29.8713C78.2121 30.0987 78.2808 30.364 78.3557 30.5914L78.5057 31.002L78.0996 31.1536L76.6003 31.6085L76.2255 31.7222L76.0818 31.3432C76.0069 31.1536 75.9694 30.9262 75.8944 30.743C75.8195 30.5535 75.7445 30.364 75.6695 30.1366C75.5946 29.9092 75.5196 29.7197 75.4446 29.5302C75.4072 29.3786 75.3322 29.1891 75.2198 28.9616L75.0698 28.551L75.4821 28.3994C75.9319 28.2099 76.3754 28.0583 76.8252 27.8688L78.7305 27.1107L78.8805 27.4898C79.0304 27.8309 79.1803 28.2099 79.2928 28.551C79.4427 28.8858 79.5552 29.227 79.6676 29.606C79.8175 29.9471 79.8925 30.3261 80.0049 30.6672C80.1174 31.0399 80.1923 31.3811 80.3048 31.7601L80.411 32.177L80.0049 32.2907C79.1429 32.5181 78.287 32.7455 77.3875 32.9666C77.4624 33.1561 77.4999 33.3457 77.5374 33.5731C77.6123 33.9142 77.6873 34.2553 77.7623 34.5964C77.8372 34.9375 77.8747 35.2723 77.9122 35.6135C77.9497 35.803 77.9872 35.9925 77.9872 36.182L80.2298 35.8788C80.2298 35.7651 80.2298 35.6893 80.1923 35.6135C80.1923 35.3861 80.1549 35.1586 80.1174 34.9375C80.0799 34.7101 80.0424 34.4827 80.0049 34.2553L79.93 33.99L79.2553 34.1416C79.2553 34.2553 79.2928 34.369 79.2928 34.4827C79.3303 34.7101 79.4052 34.9754 79.4427 35.2344L78.6181 35.3861C78.5806 35.1586 78.5431 34.9375 78.4682 34.6343C78.4307 34.369 78.3932 34.1037 78.3557 33.8763L78.2495 33.4973C79.0304 33.3078 79.8175 33.1561 80.5984 32.9666L80.6734 33.3836C80.7108 33.6489 80.7858 33.8763 80.8233 34.1037C80.8608 34.2932 80.8982 34.5206 80.9357 34.7859C80.9732 35.007 81.0107 35.2344 81.0482 35.4998C81.0482 35.7651 81.0857 35.9925 81.1231 36.182L81.1606 36.5989C79.855 36.7884 78.5806 36.9779 77.275 37.1611L77.2375 36.7126C77.1626 36.4094 77.1251 36.0683 77.0876 35.7272C77.0501 35.3861 76.9752 35.0449 76.9377 34.748C76.8627 34.369 76.7877 34.0658 76.7128 33.7626C76.6378 33.4215 76.5629 33.0803 76.4879 32.7455L76.3754 32.3665C77.3875 32.1012 78.3932 31.8359 79.3677 31.5706C79.3303 31.3432 79.2553 31.1157 79.2178 30.9262C79.1054 30.5535 78.9929 30.2124 78.8805 29.8713C78.768 29.5302 78.6556 29.1891 78.5057 28.8479C78.4307 28.6268 78.3557 28.3994 78.287 28.2099L76.1568 29.0374L76.2318 29.227C76.338 29.4544 76.4129 29.6439 76.4504 29.8334C76.5254 30.0229 76.6003 30.2124 76.6753 30.4398L76.7503 30.6672L77.4249 30.4777L77.35 30.1366C77.275 29.9092 77.1626 29.6818 77.0876 29.4165L77.8747 29.1511V29.1511Z" fill="white"/>
<path d="M5.08512 38.8289C5.08512 39.0879 5.04764 39.3153 5.04764 39.6185C5.01015 39.8459 5.01015 40.1112 4.97267 40.3765V40.7935L5.37872 40.8314L6.95296 40.8693L7.35901 40.9072V40.4902C7.39649 40.2628 7.39649 40.0733 7.39649 39.8459C7.43398 39.6564 7.43398 39.429 7.47146 39.2016C7.47146 38.9805 7.50894 38.7531 7.50894 38.6014C7.54642 38.4119 7.54642 38.1845 7.5839 37.9571L7.65887 37.5402L7.20908 37.4644C6.72807 37.4265 6.27829 37.3886 5.79102 37.3128L3.73577 37.0854L3.69829 37.5023C3.62333 37.8813 3.58585 38.2603 3.54836 38.6393C3.51088 38.9805 3.4734 39.3532 3.43592 39.7322C3.43592 40.1112 3.43592 40.4902 3.39844 40.8693C3.39844 41.242 3.39844 41.621 3.39844 42V42.4169H3.84822C4.74778 42.4169 5.60362 42.4169 6.50318 42.4169C6.54066 42.6064 6.54066 42.796 6.54066 43.0234C6.54066 43.3582 6.57814 43.7372 6.57814 44.0404C6.61562 44.3815 6.65311 44.7226 6.69059 45.1017C6.72807 45.2533 6.72807 45.4744 6.76555 45.6639L4.52289 45.9671C4.52289 45.8534 4.48541 45.7776 4.48541 45.6639C4.44793 45.4744 4.44793 45.2533 4.41045 45.0259C4.41045 44.7984 4.37296 44.571 4.37296 44.3057L4.33548 44.0404L5.04764 44.0025C5.04764 44.1541 5.04764 44.2678 5.07887 44.3815C5.07887 44.6089 5.11635 44.8363 5.15383 45.1396L5.97843 45.0638C5.94095 44.8363 5.94095 44.571 5.90347 44.3057C5.86599 44.0404 5.86599 43.7751 5.86599 43.5477L5.82851 43.1371C5.04139 43.175 4.22304 43.2129 3.43592 43.2445L3.4734 43.6614C3.4734 43.9267 3.51088 44.192 3.51088 44.3815C3.54836 44.6089 3.54836 44.8364 3.58585 45.1017C3.58585 45.3228 3.62333 45.5502 3.66081 45.7776C3.69829 46.0429 3.73577 46.2703 3.77326 46.4977L3.81074 46.9146C5.11635 46.7251 6.42821 46.5735 7.73383 46.4219L7.65887 45.9671C7.62138 45.6639 7.5839 45.3228 7.50894 44.988C7.47146 44.6468 7.47146 44.3057 7.43398 44.0025C7.39649 43.6235 7.39649 43.2824 7.35901 42.9855C7.35901 42.6443 7.35901 42.3032 7.35901 41.9621L7.32153 41.5452C6.31577 41.5452 5.26628 41.5452 4.26052 41.5831C4.26052 41.3557 4.26052 41.1346 4.26052 40.9072C4.26052 40.5281 4.26052 40.187 4.298 39.808C4.298 39.429 4.33548 39.0563 4.37296 38.7151C4.41045 38.4877 4.44793 38.2603 4.44793 38.0329L6.72807 38.2982L6.69059 38.4877C6.65311 38.7151 6.65311 38.9426 6.61562 39.1258C6.61562 39.3153 6.57814 39.5427 6.57814 39.7701V39.9975H5.82851L5.86599 39.6564C5.86599 39.429 5.90347 39.1637 5.94095 38.9047L5.07887 38.8289H5.08512V38.8289Z" fill="white"/>
<path d="M79.9675 38.8289C79.9675 39.0879 80.0049 39.3153 80.0049 39.6185C80.0424 39.8459 80.0424 40.1112 80.0799 40.3765V40.7935L79.6676 40.8314L78.0996 40.8693L77.6873 40.9072V40.4902C77.6498 40.2628 77.6498 40.0733 77.6498 39.8459C77.6124 39.6564 77.6124 39.429 77.5749 39.2016C77.5749 38.9805 77.5374 38.7531 77.5374 38.6014C77.4999 38.4119 77.4999 38.1845 77.4624 37.9571L77.3875 37.5402L77.8372 37.4644C78.3183 37.4265 78.768 37.3886 79.2553 37.3128L81.3106 37.0854L81.348 37.5023C81.423 37.8813 81.4605 38.2603 81.498 38.6393C81.5355 38.9805 81.5729 39.3532 81.6104 39.7322C81.6104 40.1112 81.6104 40.4902 81.6479 40.8693C81.6479 41.242 81.6479 41.621 81.6479 42V42.4169H81.1981C80.2985 42.4169 79.4427 42.4169 78.5432 42.4169C78.5057 42.6064 78.5057 42.796 78.5057 43.0234C78.5057 43.3582 78.4682 43.7372 78.4682 44.0404C78.4307 44.3815 78.3932 44.7226 78.3557 45.1017C78.3183 45.2533 78.3183 45.4744 78.2808 45.6639L80.5234 45.9671C80.5234 45.8534 80.5609 45.7776 80.5609 45.6639C80.5984 45.4744 80.5984 45.2533 80.6359 45.0259C80.6359 44.7984 80.6734 44.571 80.6734 44.3057L80.7108 44.0404L80.0049 44.0025C80.0049 44.1541 80.0049 44.2678 79.9675 44.3815C79.9675 44.6089 79.93 44.8363 79.8925 45.1396L79.0679 45.0638C79.1054 44.8363 79.1054 44.571 79.1429 44.3057C79.1803 44.0404 79.1803 43.7751 79.1803 43.5477L79.2178 43.1371C80.0049 43.175 80.8233 43.2129 81.6104 43.2445L81.5729 43.6614C81.5729 43.9267 81.5355 44.192 81.5355 44.3815C81.498 44.6089 81.498 44.8364 81.4605 45.1017C81.4605 45.3228 81.423 45.5502 81.3855 45.7776C81.348 46.0429 81.3106 46.2703 81.2731 46.4977L81.2356 46.9146C79.93 46.7251 78.6181 46.5735 77.3125 46.4219L77.3875 45.9671C77.4249 45.6639 77.4624 45.3228 77.5374 44.988C77.5749 44.6468 77.5749 44.3057 77.6124 44.0025C77.6498 43.6235 77.6498 43.2824 77.6873 42.9855C77.6873 42.6443 77.6873 42.3032 77.6873 41.9621L77.7248 41.5452C78.7306 41.5452 79.7801 41.5452 80.7858 41.5831C80.7858 41.3557 80.7858 41.1346 80.7858 40.9072C80.7858 40.5281 80.7858 40.187 80.7483 39.808C80.7483 39.429 80.7109 39.0563 80.6734 38.7151C80.6359 38.4877 80.5984 38.2603 80.5984 38.0329L78.3245 38.2982L78.3557 38.4877C78.3932 38.7151 78.3932 38.9426 78.4307 39.1258C78.4307 39.3153 78.4682 39.5427 78.4682 39.7701V39.9975H79.2178L79.1803 39.6564C79.1803 39.429 79.1429 39.1637 79.1054 38.9047L79.9675 38.8289V38.8289Z" fill="white"/>
<path d="M7.17153 29.1511C7.10281 29.3786 6.99036 29.606 6.9154 29.8713C6.84044 30.0987 6.76547 30.364 6.69051 30.5914L6.54058 31.002L6.95288 31.1536L8.44591 31.6085L8.82073 31.7222L8.97065 31.3432C9.04562 31.1536 9.0831 30.9262 9.15182 30.743C9.22678 30.5535 9.30174 30.364 9.37671 30.1366C9.45167 29.9092 9.52664 29.7197 9.6016 29.5302C9.63908 29.3786 9.71404 29.1891 9.82649 28.9616L9.97642 28.551L9.56412 28.3994C9.12058 28.2099 8.6708 28.0583 8.22102 27.8688L6.31569 27.1107L6.16576 27.4898C6.01584 27.8309 5.86591 28.2099 5.75346 28.551C5.60354 28.8858 5.49109 29.227 5.37865 29.606C5.22872 29.9471 5.15376 30.3261 5.04756 30.6672C4.93511 31.0399 4.86015 31.3811 4.7477 31.7601L4.63526 32.177L5.04756 32.2907C5.90339 32.5181 6.76547 32.7455 7.65879 32.9666C7.58383 33.1561 7.54635 33.3457 7.50886 33.5731C7.4339 33.9142 7.35894 34.2553 7.28397 34.5964C7.20901 34.9375 7.17153 35.2723 7.13405 35.6135C7.09656 35.803 7.06533 35.9925 7.06533 36.182L4.82267 35.8788C4.82267 35.7651 4.82267 35.6893 4.86015 35.6135C4.86015 35.3861 4.89763 35.1586 4.93511 34.9375C4.97259 34.7101 5.01008 34.4827 5.04756 34.2553L5.11627 33.99L5.79095 34.1416C5.79095 34.2553 5.75346 34.369 5.75346 34.4827C5.71598 34.7101 5.64102 34.9754 5.60354 35.2344L6.42814 35.3861C6.46562 35.1586 6.5031 34.9375 6.57806 34.6343C6.61555 34.369 6.65303 34.1037 6.69051 33.8763L6.80296 33.4973C6.01584 33.3078 5.22872 33.1561 4.44785 32.9666L4.37288 33.3836C4.3354 33.6489 4.26044 33.8763 4.22296 34.1037C4.18548 34.2932 4.14799 34.5206 4.11051 34.7859C4.07303 35.007 4.03555 35.2344 3.99807 35.4998C3.99807 35.7651 3.96058 35.9925 3.9231 36.182L3.88562 36.5989C5.19124 36.7884 6.46562 36.9779 7.77124 37.1611L7.80872 36.7126C7.88368 36.4094 7.92116 36.0683 7.95865 35.7272C7.99613 35.3861 8.07109 35.0449 8.10857 34.748C8.18354 34.369 8.2585 34.0658 8.33346 33.7626C8.40843 33.4215 8.48339 33.0803 8.55835 32.7455L8.6708 32.3665C7.65879 32.1012 6.65303 31.8359 5.6785 31.5706C5.71598 31.3432 5.79095 31.1157 5.82843 30.9262C5.94087 30.5535 6.05332 30.2124 6.16576 29.8713C6.27821 29.5302 6.39066 29.1891 6.54058 28.8479C6.61555 28.6268 6.69051 28.3994 6.76547 28.2099L8.89569 29.0374L8.82073 29.227C8.70828 29.4544 8.63332 29.6439 8.59584 29.8334C8.52087 30.0229 8.44591 30.2124 8.37095 30.4398L8.29598 30.6672L7.62131 30.4777L7.69627 30.1366C7.77124 29.9092 7.88368 29.6818 7.95865 29.4165L7.17153 29.1511V29.1511Z" fill="white"/>
<path d="M79.4802 48.7655C79.4427 48.9929 79.4052 49.2204 79.3678 49.5173C79.2928 49.7447 79.2553 49.9721 79.2178 50.2753L79.1054 50.6922L78.6931 50.5785L77.1626 50.2374L76.7878 50.1237L76.8627 49.7068C76.9002 49.5173 76.9377 49.3341 76.9752 49.1066C77.0126 48.9171 77.0501 48.7276 77.0876 48.4623C77.1626 48.2349 77.1626 48.0454 77.2001 47.8559C77.2375 47.7043 77.275 47.4769 77.3125 47.2558L77.35 46.8009L77.7623 46.8767C78.2433 46.9525 78.7306 47.0283 79.2178 47.1042L81.2356 47.4011L81.1981 47.818C81.1606 48.197 81.0857 48.576 81.0482 48.955C80.9732 49.2962 80.8983 49.6689 80.8233 50.0479C80.7483 50.389 80.6734 50.768 80.5984 51.1471C80.486 51.5198 80.411 51.8609 80.2986 52.2399L80.1924 52.6568L79.7801 52.5431C78.918 52.2778 78.0621 52.0504 77.2001 51.823C77.1251 52.0125 77.0876 52.202 77.0126 52.3915C76.9377 52.7326 76.8252 53.0737 76.7128 53.377C76.6003 53.7118 76.4504 54.015 76.338 54.3561C76.263 54.5456 76.1943 54.6972 76.1193 54.8867L78.2121 55.7522C78.2433 55.6764 78.2808 55.6006 78.3183 55.5311C78.3932 55.3037 78.4682 55.0762 78.5806 54.8867C78.6181 54.6972 78.7306 54.4698 78.8055 54.2424L78.8805 53.9771L78.2121 53.7497C78.1746 53.8634 78.1371 53.9771 78.0996 54.0908C78.0247 54.3182 77.9497 54.5456 77.8372 54.8109L77.0501 54.5077C77.1251 54.3182 77.2001 54.0529 77.3125 53.7876C77.3875 53.5602 77.4624 53.3012 77.5374 53.0737L77.6873 52.6947C78.4307 52.96 79.1803 53.1874 79.9675 53.4528L79.8175 53.8255C79.7426 54.0908 79.6676 54.3182 79.5927 54.5077C79.5177 54.7351 79.4427 54.9246 79.3678 55.1899C79.2553 55.3795 79.1803 55.6006 79.1054 55.828C78.9929 56.0933 78.918 56.2828 78.8055 56.4723L78.6556 56.8513C77.4624 56.3586 76.2255 55.8659 75.0323 55.3795L75.1823 54.9625C75.2947 54.6593 75.4446 54.3561 75.5571 54.0529C75.6695 53.7118 75.8195 53.4149 75.9319 53.1116C76.0444 52.7705 76.1193 52.4673 76.2255 52.1641C76.338 51.823 76.4129 51.4819 76.5254 51.185L76.6378 50.768C77.6124 51.0333 78.6181 51.3366 79.5927 51.5956C79.6676 51.3745 79.7051 51.185 79.7801 50.9575C79.855 50.5785 79.93 50.2374 80.005 49.8584C80.0799 49.5173 80.1549 49.1825 80.2236 48.8034C80.2236 48.576 80.2611 48.3486 80.2986 48.1212L78.0621 47.7801L78.0247 48.0075C77.9872 48.2349 77.9497 48.4623 77.9497 48.6139C77.9122 48.8034 77.8747 49.0308 77.7998 49.2583L77.7623 49.4794L78.4682 49.6689L78.5432 49.3341C78.5806 49.1067 78.6181 48.8792 78.6556 48.576L79.4802 48.7655V48.7655Z" fill="white"/>
</g>
</svg>
