<svg width="73" height="44" viewBox="0 0 73 44" fill="none" xmlns="http://www.w3.org/2000/svg">
<rect width="73" height="44" rx="3" fill="white"/>
<path d="M30.2924 16.674C33.5333 16.674 35.6211 18.9539 35.6211 22.0063C35.6211 25.0556 33.5333 27.3355 30.2924 27.3355C27.0546 27.3355 24.9668 25.0556 24.9668 22.0063C24.9668 18.9539 27.0546 16.674 30.2924 16.674ZM30.2924 24.92C31.837 24.92 32.9689 23.7659 32.9689 22.0063C32.9689 20.2878 31.8158 19.1115 30.2924 19.1115C28.8146 19.1115 27.6402 20.2436 27.6402 22.0063C27.6402 23.6997 28.7721 24.92 30.2924 24.92Z" fill="#323C8D"/>
<path d="M36.9226 19.7674C36.9226 17.7808 38.4884 16.674 40.5123 16.674C42.403 16.674 43.6199 17.374 44.2298 17.9606L43.2951 19.8116C42.7063 19.3386 41.6869 18.8403 40.643 18.8403C39.8813 18.8403 39.4232 19.2724 39.4232 19.7233C39.4232 21.4167 44.7091 20.4895 44.7091 24.0844C44.7091 26.0931 43.1432 27.3355 40.7492 27.3355C38.9465 27.3355 37.1201 26.3202 36.6616 25.598L37.8814 23.9015C38.4673 24.5574 39.9451 25.1692 40.9252 25.1692C41.6413 25.1692 42.2088 24.8507 42.2088 24.22C42.2088 22.5708 36.9226 23.4727 36.9226 19.7674Z" fill="#323C8D"/>
<path d="M51.1001 16.6523C54.338 16.6523 56.4258 18.9322 56.4258 21.9846C56.4258 25.0339 54.338 27.3138 51.1001 27.3138C47.8593 27.3138 45.7715 25.0339 45.7715 21.9846C45.7715 18.9322 47.8593 16.6523 51.1001 16.6523ZM51.1001 24.8983C52.6448 24.8983 53.7734 23.7442 53.7734 21.9846C53.7734 20.266 52.6203 19.0898 51.1001 19.0898C49.6222 19.0898 48.448 20.2219 48.448 21.9846C48.448 23.678 49.5766 24.8983 51.1001 24.8983Z" fill="#323C8D"/>
<path d="M58.0552 17.1359H60.5558V18.1544C61.1445 17.4985 62.1884 16.9561 63.3626 16.9561C65.7538 16.9561 67.3835 18.1544 67.3835 21.3393V27.3055H64.8829V21.7903C64.8829 20.1631 64.0788 19.3968 62.6888 19.3968C61.8391 19.3968 61.1445 19.7595 60.5558 20.3681V27.3055H58.0552V17.1359Z" fill="#323C8D"/>
<path fill-rule="evenodd" clip-rule="evenodd" d="M18.3208 20.3846C17.4651 20.0125 16.4819 20.4319 16.1238 21.318C15.7657 22.2073 16.1693 23.229 17.022 23.601C17.8778 23.9732 18.8609 23.5538 19.219 22.6676C19.5771 21.7784 19.1735 20.7567 18.3208 20.3846Z" fill="#479FD8"/>
<path fill-rule="evenodd" clip-rule="evenodd" d="M13.8513 26.6283C13.7147 26.1237 13.997 25.6034 14.4825 25.4615C14.965 25.3196 15.4687 25.6129 15.6022 26.1143C15.7388 26.6188 15.4566 27.1422 14.9741 27.281C14.4885 27.4229 13.9878 27.1297 13.8513 26.6283Z" fill="#479FD8"/>
<path fill-rule="evenodd" clip-rule="evenodd" d="M10.498 14.4941C9.64228 14.1189 8.65908 14.5383 8.30101 15.4275C7.94291 16.3136 8.34653 17.3353 9.20227 17.7074C10.0549 18.0795 11.0381 17.6633 11.3962 16.774C11.7543 15.8879 11.3538 14.8662 10.498 14.4941Z" fill="#323C8D"/>
<path fill-rule="evenodd" clip-rule="evenodd" d="M15.1072 16.7141C14.643 16.5123 14.1088 16.7393 13.9146 17.2186C13.7204 17.7011 13.9389 18.2561 14.4032 18.4579C14.8675 18.6597 15.4016 18.4327 15.5958 17.9534C15.79 17.4709 15.5715 16.9159 15.1072 16.7141Z" fill="#323C8D"/>
<path fill-rule="evenodd" clip-rule="evenodd" d="M10.3978 26.2656C9.5451 25.8936 8.5619 26.3129 8.20383 27.2022C7.84573 28.0883 8.24628 29.11 9.10202 29.4821C9.95474 29.8542 10.9379 29.438 11.296 28.5487C11.6541 27.6594 11.2535 26.6409 10.3978 26.2656Z" fill="#323C8D"/>
<path fill-rule="evenodd" clip-rule="evenodd" d="M6.88406 21.1193C6.41978 20.9175 5.88568 21.1445 5.6915 21.627C5.49728 22.1095 5.71577 22.6613 6.18005 22.8663C6.64433 23.0681 7.17536 22.8411 7.36958 22.3586C7.56682 21.8761 7.34834 21.3211 6.88406 21.1193Z" fill="#479FD8"/>
<path fill-rule="evenodd" clip-rule="evenodd" d="M14.9194 20.6368C15.6416 22.4658 14.798 24.5596 13.0349 25.307C11.2719 26.0575 9.26 25.1808 8.53777 23.3487C7.81555 21.5166 8.6622 19.426 10.4222 18.6755C12.1853 17.9281 14.2002 18.8048 14.9194 20.6368ZM10.7469 19.4985C9.42082 20.0629 8.78659 21.6365 9.32979 23.0145C9.86995 24.3893 11.3842 25.0515 12.7103 24.4871C14.0364 23.9226 14.6736 22.3491 14.1304 20.9711C13.5873 19.5931 12.073 18.9341 10.7469 19.4985Z" fill="#323C8D"/>
</svg>
