<svg id="svg" version="1.1" xmlns="http://www.w3.org/2000/svg" xmlns:xlink="http://www.w3.org/1999/xlink" width="400" height="400" viewBox="0, 0, 400,400"><g id="svgg"><path id="path0" d="M217.138 167.291 C 212.641 167.770,210.449 169.628,209.486 173.778 C 208.987 175.928,208.972 220.709,209.470 222.650 C 210.444 226.446,212.394 228.043,216.875 228.719 C 219.110 229.056,309.863 229.112,311.255 228.777 C 315.231 227.820,318.633 224.975,327.918 214.844 C 338.146 203.685,338.909 202.543,338.916 198.400 C 338.921 194.722,338.321 193.716,330.162 183.733 C 320.719 172.180,317.203 168.965,312.444 167.529 C 311.311 167.188,220.248 166.960,217.138 167.291 M269.280 178.316 C 274.001 179.509,276.711 182.633,277.802 188.140 C 278.133 189.814,278.395 216.260,278.092 217.432 C 277.750 218.753,277.366 218.844,272.138 218.844 L 267.528 218.844 267.009 218.325 L 266.489 217.805 266.486 204.858 C 266.482 189.608,266.395 188.807,264.589 187.429 C 261.980 185.439,258.049 186.893,254.723 191.078 L 253.689 192.379 253.689 205.167 C 253.689 219.575,253.804 218.420,252.323 218.832 C 251.259 219.127,243.861 219.080,243.127 218.774 C 242.200 218.386,242.227 218.775,242.131 204.533 C 242.040 191.024,242.040 191.022,241.632 189.811 C 240.070 185.182,234.821 185.634,230.711 190.750 L 229.511 192.244 229.511 204.718 C 229.511 213.388,229.451 217.364,229.314 217.757 C 228.956 218.784,228.624 218.844,223.379 218.844 L 218.651 218.844 218.206 218.399 L 217.761 217.955 217.814 208.399 L 217.867 198.844 218.439 197.207 C 220.182 192.218,225.111 185.845,230.550 181.549 C 237.489 176.069,248.362 177.054,251.715 183.467 C 252.048 184.102,252.346 184.654,252.378 184.692 C 252.410 184.731,253.221 184.011,254.180 183.092 C 259.040 178.435,263.797 176.930,269.280 178.316 M307.644 178.910 C 315.554 180.998,321.067 188.753,321.067 197.792 C 321.067 201.277,321.992 201.067,306.675 201.067 L 294.027 201.067 294.148 202.178 C 294.695 207.198,296.991 210.088,301.041 210.856 C 304.597 211.531,307.834 210.173,309.638 207.251 C 310.670 205.578,310.892 205.511,315.382 205.511 C 320.374 205.511,320.737 205.746,319.592 208.225 C 313.121 222.229,291.086 221.773,285.075 207.511 C 278.201 191.199,291.302 174.597,307.644 178.910 M228.254 179.105 C 228.854 179.415,228.978 179.690,228.978 180.710 L 228.978 181.480 227.600 182.280 C 224.593 184.027,221.754 186.352,219.780 188.683 C 219.119 189.465,218.400 190.311,218.183 190.563 L 217.789 191.022 217.783 185.370 L 217.778 179.717 218.214 179.281 L 218.651 178.844 223.201 178.844 C 226.847 178.844,227.851 178.896,228.254 179.105 M300.356 186.206 C 297.186 186.991,294.906 189.762,294.162 193.733 L 294.053 194.311 302.227 194.311 L 310.400 194.311 310.400 193.904 C 310.400 188.864,305.325 184.975,300.356 186.206 " stroke="none" fill="#34cccc" fill-rule="evenodd"></path><path id="path1" d="M262.064 178.307 C 259.160 179.094,255.026 181.816,253.164 184.167 C 252.432 185.091,252.445 185.095,251.782 183.751 C 249.185 178.486,241.336 176.502,234.448 179.369 C 229.504 181.427,222.308 188.888,219.453 194.914 C 217.872 198.251,217.887 198.127,217.820 208.583 L 217.760 217.787 218.297 218.324 L 218.833 218.861 223.655 218.808 L 228.476 218.756 228.905 218.257 L 229.333 217.758 229.333 205.083 L 229.333 192.409 230.196 191.271 C 234.376 185.758,239.799 184.891,241.572 189.451 L 242.044 190.667 242.133 204.327 L 242.222 217.987 242.730 218.424 L 243.239 218.861 248.015 218.808 C 252.714 218.756,252.797 218.749,253.195 218.351 L 253.600 217.946 253.648 205.118 L 253.696 192.290 254.441 191.300 C 258.645 185.724,264.138 184.829,265.974 189.422 L 266.400 190.489 266.489 204.089 C 266.556 214.381,266.631 217.782,266.796 218.070 C 267.175 218.731,267.936 218.845,271.982 218.842 C 276.398 218.840,276.988 218.774,277.599 218.208 L 278.044 217.795 278.044 204.315 C 278.044 188.188,277.960 187.193,276.304 183.822 C 274.085 179.305,267.622 176.802,262.064 178.307 M299.644 178.502 C 287.391 180.181,280.200 193.456,284.646 206.189 C 289.868 221.145,312.157 222.846,319.209 208.826 C 320.747 205.768,320.459 205.511,315.480 205.511 C 311.417 205.511,310.672 205.700,309.956 206.913 C 305.374 214.663,294.044 211.012,294.044 201.785 L 294.044 201.067 306.444 201.066 C 319.853 201.065,319.973 201.057,320.532 200.137 C 321.965 197.781,320.128 189.828,317.160 185.534 C 313.540 180.298,306.669 177.539,299.644 178.502 M218.625 179.046 C 217.835 179.342,217.755 179.999,217.814 185.728 L 217.867 190.923 218.844 189.667 C 220.939 186.976,224.525 183.925,227.618 182.200 L 229.014 181.422 228.932 180.563 C 228.776 178.938,228.777 178.939,223.595 178.899 C 220.883 178.878,218.919 178.936,218.625 179.046 M305.821 186.615 C 308.358 187.811,309.801 190.022,310.465 193.733 L 310.569 194.311 302.307 194.311 C 294.839 194.311,294.044 194.284,294.044 194.026 C 294.044 191.704,296.384 187.923,298.489 186.841 C 300.658 185.727,303.734 185.632,305.821 186.615 " stroke="none" fill="#fbfbfb" fill-rule="evenodd"></path><path id="path2" d="M63.378 159.734 C 62.478 160.052,61.420 161.171,61.171 162.066 C 61.041 162.536,60.979 168.061,60.979 179.387 L 60.978 196.019 62.119 198.019 C 64.764 202.654,68.441 206.496,72.848 209.230 C 73.649 209.727,74.346 210.133,74.397 210.133 C 74.447 210.133,74.489 208.425,74.489 206.338 C 74.489 199.630,74.854 199.294,82.133 199.290 C 100.034 199.283,108.461 193.553,109.507 180.679 C 110.435 169.251,104.902 161.929,93.956 160.096 C 90.050 159.441,65.041 159.146,63.378 159.734 M89.485 170.744 C 94.116 171.762,96.240 174.719,95.940 179.733 C 95.527 186.622,92.002 188.623,80.280 188.622 C 74.033 188.621,74.489 189.355,74.489 179.286 C 74.489 171.219,74.496 171.157,75.513 170.575 C 76.187 170.189,87.589 170.327,89.485 170.744 M130.133 175.749 C 120.269 176.603,115.136 179.516,113.036 185.450 C 111.677 189.289,112.199 189.689,118.562 189.689 C 123.871 189.689,123.749 189.725,124.454 187.960 C 125.694 184.861,127.819 183.577,132.089 183.348 C 138.073 183.026,141.916 186.649,140.555 191.331 C 139.965 193.360,139.395 193.546,133.422 193.660 C 120.356 193.909,114.327 196.612,111.351 203.555 C 109.771 207.243,109.817 212.401,111.462 215.733 C 115.564 224.047,129.819 225.746,140.000 219.134 L 141.244 218.326 141.295 218.896 C 141.579 222.127,141.408 222.044,147.822 222.044 C 153.682 222.044,153.735 222.033,154.141 220.657 C 154.556 219.250,154.265 188.819,153.818 186.844 C 152.441 180.764,147.688 177.127,139.757 176.083 C 137.745 175.818,131.742 175.610,130.133 175.749 M158.844 176.977 C 158.453 177.121,158.115 177.240,158.093 177.242 C 157.944 177.252,157.511 178.378,157.511 178.756 C 157.511 179.010,158.958 183.154,160.727 187.965 C 170.222 213.795,171.628 217.599,172.035 218.568 C 173.423 221.876,173.226 223.533,171.091 226.533 C 170.365 227.553,170.497 227.585,172.406 226.849 C 178.570 224.471,185.646 217.957,190.038 210.615 C 191.134 208.782,190.866 209.459,194.702 198.844 C 202.586 177.029,202.351 177.806,201.297 177.115 C 200.580 176.646,191.143 176.637,190.288 177.105 C 189.152 177.726,188.955 178.187,184.266 191.132 C 181.738 198.112,179.624 203.878,179.568 203.946 C 179.512 204.015,177.473 198.375,175.036 191.413 C 170.435 178.270,170.264 177.868,169.012 177.198 C 168.043 176.680,160.118 176.508,158.844 176.977 M139.486 201.996 C 140.940 203.004,141.193 203.909,141.040 207.539 L 140.921 210.366 139.838 211.469 C 136.617 214.749,129.492 215.682,125.966 213.286 C 123.094 211.334,122.956 206.491,125.702 204.022 C 128.077 201.887,137.363 200.522,139.486 201.996 M60.978 211.920 C 60.978 223.116,60.251 222.044,67.843 222.044 L 73.239 222.044 73.819 221.526 L 74.400 221.007 74.400 216.456 L 74.400 211.905 72.444 211.060 C 68.948 209.549,65.608 207.446,62.806 204.991 C 61.905 204.202,61.125 203.556,61.073 203.556 C 61.020 203.556,60.978 207.320,60.978 211.920 M186.044 219.859 C 179.207 226.323,171.942 229.832,165.689 229.692 C 159.741 229.558,160.285 229.129,160.216 234.005 C 160.142 239.319,160.277 239.595,163.200 240.115 C 174.588 242.140,180.675 237.261,186.603 221.355 C 187.833 218.056,187.864 218.139,186.044 219.859 " stroke="none" fill="#343434" fill-rule="evenodd"></path><path id="path3" d="M264.663 177.906 C 264.978 177.945,265.538 177.946,265.907 177.908 C 266.276 177.869,266.018 177.837,265.333 177.836 C 264.649 177.835,264.347 177.867,264.663 177.906 M240.317 178.087 C 240.834 178.123,241.634 178.122,242.095 178.086 C 242.556 178.049,242.133 178.020,241.156 178.020 C 240.178 178.021,239.800 178.051,240.317 178.087 M249.867 181.156 C 250.249 181.547,250.601 181.867,250.650 181.867 C 250.699 181.867,250.426 181.547,250.044 181.156 C 249.663 180.764,249.310 180.444,249.261 180.444 C 249.212 180.444,249.485 180.764,249.867 181.156 M274.311 181.067 C 274.643 181.409,274.954 181.689,275.003 181.689 C 275.052 181.689,274.821 181.409,274.489 181.067 C 274.157 180.724,273.846 180.444,273.797 180.444 C 273.748 180.444,273.979 180.724,274.311 181.067 M288.971 183.689 L 288.089 184.622 289.022 183.740 C 289.536 183.255,289.956 182.835,289.956 182.807 C 289.956 182.674,289.791 182.822,288.971 183.689 M314.844 182.811 C 314.844 182.842,315.104 183.102,315.422 183.389 L 316.000 183.911 315.478 183.333 C 314.991 182.795,314.844 182.674,314.844 182.811 M222.122 186.178 L 221.600 186.756 222.178 186.233 C 222.716 185.747,222.837 185.600,222.700 185.600 C 222.669 185.600,222.409 185.860,222.122 186.178 M261.022 186.611 C 261.193 186.656,261.473 186.656,261.644 186.611 C 261.816 186.567,261.676 186.530,261.333 186.530 C 260.991 186.530,260.851 186.567,261.022 186.611 M240.000 187.256 C 240.000 187.286,240.260 187.546,240.578 187.833 L 241.156 188.356 240.633 187.778 C 240.147 187.239,240.000 187.118,240.000 187.256 M296.702 188.222 L 296.089 188.889 296.756 188.276 C 297.122 187.939,297.422 187.639,297.422 187.610 C 297.422 187.474,297.272 187.602,296.702 188.222 M307.378 187.611 C 307.378 187.642,307.638 187.902,307.956 188.189 L 308.533 188.711 308.011 188.133 C 307.524 187.595,307.378 187.474,307.378 187.611 M256.168 189.289 L 255.556 189.956 256.222 189.343 C 256.589 189.006,256.889 188.706,256.889 188.676 C 256.889 188.540,256.738 188.668,256.168 189.289 M278.129 204.622 C 278.129 211.613,278.151 214.473,278.178 210.978 C 278.205 207.482,278.205 201.762,278.178 198.267 C 278.151 194.771,278.129 197.631,278.129 204.622 M229.418 204.889 C 229.418 211.831,229.440 214.697,229.467 211.258 C 229.494 207.818,229.494 202.138,229.467 198.635 C 229.440 195.133,229.418 197.947,229.418 204.889 M320.930 196.622 C 320.930 196.964,320.967 197.104,321.011 196.933 C 321.056 196.762,321.056 196.482,321.011 196.311 C 320.967 196.140,320.930 196.280,320.930 196.622 M283.419 200.889 C 283.419 201.231,283.456 201.371,283.500 201.200 C 283.545 201.029,283.545 200.749,283.500 200.578 C 283.456 200.407,283.419 200.547,283.419 200.889 M296.711 208.800 C 297.043 209.142,297.354 209.422,297.403 209.422 C 297.452 209.422,297.221 209.142,296.889 208.800 C 296.557 208.458,296.246 208.178,296.197 208.178 C 296.148 208.178,296.379 208.458,296.711 208.800 M302.800 218.441 C 303.167 218.479,303.767 218.479,304.133 218.441 C 304.500 218.402,304.200 218.371,303.467 218.371 C 302.733 218.371,302.433 218.402,302.800 218.441 M245.655 218.977 C 246.858 219.008,248.778 219.008,249.921 218.977 C 251.065 218.946,250.080 218.921,247.733 218.921 C 245.387 218.921,244.451 218.947,245.655 218.977 " stroke="none" fill="#64dbdb" fill-rule="evenodd"></path><path id="path4" d="" stroke="none" fill="#64bcd0" fill-rule="evenodd"></path></g></svg>