<svg width="24" height="24" viewBox="0 0 24 24" fill="none" xmlns="http://www.w3.org/2000/svg">
<path d="M8.56965 3.7645C8.92549 3.7645 9.25336 3.95749 9.42611 4.26862L10.6243 6.42706C10.7812 6.70967 10.7886 7.0515 10.644 7.34063L9.48968 9.64938C9.48968 9.64938 9.82421 11.3692 11.2242 12.7693C12.6243 14.1693 14.3384 14.4981 14.3384 14.4981L16.6468 13.3439C16.9361 13.1992 17.2782 13.2067 17.5609 13.3639L19.7254 14.5673C20.0363 14.7402 20.229 15.0678 20.229 15.4235V17.9085C20.229 19.174 19.0536 20.088 17.8546 19.6833C15.3919 18.8524 11.5692 17.2703 9.14624 14.8473C6.72332 12.4244 5.14114 8.60166 4.31019 6.13901C3.9056 4.93994 4.81961 3.7645 6.08506 3.7645H8.56965Z" stroke="#CBCBDE" stroke-width="1.3" stroke-linejoin="round"/>
</svg>
