<svg width="64" height="65" viewBox="0 0 64 65" fill="none" xmlns="http://www.w3.org/2000/svg">
<g filter="url(#filter0_d_1942_8531)">
<path d="M12 12.74C12 8.32172 15.5817 4.74001 20 4.74001H44C48.4183 4.74001 52 8.32173 52 12.74V24.5V36.26C52 40.6783 48.4183 44.26 44 44.26H20C15.5817 44.26 12 40.6783 12 36.26V12.74Z" fill="#7487EB"/>
</g>
<mask id="mask0_1942_8531" style="mask-type:alpha" maskUnits="userSpaceOnUse" x="12" y="4" width="40" height="41">
<path d="M12 12.74C12 8.32172 15.5817 4.74001 20 4.74001H44C48.4183 4.74001 52 8.32173 52 12.74V24.5V36.26C52 40.6783 48.4183 44.26 44 44.26H20C15.5817 44.26 12 40.6783 12 36.26V12.74Z" fill="#FCBE49"/>
</mask>
<g mask="url(#mask0_1942_8531)">
<path d="M39.1936 28.8674C39.5042 28.1293 39.8875 27.4242 40.3379 26.7627L40.8368 26.0361C40.8871 25.935 40.9321 25.8313 40.9715 25.7255C41.1877 25.0807 40.1017 21 40.1017 21L36.674 24.0651L36.8553 25.6603C35.889 25.2127 35.0558 21.5763 34.6782 22.515C33.514 25.4281 34.2491 26.4738 34.6782 29.8028C34.8262 30.937 32.3698 48.3805 31.6413 51.8515C30.9129 55.3226 26 64.9889 26 64.9889L29.9333 70C29.9333 70 37.7068 55.969 38.1825 51.459C38.2323 50.9863 38.2872 50.2764 38.3488 49.3995L39.1936 28.8674Z" fill="#F7A491"/>
<path d="M32.8065 55.7523C30.7136 55.0963 31.0151 51.6176 31.0151 51.6176C32.526 40.9015 33.9721 31.2207 33.9721 31.2207C35.3235 30.469 40 31.8785 40 31.8785C39.1797 44.944 38.8589 52.1917 38.5364 53.0648C38.2139 53.9379 36.3384 56.8612 32.8065 55.7523Z" fill="#100062"/>
<path d="M38.981 26.2529C38.981 26.2529 38.6254 27.4329 37.663 27.029C37.0679 26.7886 36.5071 26.4416 36 26C36 26 36.5347 27.444 37.4638 27.8416C39.2845 28.6241 38.981 26.2529 38.981 26.2529Z" fill="#F47458"/>
<path d="M38.285 4.59408C37.6003 14.5019 34.4265 28.3435 29.055 40.868C28.3261 43.3427 35.0736 45.3451 35.8025 42.8637C36.6705 33.63 40.3722 17.7062 45.9381 6.60313C46.7619 3.42989 39.111 1.43414 38.285 4.59408Z" fill="#C98C53"/>
<path d="M33 38.9107C33.9166 32.5766 38.4703 11.2602 40.2184 3.15733C42.516 2.45427 46.5306 4.19633 45.9417 6.61475C40.7161 17.7546 37.2323 33.7313 36.4257 43C36.1271 40.3813 34.5967 39.2177 33 38.9107Z" fill="#E8B16B"/>
<path d="M32.9769 42C32.8558 39.9447 29.6037 39.6152 29 41.5069C29.4676 39.205 32.3329 30.7057 34.5265 22.5965C36.7201 14.4872 37.5767 6.28828 37.8105 4.51984C38.2973 3.23778 39.9467 2.86571 42 3.04054C41.8108 3.57174 32.9769 42 32.9769 42Z" fill="#F7CC7F"/>
<path d="M41 19.2291C39.779 22.0311 38.105 31 38.105 31C34.8825 31 33 29.1023 33 29.1023C34.6357 23.8931 35.7078 18.4114 35.8546 17.2703C37.6966 16.5901 39.9194 17.176 41 19.2291Z" fill="#FF3B3B"/>
<path d="M34.4238 19.0123C35.8672 18.729 40.908 23.4446 40.8516 24.1701C40.7952 24.8956 35.9039 21.9639 35.7348 22.4583C35.6025 22.8459 41.3417 24.508 40.9839 25.1913C40.7389 25.6633 35.7054 24.508 35.5412 24.8111C35.2962 25.2857 39.5675 25.3403 39.2171 25.8646C38.8152 26.4708 33 27 33 27C33 27 33.767 24.6968 33.6617 24.0707C33.6156 23.7166 33.6074 23.3584 33.6371 23.0024C33.6568 22.6571 33.5073 22.3589 33.5538 21.9713C33.7572 20.416 33.6249 19.1688 34.4238 19.0123Z" fill="#F7A491"/>
<path d="M38 20.2869L40.174 23L40.9981 21.8954C41.009 21.63 40.9727 21.3648 40.8909 21.1121C40.8071 20.8379 38.2695 19.3965 38 20.2869Z" fill="#F7A491"/>
<path d="M40.8041 24.2078C40.8666 23.5999 39.9182 24.2408 38.4716 27.265C37.4106 29.4838 38.4716 34 38.4716 34L41 25.8314L40.8041 24.2078Z" fill="#F7A491"/>
</g>
<defs>
<filter id="filter0_d_1942_8531" x="0" y="0.740005" width="64" height="63.52" filterUnits="userSpaceOnUse" color-interpolation-filters="sRGB">
<feFlood flood-opacity="0" result="BackgroundImageFix"/>
<feColorMatrix in="SourceAlpha" type="matrix" values="0 0 0 0 0 0 0 0 0 0 0 0 0 0 0 0 0 0 127 0" result="hardAlpha"/>
<feOffset dy="8"/>
<feGaussianBlur stdDeviation="6"/>
<feColorMatrix type="matrix" values="0 0 0 0 0.454902 0 0 0 0 0.529412 0 0 0 0 0.921569 0 0 0 0.2 0"/>
<feBlend mode="normal" in2="BackgroundImageFix" result="effect1_dropShadow_1942_8531"/>
<feBlend mode="normal" in="SourceGraphic" in2="effect1_dropShadow_1942_8531" result="shape"/>
</filter>
</defs>
</svg>
