<svg width="64" height="65" viewBox="0 0 64 65" fill="none" xmlns="http://www.w3.org/2000/svg">
<g filter="url(#filter0_d_1942_8508)">
<path d="M12 12.74C12 8.32172 15.5817 4.74001 20 4.74001H44C48.4183 4.74001 52 8.32173 52 12.74V24.5V36.26C52 40.6783 48.4183 44.26 44 44.26H20C15.5817 44.26 12 40.6783 12 36.26V12.74Z" fill="#FC4969"/>
</g>
<mask id="mask0_1942_8508" style="mask-type:alpha" maskUnits="userSpaceOnUse" x="12" y="4" width="40" height="41">
<path d="M12 12.74C12 8.32172 15.5817 4.74001 20 4.74001H44C48.4183 4.74001 52 8.32173 52 12.74V24.5V36.26C52 40.6783 48.4183 44.26 44 44.26H20C15.5817 44.26 12 40.6783 12 36.26V12.74Z" fill="#FCBE49"/>
</mask>
<g mask="url(#mask0_1942_8508)">
<path d="M48.6566 15C50.0694 15 51.4243 15.5609 52.4232 16.5592C53.4222 17.5576 53.9834 18.9117 53.9834 20.3236H43.3306C43.3306 18.9118 43.8917 17.5578 44.8905 16.5595C45.8893 15.5612 47.244 15.0002 48.6566 15V15Z" fill="#3C0A28"/>
<path d="M50.8477 14C52.5894 14 53.9961 15.4196 53.9961 17.1772V56.8194C53.9961 56.8194 53.5559 59.5331 51.642 58.1425C51.642 58.1425 51.642 58.8088 51.1444 58.8571H22.1963V16.2115H24.3878V14H50.8477Z" fill="url(#paint0_linear_1942_8508)"/>
<path d="M22.9609 16.7426V57.7658H51.0859C50.8658 57.3119 50.8754 56.7711 50.9328 56.3462C50.9902 55.9503 51.0859 55.6606 51.0859 55.6606H24.9801C24.6547 55.6606 24.3868 55.3902 24.3868 55.0618V16.2115C24.3294 16.2791 24.2624 16.337 24.1954 16.3853C23.6786 16.7909 22.9609 16.7426 22.9609 16.7426Z" fill="#FE4141"/>
<path opacity="0.2" d="M24.2051 16.395V55.8054C24.2051 56.0758 24.4157 56.2883 24.6836 56.2883L50.9426 56.3366C51 55.9406 51.0957 55.6509 51.0957 55.6509H24.9898C24.6645 55.6509 24.3965 55.3805 24.3965 55.0522V16.2115C24.3295 16.2791 24.2626 16.337 24.2051 16.395Z" fill="#E2E2E2"/>
<path d="M37.0283 43.8789C32.8953 43.8789 29.5449 39.6807 29.5449 34.5019C29.5449 29.3232 32.8953 25.1249 37.0283 25.1249C41.1613 25.1249 44.5117 29.3232 44.5117 34.5019C44.5117 39.6807 41.1613 43.8789 37.0283 43.8789Z" fill="url(#paint1_linear_1942_8508)"/>
<path d="M28.5683 53.9706H46.0806V53.8354C46.0806 52.2613 47.3438 50.9865 48.9036 50.9865H49.0376V19.4176H48.9036C47.3438 19.4176 46.0806 18.1429 46.0806 16.5688V16.4336H28.5683V16.5688C28.5683 18.1429 27.3051 19.4176 25.7452 19.4176H25.6112V50.9769H25.7452C27.3051 50.9769 28.5683 52.2516 28.5683 53.8257V53.9706ZM45.8126 53.6905H28.8362C28.7692 52.0778 27.4773 50.7741 25.8792 50.7065V19.688C27.4773 19.6204 28.7692 18.3167 28.8362 16.704H45.8126C45.8796 18.3167 47.1715 19.6204 48.7696 19.688V50.7065C47.1715 50.7838 45.8892 52.0778 45.8126 53.6905Z" fill="url(#paint2_linear_1942_8508)"/>
<path opacity="0.21" d="M49.4685 14H51.0859V55.6606H49.4685V14Z" fill="url(#paint3_linear_1942_8508)"/>
<path d="M28.0028 18.3236C28.0031 17.0435 28.4647 15.8064 29.3033 14.8387C30.1418 13.8711 31.301 13.2377 32.5687 13.0545V13H46.1338C45.4342 12.9999 44.7415 13.1375 44.0951 13.405C43.4487 13.6725 42.8614 14.0646 42.3667 14.559C41.872 15.0533 41.4796 15.6402 41.2118 16.2861C40.9441 16.9321 40.8063 17.6244 40.8063 18.3236V37.8418L34.4746 31.9161L28.0028 37.8418V18.3236Z" fill="#882461"/>
<path d="M40.8063 18.3236H27.999C27.9994 17.0429 28.4616 15.8053 29.3009 14.8376C30.1402 13.8699 31.3003 13.2369 32.5687 13.0545V13H46.1338C45.4342 12.9999 44.7415 13.1375 44.0951 13.405C43.4487 13.6725 42.8614 14.0646 42.3667 14.559C41.872 15.0533 41.4796 15.6402 41.2118 16.2861C40.9441 16.9321 40.8063 17.6244 40.8063 18.3236Z" fill="#A05081"/>
<path d="M36.447 29.828C36.6542 29.8299 36.8566 29.7654 37.0244 29.644C37.345 29.4114 37.4905 29.0047 37.4139 28.5556L37.1358 26.9363C37.1352 26.8015 37.178 26.6701 37.2578 26.5615L38.4332 25.4216C38.7591 25.1043 38.8811 24.6892 38.7583 24.3128C38.6356 23.9364 38.2938 23.6728 37.8436 23.6069L36.2196 23.3714C36.0909 23.3304 35.9788 23.2491 35.8998 23.1396L35.1738 21.6688C34.9722 21.2606 34.6153 21.0167 34.2189 21.0167C33.8226 21.0167 33.4664 21.2606 33.2648 21.6688L32.5381 23.1396C32.4595 23.2492 32.3476 23.3305 32.219 23.3714L30.5973 23.6039C30.1426 23.6698 29.8046 23.9334 29.6818 24.3098C29.5591 24.6862 29.6818 25.1012 30.0077 25.4186L31.1823 26.5637C31.2615 26.6717 31.3035 26.8025 31.3021 26.9363L31.0247 28.5526C30.9489 29.0017 31.0929 29.4084 31.4135 29.6409C31.734 29.8734 32.166 29.8863 32.5692 29.6742L34.0219 28.9108C34.1501 28.8684 34.2885 28.8684 34.4167 28.9108L35.8687 29.6742C36.0461 29.7716 36.2446 29.8244 36.447 29.828ZM36.7205 24.9725L36.1999 25.4792C35.984 25.7051 35.8218 25.9766 35.7252 26.2737C35.6287 26.5708 35.6003 26.8858 35.6421 27.1954L35.7649 27.9111L35.1215 27.5733C34.84 27.4376 34.5315 27.3671 34.2189 27.3671C33.9064 27.3671 33.5979 27.4376 33.3164 27.5733L32.673 27.9111L32.795 27.1954C32.8372 26.8859 32.809 26.5709 32.7124 26.2739C32.6158 25.9769 32.4534 25.7055 32.2372 25.4799L31.7166 24.9725L32.4365 24.868C32.744 24.8123 33.035 24.6881 33.2879 24.5045C33.5407 24.3209 33.7489 24.0827 33.8969 23.8077L34.2182 23.1563L34.5403 23.8077C34.6883 24.0827 34.8964 24.3209 35.1493 24.5045C35.4021 24.6881 35.6931 24.8123 36.0006 24.868L36.7205 24.9725ZM34.494 22.0013L33.812 22.3368L34.494 22.0013Z" fill="#E1AD36"/>
</g>
<defs>
<filter id="filter0_d_1942_8508" x="0" y="0.740005" width="64" height="63.52" filterUnits="userSpaceOnUse" color-interpolation-filters="sRGB">
<feFlood flood-opacity="0" result="BackgroundImageFix"/>
<feColorMatrix in="SourceAlpha" type="matrix" values="0 0 0 0 0 0 0 0 0 0 0 0 0 0 0 0 0 0 127 0" result="hardAlpha"/>
<feOffset dy="8"/>
<feGaussianBlur stdDeviation="6"/>
<feColorMatrix type="matrix" values="0 0 0 0 0.988235 0 0 0 0 0.286275 0 0 0 0 0.411765 0 0 0 0.2 0"/>
<feBlend mode="normal" in2="BackgroundImageFix" result="effect1_dropShadow_1942_8508"/>
<feBlend mode="normal" in="SourceGraphic" in2="effect1_dropShadow_1942_8508" result="shape"/>
</filter>
<linearGradient id="paint0_linear_1942_8508" x1="53.9961" y1="36.4343" x2="22.1982" y2="36.4343" gradientUnits="userSpaceOnUse">
<stop stop-color="#FF4242"/>
<stop offset="1" stop-color="#E00000"/>
</linearGradient>
<linearGradient id="paint1_linear_1942_8508" x1="42.8495" y1="28.2616" x2="31.0926" y2="40.6274" gradientUnits="userSpaceOnUse">
<stop stop-color="#FFCA03"/>
<stop offset="1" stop-color="#FF9000"/>
</linearGradient>
<linearGradient id="paint2_linear_1942_8508" x1="49.0435" y1="35.2013" x2="25.6132" y2="35.2013" gradientUnits="userSpaceOnUse">
<stop stop-color="#FFCA03"/>
<stop offset="1" stop-color="#FF9000"/>
</linearGradient>
<linearGradient id="paint3_linear_1942_8508" x1="53.1293" y1="34.8299" x2="49.554" y2="34.8299" gradientUnits="userSpaceOnUse">
<stop/>
<stop offset="1" stop-color="white"/>
</linearGradient>
</defs>
</svg>
