<svg width="32" height="32" viewBox="0 0 32 32" fill="none" xmlns="http://www.w3.org/2000/svg">
<rect y="4.57143" width="32" height="22.8571" rx="2" fill="white"/>
<mask id="mask0_1911_35623" style="mask-type:alpha" maskUnits="userSpaceOnUse" x="0" y="4" width="32" height="24">
<rect y="4.57143" width="32" height="22.8571" rx="2" fill="white"/>
</mask>
<g mask="url(#mask0_1911_35623)">
<path fill-rule="evenodd" clip-rule="evenodd" d="M32 4.57143H0V6.09524H32V4.57143ZM32 7.61905H0V9.14286H32V7.61905ZM0 10.6667H32V12.1905H0V10.6667ZM32 13.7143H0V15.2381H32V13.7143ZM0 16.7619H32V18.2857H0V16.7619ZM32 19.8095H0V21.3333H32V19.8095ZM0 22.8571H32V24.381H0V22.8571ZM32 25.9048H0V27.4286H32V25.9048Z" fill="#D02F44"/>
<rect y="4.57143" width="13.7143" height="10.6667" fill="#46467F"/>
<g filter="url(#filter0_d_1911_35623)">
<path fill-rule="evenodd" clip-rule="evenodd" d="M3.04761 6.85715C3.04761 7.27794 2.7065 7.61906 2.28571 7.61906C1.86492 7.61906 1.5238 7.27794 1.5238 6.85715C1.5238 6.43636 1.86492 6.09525 2.28571 6.09525C2.7065 6.09525 3.04761 6.43636 3.04761 6.85715ZM6.09523 6.85715C6.09523 7.27794 5.75412 7.61906 5.33333 7.61906C4.91254 7.61906 4.57142 7.27794 4.57142 6.85715C4.57142 6.43636 4.91254 6.09525 5.33333 6.09525C5.75412 6.09525 6.09523 6.43636 6.09523 6.85715ZM8.38095 7.61906C8.80174 7.61906 9.14285 7.27794 9.14285 6.85715C9.14285 6.43636 8.80174 6.09525 8.38095 6.09525C7.96016 6.09525 7.61904 6.43636 7.61904 6.85715C7.61904 7.27794 7.96016 7.61906 8.38095 7.61906ZM12.1905 6.85715C12.1905 7.27794 11.8494 7.61906 11.4286 7.61906C11.0078 7.61906 10.6667 7.27794 10.6667 6.85715C10.6667 6.43636 11.0078 6.09525 11.4286 6.09525C11.8494 6.09525 12.1905 6.43636 12.1905 6.85715ZM3.80952 9.14287C4.23031 9.14287 4.57142 8.80175 4.57142 8.38096C4.57142 7.96017 4.23031 7.61906 3.80952 7.61906C3.38873 7.61906 3.04761 7.96017 3.04761 8.38096C3.04761 8.80175 3.38873 9.14287 3.80952 9.14287ZM7.61904 8.38096C7.61904 8.80175 7.27793 9.14287 6.85714 9.14287C6.43635 9.14287 6.09523 8.80175 6.09523 8.38096C6.09523 7.96017 6.43635 7.61906 6.85714 7.61906C7.27793 7.61906 7.61904 7.96017 7.61904 8.38096ZM9.90476 9.14287C10.3255 9.14287 10.6667 8.80175 10.6667 8.38096C10.6667 7.96017 10.3255 7.61906 9.90476 7.61906C9.48397 7.61906 9.14285 7.96017 9.14285 8.38096C9.14285 8.80175 9.48397 9.14287 9.90476 9.14287ZM12.1905 9.90477C12.1905 10.3256 11.8494 10.6667 11.4286 10.6667C11.0078 10.6667 10.6667 10.3256 10.6667 9.90477C10.6667 9.48398 11.0078 9.14287 11.4286 9.14287C11.8494 9.14287 12.1905 9.48398 12.1905 9.90477ZM8.38095 10.6667C8.80174 10.6667 9.14285 10.3256 9.14285 9.90477C9.14285 9.48398 8.80174 9.14287 8.38095 9.14287C7.96016 9.14287 7.61904 9.48398 7.61904 9.90477C7.61904 10.3256 7.96016 10.6667 8.38095 10.6667ZM6.09523 9.90477C6.09523 10.3256 5.75412 10.6667 5.33333 10.6667C4.91254 10.6667 4.57142 10.3256 4.57142 9.90477C4.57142 9.48398 4.91254 9.14287 5.33333 9.14287C5.75412 9.14287 6.09523 9.48398 6.09523 9.90477ZM2.28571 10.6667C2.7065 10.6667 3.04761 10.3256 3.04761 9.90477C3.04761 9.48398 2.7065 9.14287 2.28571 9.14287C1.86492 9.14287 1.5238 9.48398 1.5238 9.90477C1.5238 10.3256 1.86492 10.6667 2.28571 10.6667ZM4.57142 11.4286C4.57142 11.8494 4.23031 12.1905 3.80952 12.1905C3.38873 12.1905 3.04761 11.8494 3.04761 11.4286C3.04761 11.0078 3.38873 10.6667 3.80952 10.6667C4.23031 10.6667 4.57142 11.0078 4.57142 11.4286ZM6.85714 12.1905C7.27793 12.1905 7.61904 11.8494 7.61904 11.4286C7.61904 11.0078 7.27793 10.6667 6.85714 10.6667C6.43635 10.6667 6.09523 11.0078 6.09523 11.4286C6.09523 11.8494 6.43635 12.1905 6.85714 12.1905ZM10.6667 11.4286C10.6667 11.8494 10.3255 12.1905 9.90476 12.1905C9.48397 12.1905 9.14285 11.8494 9.14285 11.4286C9.14285 11.0078 9.48397 10.6667 9.90476 10.6667C10.3255 10.6667 10.6667 11.0078 10.6667 11.4286ZM11.4286 13.7143C11.8494 13.7143 12.1905 13.3732 12.1905 12.9524C12.1905 12.5316 11.8494 12.1905 11.4286 12.1905C11.0078 12.1905 10.6667 12.5316 10.6667 12.9524C10.6667 13.3732 11.0078 13.7143 11.4286 13.7143ZM9.14285 12.9524C9.14285 13.3732 8.80174 13.7143 8.38095 13.7143C7.96016 13.7143 7.61904 13.3732 7.61904 12.9524C7.61904 12.5316 7.96016 12.1905 8.38095 12.1905C8.80174 12.1905 9.14285 12.5316 9.14285 12.9524ZM5.33333 13.7143C5.75412 13.7143 6.09523 13.3732 6.09523 12.9524C6.09523 12.5316 5.75412 12.1905 5.33333 12.1905C4.91254 12.1905 4.57142 12.5316 4.57142 12.9524C4.57142 13.3732 4.91254 13.7143 5.33333 13.7143ZM3.04761 12.9524C3.04761 13.3732 2.7065 13.7143 2.28571 13.7143C1.86492 13.7143 1.5238 13.3732 1.5238 12.9524C1.5238 12.5316 1.86492 12.1905 2.28571 12.1905C2.7065 12.1905 3.04761 12.5316 3.04761 12.9524Z" fill="url(#paint0_linear_1911_35623)"/>
</g>
</g>
<defs>
<filter id="filter0_d_1911_35623" x="1.5238" y="6.09525" width="10.6666" height="8.61905" filterUnits="userSpaceOnUse" color-interpolation-filters="sRGB">
<feFlood flood-opacity="0" result="BackgroundImageFix"/>
<feColorMatrix in="SourceAlpha" type="matrix" values="0 0 0 0 0 0 0 0 0 0 0 0 0 0 0 0 0 0 127 0" result="hardAlpha"/>
<feOffset dy="1"/>
<feColorMatrix type="matrix" values="0 0 0 0 0 0 0 0 0 0 0 0 0 0 0 0 0 0 0.06 0"/>
<feBlend mode="normal" in2="BackgroundImageFix" result="effect1_dropShadow_1911_35623"/>
<feBlend mode="normal" in="SourceGraphic" in2="effect1_dropShadow_1911_35623" result="shape"/>
</filter>
<linearGradient id="paint0_linear_1911_35623" x1="1.5238" y1="6.09525" x2="1.5238" y2="13.7143" gradientUnits="userSpaceOnUse">
<stop stop-color="white"/>
<stop offset="1" stop-color="#F0F0F0"/>
</linearGradient>
</defs>
</svg>
