<svg width="64" height="65" viewBox="0 0 64 65" fill="none" xmlns="http://www.w3.org/2000/svg">
<g filter="url(#filter0_d_1942_8570)">
<path d="M12 12.74C12 8.32172 15.5817 4.74001 20 4.74001H44C48.4183 4.74001 52 8.32173 52 12.74V24.5V36.26C52 40.6783 48.4183 44.26 44 44.26H20C15.5817 44.26 12 40.6783 12 36.26V12.74Z" fill="#F45A5A"/>
</g>
<mask id="mask0_1942_8570" style="mask-type:alpha" maskUnits="userSpaceOnUse" x="12" y="4" width="40" height="41">
<path d="M12 12.74C12 8.32172 15.5817 4.74001 20 4.74001H44C48.4183 4.74001 52 8.32173 52 12.74V24.5V36.26C52 40.6783 48.4183 44.26 44 44.26H20C15.5817 44.26 12 40.6783 12 36.26V12.74Z" fill="#FCBE49"/>
</mask>
<g mask="url(#mask0_1942_8570)">
<g opacity="0.2">
<path opacity="0.2" d="M46.856 27.4292C46.9729 27.3734 47.0922 27.3065 47.1893 27.2347C47.9652 26.7182 48.423 25.795 48.3311 24.8329C48.3197 24.7257 48.3058 24.6296 48.2832 24.5201C48.0419 23.4438 47.1755 22.6728 46.1399 22.5161C46.0178 22.4894 45.8908 22.4849 45.7528 22.4779L44.3204 16.0009C44.129 15.1217 43.6882 14.4787 43.3348 14.5526C43.0417 14.6164 42.9116 15.1578 42.9841 15.8365C42.9155 15.9378 42.8492 16.028 42.7805 16.1292C41.7331 17.6213 40.4928 18.9316 38.9918 19.9988C38.8381 20.1163 38.6734 20.2315 38.5197 20.3491C36.1918 22.1657 33.5563 23.3685 30.7248 24.1912L30.7987 24.1724L30.7248 24.1912L22.6347 25.98C22.1939 26.0813 21.9254 26.511 22.0156 26.9494L22.4484 28.9048L22.5923 29.5759L22.4484 28.9048L22.2157 28.9586L22.1172 28.9836C21.9583 29.0186 21.864 29.184 21.8904 29.3293L21.9455 29.6089L22.0343 30.0005L22.1207 30.4031L22.1595 30.5977L22.1983 30.7923L22.2847 31.1949L22.3759 31.5754L22.4311 31.8549C22.4661 32.0138 22.618 32.1168 22.7768 32.0818L22.8753 32.0568L22.9849 32.0343L23.1081 32.003L23.0692 31.8085L23.1105 31.9919L23.5433 33.9474C23.6446 34.3882 24.0743 34.6566 24.5127 34.5664L25.7477 34.29L28.4974 33.6821L25.7477 34.29L25.9118 34.7097L26.8499 37.0664L29.406 43.5101L29.5912 43.9925C29.687 44.2461 29.8441 44.4316 29.9537 44.4091L30.126 44.3654L33.1552 43.7023L33.3744 43.6572L33.3768 43.6461C33.767 43.5105 34.0386 43.2791 33.9911 43.0711C33.9436 42.863 33.5846 42.7495 33.1424 42.804L33.0425 42.41L31.4409 36.5472L31.8817 36.4459C32.1255 36.3946 32.2788 36.1723 32.2313 35.9642C32.1838 35.7561 32.1401 35.5837 32.1401 35.5837L31.666 33.4449L31.6424 33.021L31.0428 33.1573L31.6424 33.021L32.6694 32.7921L32.7186 32.7796C35.6372 32.197 38.5793 32.0382 41.5201 32.5768C41.7112 32.607 41.9134 32.6396 42.102 32.6809C43.7491 32.9132 45.3022 33.4158 46.7734 34.133C46.8796 34.1795 46.9833 34.2371 47.0783 34.2811C47.3058 34.8891 47.6374 35.2873 47.9169 35.2321C48.2703 35.1583 48.3935 34.3828 48.202 33.5036L46.856 27.4292ZM46.3694 25.2411L46.3757 25.2657L46.6684 26.5857L46.3757 25.2657L45.844 22.8584L46.3694 25.2411ZM44.508 22.7987L44.7082 23.6915L44.508 22.7987L43.0719 16.286C43.0594 16.2367 43.058 16.1899 43.0455 16.1407C43.058 16.1899 43.0594 16.2367 43.0719 16.286L44.508 22.7987ZM46.9313 33.7838L45.9116 29.1415L46.9313 33.7838C46.9437 33.833 46.9538 33.8934 46.9774 33.9451C46.9538 33.8934 46.9413 33.8441 46.9313 33.7838Z" fill="black"/>
<path opacity="0.2" d="M51.7401 7.01779L49.1752 10.6085L49.7277 11.8574L51.7401 7.01779Z" fill="black"/>
<path opacity="0.2" d="M48.6845 9.50106L46.6722 14.3407L49.2259 10.7476L48.6845 9.50106Z" fill="black"/>
<path opacity="0.2" d="M59.889 32.7108L51.0511 32.3358L58.2492 34.3058L59.889 32.7108Z" fill="black"/>
<path opacity="0.2" d="M55.5748 13.8344L49.2442 20.0203L55.6095 16.1213L55.5748 13.8344Z" fill="black"/>
<path opacity="0.2" d="M56.3782 24.5697L50.1503 26.0333L55.5413 26.0031L56.3782 24.5697Z" fill="black"/>
</g>
<path d="M45.744 22.4876L46.352 25.2373L46.3582 25.2619L46.7141 25.177L48.3136 24.8291C48.3022 24.7219 48.2883 24.6259 48.2658 24.5163C48.0244 23.44 47.158 22.669 46.1224 22.5123C46.009 22.4991 45.8734 22.4811 45.744 22.4876Z" fill="#F2F2F2"/>
<path d="M46.3584 25.2619L46.8388 27.4254C46.9556 27.3696 47.075 27.3026 47.1832 27.2333C47.959 26.7169 48.4168 25.7936 48.3249 24.8315L46.7254 25.1794L46.3584 25.2619Z" fill="#C1C1C1"/>
<path d="M21.8952 29.3304L21.9503 29.6099L22.0391 30.0015L22.1255 30.4042L22.1643 30.5987L22.4439 30.5436L22.5535 30.5211L22.7862 30.4673L22.4508 28.917L22.2181 28.9707L22.1196 28.9957C21.9632 29.0196 21.8577 29.1826 21.8952 29.3304Z" fill="#F2F2F2"/>
<path d="M22.1756 30.6012L22.2144 30.7957L22.3008 31.1984L22.392 31.5789L22.4472 31.8584C22.4822 32.0173 22.6341 32.1203 22.7929 32.0852L22.8914 32.0603L23.1242 32.0065L23.0441 31.6285L22.7864 30.4673L22.5536 30.5211L22.444 30.5436L22.1756 30.6012Z" fill="#C1C1C1"/>
<path d="M31.7446 28.4845L32.6904 32.7734C35.609 32.1908 38.5511 32.0319 41.4918 32.5706C41.6829 32.6007 41.8851 32.6333 42.0738 32.6746C43.7209 32.907 45.274 33.4096 46.7452 34.1268C46.8513 34.1733 46.955 34.2309 47.0612 34.2773C47.0015 34.1247 46.9554 33.9635 46.9141 33.78L45.5667 27.6588L45.1013 25.5335L44.8686 25.5872L43.3047 25.9313L31.7446 28.4845Z" fill="#E8E8E8"/>
<path d="M30.7272 24.2033L30.8011 24.1846L31.7469 28.4734L43.2934 25.9288L44.8573 25.5848L45.09 25.531L44.4883 22.806L43.0521 16.2933C43.0147 16.1455 43.0018 15.9915 42.9866 15.8487C42.9179 15.9499 42.8516 16.0401 42.783 16.1414C41.7355 17.6334 40.4953 18.9437 38.9942 20.0109C38.8406 20.1285 38.6758 20.2436 38.5222 20.3612C36.1807 22.1865 33.5452 23.3893 30.7272 24.2033Z" fill="white"/>
<path fill-rule="evenodd" clip-rule="evenodd" d="M25.4014 29.8881L31.4757 28.5421L31.7442 28.4845L32.69 32.7734L32.6407 32.7859L31.6137 33.0148L30.5757 33.2413L29.1214 33.5628L25.7857 34.2984L24.5506 34.5748C24.1098 34.6761 23.6825 34.3965 23.5812 33.9557L23.1484 32.0003L22.7995 30.4586L25.4014 29.8881Z" fill="#B74432"/>
<path fill-rule="evenodd" clip-rule="evenodd" d="M31.7445 28.4845L31.476 28.5421L25.4017 29.8881L22.7998 30.4586L22.4509 28.917L22.0181 26.9616C21.9168 26.5207 22.1963 26.0935 22.6371 25.9922L30.7272 24.2033L30.8011 24.1846L31.7445 28.4845Z" fill="#FF4527"/>
<path opacity="0.2" fill-rule="evenodd" clip-rule="evenodd" d="M22.5646 30.5235L22.9024 32.0627L23.1351 32.0089L22.7973 30.4697L22.5646 30.5235Z" fill="black"/>
<path opacity="0.2" fill-rule="evenodd" clip-rule="evenodd" d="M22.2179 28.9707L22.5557 30.51L22.5644 30.5235L22.7971 30.4697L22.7995 30.4586L22.4506 28.917L22.2179 28.9707Z" fill="black"/>
<path fill-rule="evenodd" clip-rule="evenodd" d="M45.5642 27.6699L45.0988 25.5446L45.6 25.4332L46.3696 25.2643L46.8499 27.4278L48.1935 33.5133C48.3849 34.3925 48.2642 35.1569 47.9084 35.2419C47.6264 35.3081 47.2973 34.8989 47.0698 34.2909C47.0101 34.1383 46.964 33.977 46.9227 33.7935L45.5642 27.6699Z" fill="#B74634"/>
<path fill-rule="evenodd" clip-rule="evenodd" d="M45.5888 25.4308L45.0876 25.5421L44.4883 22.806L43.0546 16.2822C43.0171 16.1344 43.0043 15.9805 42.9866 15.8487C42.9141 15.1699 43.0553 14.6309 43.3373 14.5647C43.6907 14.4908 44.1315 15.1339 44.3229 16.0131L45.7553 22.4901L46.3695 25.2643L45.5888 25.4308Z" fill="#FF4527"/>
<path opacity="0.2" fill-rule="evenodd" clip-rule="evenodd" d="M42.7831 16.1414C42.7994 16.2263 42.8157 16.3113 42.832 16.3963L44.2682 22.909L44.8661 25.5983L44.8786 25.6476L45.344 27.7729L46.6914 33.8941C46.7077 33.9791 46.7264 34.0529 46.7563 34.1292C46.8624 34.1757 46.9661 34.2333 47.0722 34.2798C47.0126 34.1272 46.9664 33.9659 46.9252 33.7824L45.5778 27.6613L45.1123 25.5359L44.4884 22.806L43.0522 16.2933C43.0148 16.1455 43.002 15.9915 42.9867 15.8487C42.9069 15.9475 42.8518 16.0401 42.7831 16.1414Z" fill="black"/>
<path opacity="0.2" fill-rule="evenodd" clip-rule="evenodd" d="M46.3522 25.2373L46.3585 25.2619L46.8388 27.4254C46.9557 27.3696 47.075 27.3026 47.1832 27.2333L46.7254 25.1794L46.7192 25.1547L46.3522 25.2373Z" fill="black"/>
<path opacity="0.2" fill-rule="evenodd" clip-rule="evenodd" d="M45.7442 22.4876L46.3522 25.2373L46.7056 25.1634L46.1202 22.5234C46.0092 22.4991 45.8736 22.4811 45.7442 22.4876Z" fill="black"/>
<path d="M30.5733 33.2524L30.6881 33.6845L31.2843 35.8501L31.4788 36.5556L31.9197 36.4543C32.1635 36.403 32.3168 36.1806 32.2693 35.9725C32.2217 35.7644 32.1781 35.5921 32.1781 35.5921L31.715 33.4556L31.6249 33.0172L30.5733 33.2524Z" fill="#EA5B0C"/>
<path d="M25.7725 34.307L25.9365 34.7267L26.8747 37.0834L29.4307 43.5271L29.616 44.0095C29.7117 44.2631 29.8688 44.4486 29.9784 44.4261L30.1508 44.3824L33.1799 43.7193L33.3991 43.6742L33.4016 43.6631C33.7918 43.5275 34.0633 43.2962 34.0158 43.0881C33.9683 42.88 33.6093 42.7665 33.1671 42.821L33.0672 42.427L31.4792 36.5556L31.2846 35.8501L30.6884 33.6845L30.5736 33.2524L29.1194 33.5739L25.7725 34.307Z" fill="#3A3939"/>
<path opacity="0.2" fill-rule="evenodd" clip-rule="evenodd" d="M25.7725 34.307L25.9477 34.7291L29.2724 33.9911L30.6909 33.6734L30.7266 33.6696L31.7154 33.4556L31.6252 33.0172L30.5737 33.2524L29.1194 33.5739L25.7725 34.307Z" fill="black"/>
<path d="M21.9616 29.6124L21.9679 29.637L22.0417 29.9904L22.1267 29.9741C22.2117 29.9578 22.2755 29.8787 22.2838 29.7875C22.2862 29.7764 22.2862 29.7764 22.2776 29.7629C22.28 29.7518 22.2824 29.7407 22.2713 29.7383C22.255 29.6533 22.176 29.5895 22.0847 29.5812C22.0736 29.5787 22.049 29.585 22.0379 29.5825L21.9616 29.6124Z" fill="#706F6F"/>
<path d="M22.1369 30.4066L22.1431 30.4312L22.1782 30.5901L22.217 30.7847L22.302 30.7684C22.387 30.7521 22.4508 30.673 22.4591 30.5818C22.4615 30.5707 22.4615 30.5707 22.4529 30.5571C22.4553 30.546 22.4577 30.5349 22.4466 30.5325C22.4192 30.4451 22.3512 30.3837 22.26 30.3754C22.2489 30.373 22.2243 30.3792 22.2132 30.3768L22.1369 30.4066Z" fill="#706F6F"/>
<path d="M22.3117 31.2009L22.318 31.2255L22.3918 31.5789L22.4657 31.5602C22.5507 31.5439 22.6145 31.4648 22.6228 31.3736C22.6252 31.3625 22.6252 31.3625 22.6166 31.349C22.619 31.3379 22.6214 31.3268 22.6103 31.3243C22.594 31.2394 22.515 31.1755 22.4237 31.1672C22.4126 31.1648 22.388 31.171 22.3769 31.1686L22.3117 31.2009Z" fill="#706F6F"/>
<path d="M21.9675 29.637L22.0413 29.9904L22.1263 29.9741C22.2113 29.9578 22.2751 29.8787 22.2834 29.7875C22.2859 29.7764 22.2859 29.7764 22.2772 29.7629C22.2498 29.6755 22.1818 29.6141 22.0906 29.6058C22.0795 29.6034 22.0549 29.6096 22.0438 29.6072L21.9675 29.637Z" fill="#9D9D9C"/>
<path d="M22.1428 30.4312L22.1778 30.5901L22.2166 30.7846L22.3016 30.7683C22.3866 30.752 22.4504 30.673 22.4587 30.5817C22.4612 30.5706 22.4612 30.5706 22.4525 30.5571C22.4251 30.4697 22.3571 30.4083 22.2659 30.4C22.2548 30.3976 22.2302 30.4038 22.2191 30.4014L22.1428 30.4312Z" fill="#9D9D9C"/>
<path d="M22.3151 31.2366L22.389 31.59L22.4629 31.5713C22.5478 31.555 22.6117 31.4759 22.62 31.3847C22.6224 31.3736 22.6224 31.3736 22.6137 31.36C22.5863 31.2726 22.5184 31.2112 22.4272 31.2029C22.4161 31.2005 22.3914 31.2067 22.3803 31.2043L22.3151 31.2366Z" fill="#9D9D9C"/>
<path d="M49.1552 10.6158L51.7225 7.01399L49.7102 11.8536L49.1552 10.6158Z" fill="white"/>
<path d="M49.2088 10.7438L46.6526 14.348L48.6539 9.50592L49.2088 10.7438Z" fill="white"/>
<path d="M58.2316 34.302L51.0336 32.332L59.8714 32.707L58.2316 34.302Z" fill="white"/>
<path d="M55.59 16.1286L49.2247 20.0276L55.5578 13.8305L55.59 16.1286Z" fill="white"/>
<path d="M55.5238 25.9993L50.1327 26.0295L56.3607 24.5659L55.5238 25.9993Z" fill="white"/>
</g>
<defs>
<filter id="filter0_d_1942_8570" x="0" y="0.740005" width="64" height="63.52" filterUnits="userSpaceOnUse" color-interpolation-filters="sRGB">
<feFlood flood-opacity="0" result="BackgroundImageFix"/>
<feColorMatrix in="SourceAlpha" type="matrix" values="0 0 0 0 0 0 0 0 0 0 0 0 0 0 0 0 0 0 127 0" result="hardAlpha"/>
<feOffset dy="8"/>
<feGaussianBlur stdDeviation="6"/>
<feColorMatrix type="matrix" values="0 0 0 0 0.956863 0 0 0 0 0.352941 0 0 0 0 0.352941 0 0 0 0.2 0"/>
<feBlend mode="normal" in2="BackgroundImageFix" result="effect1_dropShadow_1942_8570"/>
<feBlend mode="normal" in="SourceGraphic" in2="effect1_dropShadow_1942_8570" result="shape"/>
</filter>
</defs>
</svg>
