<svg width="33" height="32" viewBox="0 0 33 32" fill="none" xmlns="http://www.w3.org/2000/svg">
<rect x="0.75" y="4.82143" width="31.5" height="22.3571" rx="1.75" fill="white" stroke="#F5F5F5" stroke-width="0.5"/>
<mask id="mask0_1911_35609" style="mask-type:alpha" maskUnits="userSpaceOnUse" x="0" y="4" width="33" height="24">
<rect x="0.75" y="4.82143" width="31.5" height="22.3571" rx="1.75" fill="white" stroke="white" stroke-width="0.5"/>
</mask>
<g mask="url(#mask0_1911_35609)">
<path fill-rule="evenodd" clip-rule="evenodd" d="M0.5 12.1905H32.5V4.57143H0.5V12.1905Z" fill="#04AAC8"/>
<path fill-rule="evenodd" clip-rule="evenodd" d="M0.5 27.4286H32.5V19.8095H0.5V27.4286Z" fill="#23C840"/>
<path fill-rule="evenodd" clip-rule="evenodd" d="M5.83332 10.2857C6.30336 10.2857 6.74025 10.1439 7.10352 9.9006C7.06143 9.90337 7.01897 9.90479 6.97618 9.90479C5.92421 9.90479 5.07142 9.052 5.07142 8.00002C5.07142 6.94805 5.92421 6.09526 6.97618 6.09526C7.01897 6.09526 7.06143 6.09667 7.10352 6.09945C6.74025 5.85619 6.30336 5.71431 5.83332 5.71431C4.57096 5.71431 3.54761 6.73766 3.54761 8.00002C3.54761 9.26239 4.57096 10.2857 5.83332 10.2857ZM9.64285 9.90476C9.64285 10.3256 9.30173 10.6667 8.88094 10.6667C8.46015 10.6667 8.11904 10.3256 8.11904 9.90476C8.11904 9.48397 8.46015 9.14286 8.88094 9.14286C9.30173 9.14286 9.64285 9.48397 9.64285 9.90476ZM11.9286 7.61905C12.3493 7.61905 12.6905 7.27793 12.6905 6.85714C12.6905 6.43636 12.3493 6.09524 11.9286 6.09524C11.5078 6.09524 11.1667 6.43636 11.1667 6.85714C11.1667 7.27793 11.5078 7.61905 11.9286 7.61905ZM15.7381 6.85714C15.7381 7.27793 15.397 7.61905 14.9762 7.61905C14.5554 7.61905 14.2143 7.27793 14.2143 6.85714C14.2143 6.43636 14.5554 6.09524 14.9762 6.09524C15.397 6.09524 15.7381 6.43636 15.7381 6.85714ZM14.9762 10.6667C15.397 10.6667 15.7381 10.3256 15.7381 9.90476C15.7381 9.48397 15.397 9.14286 14.9762 9.14286C14.5554 9.14286 14.2143 9.48397 14.2143 9.90476C14.2143 10.3256 14.5554 10.6667 14.9762 10.6667ZM12.6905 9.90476C12.6905 10.3256 12.3493 10.6667 11.9286 10.6667C11.5078 10.6667 11.1667 10.3256 11.1667 9.90476C11.1667 9.48397 11.5078 9.14286 11.9286 9.14286C12.3493 9.14286 12.6905 9.48397 12.6905 9.90476Z" fill="white"/>
</g>
</svg>
