<svg width="64" height="65" viewBox="0 0 64 65" fill="none" xmlns="http://www.w3.org/2000/svg">
<g filter="url(#filter0_d_1942_9430)">
<path d="M12 12.74C12 8.32172 15.5817 4.74001 20 4.74001H44C48.4183 4.74001 52 8.32173 52 12.74V24.5V36.26C52 40.6783 48.4183 44.26 44 44.26H20C15.5817 44.26 12 40.6783 12 36.26V12.74Z" fill="#49A6FC"/>
</g>
<mask id="mask0_1942_9430" style="mask-type:alpha" maskUnits="userSpaceOnUse" x="12" y="4" width="40" height="41">
<path d="M12 12.74C12 8.32172 15.5817 4.74001 20 4.74001H44C48.4183 4.74001 52 8.32173 52 12.74V24.5V36.26C52 40.6783 48.4183 44.26 44 44.26H20C15.5817 44.26 12 40.6783 12 36.26V12.74Z" fill="#FCBE49"/>
</mask>
<g mask="url(#mask0_1942_9430)">
<path d="M34.5906 33.9453C33.7483 34.3039 32.7723 33.879 32.4712 33.0055C32.3941 32.782 32.3206 32.5687 32.2572 32.3519C32.0465 31.6746 31.9141 31.027 31.8567 30.3991C31.8029 29.7813 31.8169 29.1628 31.9059 28.5639C31.9949 27.965 32.1652 27.3381 32.3964 26.6902C32.5646 26.1891 32.7159 25.7051 32.8504 25.2382C32.9849 24.7714 33.0687 24.3221 33.1118 23.8868C33.1651 23.4479 33.1641 23.0165 33.1088 22.5923C33.0636 22.1647 32.9404 21.7413 32.7558 21.3049C31.8927 19.2956 30.8116 18.566 29.506 19.1297C29.2793 19.2306 29.0601 19.3857 28.8755 19.6084C28.6773 19.8245 28.5375 20.1113 28.4492 20.4486C28.3609 20.7858 28.3378 21.1802 28.3763 21.6215L28.3798 21.6316C28.4676 22.5786 27.9331 23.4674 27.0739 23.8432L25.8155 24.3792C24.5505 24.929 23.0849 24.1388 22.8738 22.7683C22.8227 22.4223 22.7888 22.0931 22.7786 21.767C22.7574 20.6834 22.9375 19.6895 23.3158 18.8091C23.7042 17.9251 24.2636 17.1414 25.0009 16.4781C25.7347 15.8047 26.6124 15.2521 27.6305 14.8102C28.7467 14.3232 29.8041 14.0609 30.8159 13.9962C31.8277 13.9315 32.7736 14.0714 33.64 14.409C34.5065 14.7467 35.307 15.2889 36.0078 16.036C36.7187 16.7796 37.3161 17.7214 37.8171 18.8783C38.1582 19.6698 38.3528 20.4322 38.4113 21.1621C38.4732 21.9021 38.45 22.6261 38.3417 23.3338C38.237 24.0518 38.0642 24.7704 37.8337 25.4863C37.6067 26.2123 37.3492 26.9488 37.1089 27.7021C36.9741 28.1349 36.8966 28.5366 36.8532 28.938C36.8163 29.3257 36.817 29.7232 36.8583 30.1067C36.9031 30.5003 36.9854 30.9038 37.1153 31.3136L37.1188 31.3237C37.3509 32.096 36.9719 32.9085 36.2311 33.232L34.5906 33.9453ZM35.0265 40.352C34.8559 39.9562 34.7635 39.5563 34.7527 39.1622C34.7419 38.7682 34.806 38.3939 34.9349 38.0426C35.074 37.6878 35.2813 37.3663 35.557 37.0781C35.8428 36.7864 36.1902 36.5416 36.6165 36.3606C37.0529 36.1761 37.4731 36.0767 37.8808 36.0725C38.2885 36.0683 38.6663 36.1426 39.0211 36.2817C39.3657 36.4242 39.6872 36.6316 39.9688 36.9209C40.2468 37.2001 40.4779 37.5409 40.6485 37.9366C40.819 38.3324 40.9114 38.7324 40.9222 39.1264C40.9331 39.5204 40.8724 39.9049 40.7435 40.2562C40.608 40.6211 40.4006 40.9426 40.1214 41.2206C39.8356 41.5123 39.4745 41.7505 39.0381 41.935C38.6119 42.116 38.2018 42.2119 37.7976 42.2263C37.3935 42.2406 37.0156 42.1663 36.6573 42.0171C36.3092 41.8644 35.9877 41.657 35.7062 41.3677C35.418 41.092 35.197 40.7477 35.0265 40.352Z" fill="#F5A42A"/>
<path d="M34.0119 34.1448C33.1696 34.5034 32.1936 34.0785 31.8924 33.205C31.8154 32.9815 31.7419 32.7682 31.6785 32.5515C31.4677 31.8741 31.3354 31.2265 31.278 30.5986C31.2241 29.9808 31.2382 29.3623 31.3272 28.7634C31.4162 28.1645 31.5865 27.5376 31.8177 26.8898C31.9858 26.3886 32.1372 25.9046 32.2717 25.4378C32.4062 24.9709 32.49 24.5216 32.5331 24.0863C32.5864 23.6474 32.5853 23.216 32.53 22.7918C32.4849 22.3642 32.3617 21.9408 32.1771 21.5044C31.314 19.4951 30.2228 18.769 28.9171 19.3327C28.6905 19.4336 28.4712 19.5887 28.2866 19.8114C28.0884 20.0275 27.9486 20.3143 27.8603 20.6516C27.7721 20.9888 27.7489 21.3832 27.7874 21.8245L27.7909 21.8346C27.8787 22.7816 27.3442 23.6705 26.4851 24.0462L25.2368 24.5788C23.9616 25.132 22.496 24.3418 22.2849 22.9713C22.2338 22.6253 22.1999 22.2961 22.1898 21.97C22.165 20.8763 22.3451 19.8824 22.7234 19.0019C23.1255 18.1247 23.6849 17.3409 24.4222 16.6776C25.156 16.0042 26.0337 15.4517 27.0518 15.0098C28.168 14.5227 29.2254 14.2605 30.2372 14.1958C31.249 14.1311 32.1949 14.2709 33.0613 14.6086C33.9278 14.9463 34.7283 15.4885 35.429 16.2356C36.1399 16.9791 36.7373 17.9209 37.2384 19.0778C37.5795 19.8693 37.7741 20.6318 37.8325 21.3616C37.8945 22.1017 37.8713 22.8256 37.763 23.5334C37.6582 24.2513 37.4855 24.97 37.255 25.6858C37.028 26.4118 36.7705 27.1483 36.5302 27.9016C36.3953 28.3345 36.3179 28.7362 36.2744 29.1375C36.2376 29.5252 36.2383 29.9227 36.2796 30.3062C36.3244 30.6999 36.4067 31.1033 36.5366 31.5131L36.5401 31.5233C36.7722 32.2955 36.3932 33.108 35.6524 33.4316L34.0119 34.1448ZM34.4376 40.555C34.2671 40.1592 34.1746 39.7593 34.1638 39.3653C34.153 38.9713 34.2171 38.5969 34.346 38.2456C34.4851 37.8909 34.6925 37.5694 34.9681 37.2812C35.2539 36.9894 35.6014 36.7447 36.0276 36.5636C36.464 36.3791 36.8843 36.2797 37.2919 36.2755C37.6996 36.2713 38.0775 36.3456 38.4322 36.4847C38.7768 36.6273 39.0983 36.8346 39.3799 37.1239C39.6579 37.4031 39.8891 37.7439 40.0596 38.1396C40.2301 38.5354 40.3225 38.9354 40.3334 39.3294C40.3442 39.7234 40.2836 40.1079 40.1546 40.4592C40.0191 40.8241 39.8117 41.1456 39.5326 41.4236C39.2468 41.7154 38.8857 41.9535 38.4493 42.138C38.023 42.319 37.6129 42.415 37.2087 42.4293C36.8046 42.4436 36.4267 42.3693 36.0684 42.2201C35.7203 42.0674 35.3988 41.86 35.1173 41.5707C34.8392 41.2916 34.6081 40.9508 34.4376 40.555Z" fill="#FED32C"/>
<path d="M24.5175 18.0085C24.5638 17.8789 24.3624 17.7893 24.2853 17.8954C23.8598 18.4739 23.5683 19.2108 23.3 19.8828C23.0649 20.4866 22.8845 21.117 22.9387 21.7687C22.9783 22.3119 23.1845 22.8772 23.6163 23.2397C23.9007 23.4713 24.3475 23.6468 24.6505 23.3719C24.6673 23.3547 24.6635 23.3106 24.6361 23.2973C24.1178 23.1123 23.7431 23.0142 23.4962 22.4629C23.2634 21.9523 23.2813 21.3779 23.3948 20.8501C23.6222 19.8286 24.2148 18.9765 24.5175 18.0085Z" fill="#FFE47A"/>
<path d="M37.0211 41.0281C36.2482 40.8627 35.6742 40.5492 35.3808 39.764C35.1045 38.9955 35.2804 38.2531 35.7154 37.6031C35.7589 37.5313 35.6969 37.4504 35.6226 37.4987C34.0798 38.4624 35.1694 41.6891 37.0407 41.2827C37.1696 41.261 37.1335 41.0575 37.0211 41.0281Z" fill="#FFE47A"/>
<path d="M35.1944 37.913C35.4213 37.5455 35.7016 37.24 36.0308 37.006C36.3502 36.7673 36.6945 36.6004 37.0684 36.5197C37.4327 36.4343 37.8218 36.4207 38.2212 36.4839C38.6207 36.5471 39.0308 36.711 39.4225 36.9617C39.8143 37.2123 40.1295 37.4974 40.3588 37.8362C40.5928 38.1653 40.7406 38.5242 40.826 38.8885C40.9067 39.2624 40.901 39.6421 40.8281 40.0368C40.7553 40.4316 40.5958 40.808 40.3642 41.1851C40.1373 41.5526 39.857 41.8582 39.5325 42.0825C39.213 42.3212 38.8735 42.4784 38.4996 42.5591C38.1353 42.6446 37.7462 42.6581 37.3515 42.5853C36.9567 42.5125 36.5563 42.3532 36.1742 42.1072C35.7728 41.8519 35.4576 41.5668 35.2139 41.233C34.9799 40.9038 34.8177 40.5499 34.742 40.1903C34.6613 39.8164 34.6623 39.4464 34.7351 39.0517C34.8033 38.6666 34.9531 38.2855 35.1944 37.913ZM41.0728 34.3598C39.975 33.6695 39.6337 32.2364 40.2853 31.1198L47.9597 18.0683C48.6493 16.8985 50.1686 16.5274 51.3099 17.2509L52.1514 17.7804C53.2927 18.5039 53.6207 20.0381 52.849 21.1559L44.3428 33.6825C43.6186 34.7518 42.1706 35.0501 41.0728 34.3598Z" fill="#F5A42A"/>
<path d="M34.7212 37.6824C34.9481 37.3149 35.2285 37.0093 35.5576 36.7753C35.8771 36.5366 36.2213 36.3698 36.5953 36.2891C36.9596 36.2036 37.3486 36.1901 37.7481 36.2532C38.1475 36.3164 38.5576 36.4804 38.9494 36.7311C39.3411 36.9817 39.6563 37.2668 39.8856 37.6056C40.1196 37.9347 40.2675 38.2936 40.3529 38.6579C40.4336 39.0318 40.4278 39.4115 40.355 39.8062C40.2821 40.2009 40.1226 40.5773 39.8911 40.9545C39.6642 41.322 39.3838 41.6275 39.0594 41.8519C38.7399 42.0906 38.4004 42.2478 38.0264 42.3285C37.6621 42.4139 37.2731 42.4275 36.8783 42.3547C36.4836 42.2818 36.0832 42.1226 35.7011 41.8766C35.2996 41.6212 34.9844 41.3362 34.7408 41.0023C34.5068 40.6732 34.3446 40.3193 34.2688 39.9597C34.1881 39.5858 34.1892 39.2158 34.262 38.821C34.3301 38.4359 34.48 38.0548 34.7212 37.6824ZM40.6093 34.1339C39.5116 33.4436 39.1702 32.0105 39.8218 30.8939L47.4962 17.8424C48.1858 16.6726 49.7051 16.3015 50.8465 17.0249L51.6879 17.5545C52.8292 18.2779 53.1572 19.8121 52.3855 20.9299L43.8793 33.4566C43.1454 34.5212 41.6974 34.8195 40.6093 34.1339Z" fill="#FED32C"/>
<path d="M36.1071 40.7C35.6624 39.9694 35.4998 39.1014 35.9387 38.3234C36.3728 37.555 37.1299 37.3502 37.9204 37.1259C37.9491 37.116 37.963 37.063 37.9244 37.0442C37.042 36.7457 36.0398 37.4046 35.615 38.1537C35.1241 39.014 35.2223 40.1613 35.8785 40.8994C35.9857 41.0472 36.1903 40.8481 36.1071 40.7Z" fill="#FFE47A"/>
<path d="M50.0407 17.6482C48.6473 17.1723 47.9282 18.7461 47.3372 19.689C46.8456 20.4772 46.349 21.2511 45.8574 22.0393C45.3563 22.8468 44.7686 23.636 44.369 24.505C44.3361 24.5726 44.4329 24.6437 44.4755 24.5808C45.4152 23.4372 46.1313 22.0413 46.9209 20.7888C47.337 20.1311 47.7385 19.4543 48.1689 18.7916C48.642 18.0661 49.1284 17.7055 50.013 17.7542C50.0707 17.7584 50.0937 17.662 50.0407 17.6482Z" fill="#FFE47A"/>
</g>
<defs>
<filter id="filter0_d_1942_9430" x="0" y="0.740005" width="64" height="63.52" filterUnits="userSpaceOnUse" color-interpolation-filters="sRGB">
<feFlood flood-opacity="0" result="BackgroundImageFix"/>
<feColorMatrix in="SourceAlpha" type="matrix" values="0 0 0 0 0 0 0 0 0 0 0 0 0 0 0 0 0 0 127 0" result="hardAlpha"/>
<feOffset dy="8"/>
<feGaussianBlur stdDeviation="6"/>
<feColorMatrix type="matrix" values="0 0 0 0 0.286275 0 0 0 0 0.65098 0 0 0 0 0.988235 0 0 0 0.2 0"/>
<feBlend mode="normal" in2="BackgroundImageFix" result="effect1_dropShadow_1942_9430"/>
<feBlend mode="normal" in="SourceGraphic" in2="effect1_dropShadow_1942_9430" result="shape"/>
</filter>
</defs>
</svg>
