<svg width="24" height="24" viewBox="0 0 24 24" fill="none" xmlns="http://www.w3.org/2000/svg">
<path d="M5 21.9995C4.44771 21.9995 4 21.5518 4 20.9995V2.99951C4 2.44723 4.44771 1.99951 5 1.99951H19C19.5523 1.99951 20 2.44723 20 2.99951V20.9995C20 21.5518 19.5523 21.9995 19 21.9995H5Z" fill="#3445CB"/>
<path fill-rule="evenodd" clip-rule="evenodd" d="M5 2.74951C4.86193 2.74951 4.75 2.86144 4.75 2.99951V20.9995C4.75 21.1376 4.86192 21.2495 5 21.2495H19C19.1381 21.2495 19.25 21.1376 19.25 20.9995V2.99951C19.25 2.86143 19.1381 2.74951 19 2.74951H5ZM3.25 2.99951C3.25 2.03301 4.0335 1.24951 5 1.24951H19C19.9665 1.24951 20.75 2.03302 20.75 2.99951V20.9995C20.75 21.966 19.9665 22.7495 19 22.7495H5C4.03351 22.7495 3.25 21.966 3.25 20.9995V2.99951Z" fill="#3445CB"/>
<path fill-rule="evenodd" clip-rule="evenodd" d="M10.5 10.9995V1.99951H16.5V10.9995L13.5 7.86316L10.5 10.9995Z" fill="white"/>
<path fill-rule="evenodd" clip-rule="evenodd" d="M9.75 1.99951C9.75 1.5853 10.0858 1.24951 10.5 1.24951H16.5C16.9142 1.24951 17.25 1.5853 17.25 1.99951V10.9995C17.25 11.3059 17.0636 11.5815 16.7793 11.6956C16.495 11.8097 16.1698 11.7393 15.958 11.5179L13.5 8.94819L11.042 11.5179C10.8302 11.7393 10.505 11.8097 10.2207 11.6956C9.93636 11.5815 9.75 11.3059 9.75 10.9995V1.99951ZM11.25 2.74951V9.13039L12.958 7.34474C13.0995 7.19682 13.2953 7.11316 13.5 7.11316C13.7047 7.11316 13.9005 7.19682 14.042 7.34474L15.75 9.13039V2.74951H11.25Z" fill="white"/>
<path fill-rule="evenodd" clip-rule="evenodd" d="M4.18359 1.62451C4.18359 1.4174 4.52338 1.24951 4.94254 1.24951H19.1095C19.5287 1.24951 19.8685 1.4174 19.8685 1.62451C19.8685 1.83162 19.5287 1.99951 19.1095 1.99951H4.94254C4.52338 1.99951 4.18359 1.83162 4.18359 1.62451Z" fill="#3445CB"/>
</svg>
