<svg width="30" height="30" viewBox="0 0 30 30" fill="none" xmlns="http://www.w3.org/2000/svg">
<g filter="url(#filter0_d_1750_8726)">
<path d="M7.5 8.99951V20.9995H22.5V8.99951L15 2.99951L7.5 8.99951Z" fill="#3445CB"/>
<path fill-rule="evenodd" clip-rule="evenodd" d="M14.5315 2.41386C14.8054 2.19473 15.1946 2.19473 15.4685 2.41386L25.4685 10.4139C25.792 10.6726 25.8444 11.1446 25.5857 11.468C25.3269 11.7915 24.8549 11.8439 24.5315 11.5852L23.25 10.56V20.9995C23.25 21.4137 22.9142 21.7495 22.5 21.7495H7.5C7.08579 21.7495 6.75 21.4137 6.75 20.9995V10.56L5.46852 11.5852C5.14508 11.8439 4.67311 11.7915 4.41435 11.468C4.15559 11.1446 4.20803 10.6726 4.53148 10.4139L7.03148 8.41386C7.03152 8.41383 7.03144 8.4139 7.03148 8.41386L14.5315 2.41386ZM8.25 9.35998L15 3.95998L21.75 9.35998V20.2495H8.25V9.35998Z" fill="#3445CB"/>
<path d="M12.5 14.4995V20.9995H17.5V14.4995H12.5Z" fill="white"/>
<path fill-rule="evenodd" clip-rule="evenodd" d="M11.75 14.4995C11.75 14.0853 12.0858 13.7495 12.5 13.7495H17.5C17.9142 13.7495 18.25 14.0853 18.25 14.4995V20.9995C18.25 21.4137 17.9142 21.7495 17.5 21.7495H12.5C12.0858 21.7495 11.75 21.4137 11.75 20.9995V14.4995ZM13.25 15.2495V20.2495H16.75V15.2495H13.25Z" fill="white"/>
<path fill-rule="evenodd" clip-rule="evenodd" d="M6.75 20.9995C6.75 20.5853 7.08579 20.2495 7.5 20.2495H22.5C22.9142 20.2495 23.25 20.5853 23.25 20.9995C23.25 21.4137 22.9142 21.7495 22.5 21.7495H7.5C7.08579 21.7495 6.75 21.4137 6.75 20.9995Z" fill="#3445CB"/>
</g>
<defs>
<filter id="filter0_d_1750_8726" x="-1" y="-0.000488281" width="32" height="32" filterUnits="userSpaceOnUse" color-interpolation-filters="sRGB">
<feFlood flood-opacity="0" result="BackgroundImageFix"/>
<feColorMatrix in="SourceAlpha" type="matrix" values="0 0 0 0 0 0 0 0 0 0 0 0 0 0 0 0 0 0 127 0" result="hardAlpha"/>
<feOffset dy="4"/>
<feGaussianBlur stdDeviation="2"/>
<feComposite in2="hardAlpha" operator="out"/>
<feColorMatrix type="matrix" values="0 0 0 0 0 0 0 0 0 0 0 0 0 0 0 0 0 0 0.25 0"/>
<feBlend mode="normal" in2="BackgroundImageFix" result="effect1_dropShadow_1750_8726"/>
<feBlend mode="normal" in="SourceGraphic" in2="effect1_dropShadow_1750_8726" result="shape"/>
</filter>
</defs>
</svg>
