<svg width="12" height="13" viewBox="0 0 12 13" fill="none" xmlns="http://www.w3.org/2000/svg">
<path d="M1 3.47857L6 5.25L11 3.47857L6 1.75L1 3.47857Z" fill="#CBCBDE"/>
<path fill-rule="evenodd" clip-rule="evenodd" d="M5.87747 1.39558C5.95685 1.36814 6.04315 1.36814 6.12253 1.39558L11.1225 3.12416C11.2731 3.17622 11.3744 3.31779 11.375 3.47714C11.3756 3.6365 11.2754 3.77883 11.1252 3.83205L6.12523 5.60347C6.04421 5.63218 5.95579 5.63218 5.87477 5.60347L0.87477 3.83205C0.724564 3.77883 0.624394 3.6365 0.625003 3.47714C0.625611 3.31779 0.726864 3.17622 0.877472 3.12416L5.87747 1.39558ZM2.13517 3.48291L6 4.85216L9.86483 3.48291L6 2.14678L2.13517 3.48291Z" fill="#CBCBDE"/>
<path fill-rule="evenodd" clip-rule="evenodd" d="M0.646073 5.37601C0.714491 5.18053 0.928422 5.07752 1.1239 5.14594L6.00002 6.85258L10.8761 5.14594C11.0716 5.07752 11.2855 5.18053 11.354 5.37601C11.4224 5.57149 11.3194 5.78542 11.1239 5.85384L6.1239 7.60384C6.0437 7.63191 5.95634 7.63191 5.87614 7.60384L0.876139 5.85384C0.680659 5.78542 0.577655 5.57149 0.646073 5.37601Z" fill="#CBCBDE"/>
<path fill-rule="evenodd" clip-rule="evenodd" d="M0.646073 7.37622C0.714491 7.18074 0.928422 7.07774 1.1239 7.14616L6.00002 8.8528L10.8761 7.14616C11.0716 7.07774 11.2855 7.18074 11.354 7.37622C11.4224 7.5717 11.3194 7.78563 11.1239 7.85405L6.1239 9.60405C6.0437 9.63212 5.95634 9.63212 5.87614 9.60405L0.876139 7.85405C0.680659 7.78563 0.577655 7.5717 0.646073 7.37622Z" fill="#CBCBDE"/>
<path fill-rule="evenodd" clip-rule="evenodd" d="M0.646073 9.37601C0.714491 9.18053 0.928422 9.07752 1.1239 9.14594L6.00002 10.8526L10.8761 9.14594C11.0716 9.07752 11.2855 9.18053 11.354 9.37601C11.4224 9.57149 11.3194 9.78542 11.1239 9.85384L6.1239 11.6038C6.0437 11.6319 5.95634 11.6319 5.87614 11.6038L0.876139 9.85384C0.680659 9.78542 0.577655 9.57149 0.646073 9.37601Z" fill="#CBCBDE"/>
</svg>
