<svg width="126" height="32" viewBox="0 0 126 32" fill="none" xmlns="http://www.w3.org/2000/svg">
<path d="M15.9937 29.2875C23.3294 29.2875 29.2761 23.3385 29.2761 16C29.2761 8.66151 23.3294 2.71249 15.9937 2.71249C8.65811 2.71249 2.71141 8.66151 2.71141 16C2.71141 23.3385 8.65811 29.2875 15.9937 29.2875Z" fill="white"/>
<path fill-rule="evenodd" clip-rule="evenodd" d="M15.9938 0C24.8212 0 31.9875 7.15734 31.9875 16C31.9875 24.8309 24.8212 32 15.9938 32C7.15455 32 0 24.8309 0 16C0 7.15734 7.15455 0 15.9938 0ZM15.9938 3.66916C22.7959 3.66916 28.3198 9.19524 28.3198 16C28.3198 22.8048 22.7959 28.3308 15.9938 28.3308C9.19166 28.3308 3.66774 22.8048 3.66774 16C3.66774 9.19524 9.19166 3.66916 15.9938 3.66916Z" fill="#111E6C"/>
<path fill-rule="evenodd" clip-rule="evenodd" d="M12.467 12.359C12.467 12.359 12.4952 12.4155 12.5375 12.4719C12.5939 12.5142 12.6761 12.5565 12.7607 12.5424C12.8453 12.5424 12.944 12.5001 13.0003 12.4437C13.0426 12.4014 13.0567 12.359 13.0849 12.2744C13.1131 12.1757 13.1695 12.0488 13.2682 11.9501C13.3528 11.8537 13.4914 11.7832 13.6183 11.7409C13.7593 11.7127 13.9002 11.7127 14.013 11.7268C14.1376 11.755 14.2362 11.7973 14.3067 11.8396C14.3913 11.8654 14.4477 11.9077 14.4759 11.936C14.5041 11.9642 14.5182 11.9924 14.5041 11.9924C14.49 11.9924 14.4336 11.9642 14.3631 11.9501C14.2926 11.9218 14.1939 11.9077 14.0976 11.8936C13.9848 11.8795 13.8721 11.8795 13.7452 11.9077C13.6183 11.936 13.4914 11.9783 13.4068 12.0488C13.3105 12.1193 13.24 12.2039 13.2118 12.2603C13.1695 12.3167 13.1131 12.3731 13.1272 12.4014C13.1413 12.4155 13.2118 12.4719 13.2682 12.5001C13.3387 12.5424 13.4491 12.5847 13.5619 12.627C13.6747 12.6529 13.8439 12.6529 13.9848 12.6388C14.1258 12.627 14.2926 12.5847 14.4054 12.5283C14.5323 12.4719 14.5464 12.359 14.6028 12.3308C14.6592 12.3026 14.7015 12.3167 14.7297 12.3308C14.772 12.3308 14.8001 12.359 14.8142 12.3731C14.8424 12.3731 14.8424 12.3731 14.8424 12.3167C14.8424 12.2744 14.8283 12.1898 14.786 12.0911C14.7438 11.9924 14.6733 11.8654 14.7297 11.8654C14.772 11.8537 14.9106 11.9642 15.0234 12.0629C15.122 12.1757 15.1643 12.2744 15.1784 12.4296C15.2771 13.4403 15.2489 12.2321 15.2489 12.0911C15.2489 11.9642 15.2912 11.936 15.3053 11.9077C15.3053 11.8795 15.2771 11.8654 15.2066 11.8255C15.1502 11.7973 15.0375 11.7409 14.9106 11.6703C14.786 11.5857 14.6451 11.487 14.5182 11.4306C14.3772 11.3742 14.2644 11.3601 14.0976 11.3601C13.9284 11.3742 13.717 11.3883 13.5478 11.487C13.3786 11.5575 13.24 11.7127 13.1413 11.8537C13.0426 12.0065 12.9862 12.1616 12.9299 12.2603C12.8735 12.3731 12.8312 12.4155 12.7607 12.4437C12.6902 12.4578 12.6056 12.4437 12.5516 12.4155C12.4952 12.4014 12.467 12.359 12.467 12.359ZM21.9946 18.1225C21.8819 18.5879 21.7573 19.4459 21.5318 20.2874C21.2921 21.1171 20.9561 21.9327 20.4063 22.5791C19.8589 23.2138 19.0999 23.6768 18.5525 23.9589C18.0027 24.2245 17.6667 24.3091 17.7794 24.4501C17.8922 24.5912 18.482 24.7745 19.2127 24.9273C19.9575 25.0965 20.8433 25.2376 21.6164 25.2234C22.3753 25.2234 23.0073 25.0824 23.5548 24.7604C24.0881 24.4501 24.5252 23.9871 24.9739 23.3806C25.4251 22.7766 25.8738 22.0314 26.2122 21.3568C26.5482 20.6822 26.7737 20.0782 26.9147 19.6128C27.0698 19.1638 27.1262 18.8676 27.098 18.7149C27.0557 18.5597 26.9147 18.5456 26.7456 18.7008C26.5905 18.8535 26.4072 19.192 26.2968 19.2484C26.1981 19.2907 26.1699 19.0651 26.0994 18.9099C26.0289 18.7548 25.902 18.6867 25.747 19.0933C25.5942 19.5023 25.3969 20.3861 25.0726 21.1735C24.7366 21.9609 24.2573 22.6637 23.9354 23.0022C23.6112 23.3266 23.442 23.2984 23.4843 23.1291C23.5407 22.9599 23.7944 22.6778 24.0623 22.2148C24.3278 21.7517 24.6239 21.1312 24.8494 20.4566C25.0726 19.7961 25.2277 19.0933 25.2418 18.7008C25.27 18.3059 25.1431 18.2212 25.0162 18.2071C24.9035 18.1789 24.7648 18.2212 24.6239 18.1789C24.4829 18.1366 24.3137 18.0097 24.2009 18.0379C24.0905 18.0802 24.0341 18.2636 23.879 18.3059C23.7381 18.3623 23.5125 18.2495 23.3574 18.1225C23.2047 17.9956 23.1201 17.8569 23.0073 17.8569C22.9086 17.8569 22.7959 17.9956 22.7254 18.0379C22.6549 18.0661 22.6267 17.9956 22.5703 17.8992C22.5163 17.8005 22.4317 17.7018 22.333 17.6736C22.2343 17.6313 22.1074 17.6736 21.9946 18.1225ZM22.6267 20.372C22.474 20.6963 22.192 21.4133 21.896 22.0032C21.5882 22.5932 21.2639 23.0727 20.9843 23.423C20.7165 23.7755 20.4909 23.9871 20.3922 24.0975C20.2935 24.2245 20.3217 24.2386 20.3781 24.2386C20.4486 24.2245 20.5614 24.1822 20.7729 24.0012C20.9843 23.8178 21.2921 23.4935 21.56 23.1573C21.8255 22.8048 22.051 22.4263 22.2343 22.0738C22.4176 21.7094 22.5445 21.3709 22.6267 21.0466C22.7254 20.7387 22.7818 20.4566 22.7959 20.2874C22.81 20.1205 22.7818 20.05 22.6267 20.372ZM10.1197 18.1366C10.1056 18.3764 10.0351 18.7149 10.1056 19.2484C10.1761 19.7679 10.3852 20.4848 10.8223 21.1876C11.2428 21.8904 11.8749 22.5791 12.9299 23.2561C13.9989 23.9307 15.4886 24.5912 16.8091 24.9837C18.1154 25.3927 19.255 25.5478 20.0703 25.6301C20.8856 25.7288 21.3626 25.757 21.5177 25.8981C21.6868 26.0532 21.5177 26.307 21.0666 26.5868C20.6178 26.8547 19.887 27.1626 18.8885 27.3883C17.8781 27.6139 16.6117 27.755 15.263 27.6562C13.9143 27.5575 12.4811 27.1908 11.1583 26.5585C9.83778 25.9263 8.60188 25.0119 7.70198 24.1258C6.78799 23.2279 6.19824 22.3699 5.77531 21.5402C5.34063 20.7104 5.05868 19.9371 5.04458 19.5422C5.01638 19.1638 5.27014 19.1638 5.46751 19.2061C5.67897 19.2343 5.8176 19.3048 5.91628 19.3189C6.00087 19.333 6.01497 19.2907 6.05726 19.3048C6.09955 19.3189 6.15594 19.3895 6.22643 19.5845C6.31102 19.7961 6.3956 20.1346 6.52013 20.4425C6.66111 20.7387 6.84438 20.9925 6.88667 20.9361C6.94306 20.8656 6.85848 20.4707 6.78799 20.1205C6.7175 19.7679 6.66111 19.46 6.66111 19.2061C6.66111 18.9382 6.7175 18.729 6.78799 18.6443C6.85848 18.5597 6.94306 18.6161 7.01355 18.6443C7.08404 18.6725 7.12633 18.6866 7.18272 18.602C7.23911 18.5174 7.30725 18.3482 7.42003 18.2353C7.51871 18.1366 7.65969 18.0943 7.78657 18.193C7.89935 18.2777 7.99803 18.5033 8.12256 18.8112C8.23534 19.1356 8.36222 19.5422 8.58779 20.1064C8.8251 20.6822 9.14934 21.4274 9.48769 21.9891C9.82368 22.565 10.1761 22.974 10.2748 23.0163C10.357 23.0586 10.2043 22.7342 10.0069 22.2571C9.79548 21.794 9.55817 21.1876 9.4031 20.6117C9.23393 20.0359 9.14934 19.4741 9.17754 19.0369C9.20573 18.602 9.34671 18.2777 9.51588 18.0661C9.6827 17.8569 9.89417 17.7723 10.0069 17.7864C10.1338 17.8005 10.1479 17.9133 10.1197 18.1366ZM11.4684 24.6053C11.8208 24.7886 12.5375 25.2517 13.2964 25.5901C14.0553 25.9263 14.8706 26.1378 15.6578 26.2929C16.4449 26.4598 17.2155 26.5727 17.7513 26.6573C18.2705 26.7419 18.5525 26.7842 18.6089 26.8547C18.6512 26.9252 18.4679 26.9957 18.045 27.0381C17.6244 27.0663 16.95 27.0522 16.2193 26.9675C15.5027 26.8829 14.7156 26.7419 13.9989 26.488C13.2682 26.2224 12.6197 25.8557 12.1427 25.5196C11.6799 25.1811 11.3979 24.885 11.2569 24.6899C11.116 24.4924 11.116 24.4078 11.4684 24.6053ZM11.4543 17.8851C11.2851 17.871 11.0196 17.871 10.7941 17.9274C10.5826 17.9815 10.4275 18.0802 10.3993 18.4046C10.357 18.729 10.4557 19.2766 10.639 19.782C10.8223 20.3015 11.0878 20.781 11.4261 21.2017C12.4811 22.4968 14.8424 23.6345 16.2757 24.2104C16.2757 24.2104 19.5487 23.3524 20.0703 22.0738C20.1126 22.0314 20.1408 21.9891 20.1831 21.9468C20.2536 21.8763 20.3217 21.794 20.3922 21.6812C20.6883 21.1735 20.9561 20.2192 21.1229 19.514C21.278 18.8112 21.3344 18.3623 21.3626 18.0802C21.3908 17.8005 21.3767 17.7018 21.2216 17.6313C21.0665 17.5749 20.7728 17.5466 20.5191 17.5749C20.3499 17.6031 19.8589 17.2364 19.8729 17.3915C19.887 17.73 19.5487 18.0379 19.5064 18.1366C19.4665 18.2212 19.4242 18.2777 19.3678 18.3341C19.0999 18.5879 19.0717 18.729 18.818 19.0369C18.7898 19.0933 18.5384 19.0933 18.4961 19.1356C18.4538 19.1638 18.4256 19.2202 18.3551 19.2907C18.2846 19.3612 18.1859 19.4459 18.1154 19.5023C18.045 19.5563 18.0027 19.5704 17.8922 19.6269C17.7794 19.6833 17.6244 19.7961 17.4975 19.8666C17.3706 19.923 17.286 19.9371 17.2155 19.9935C17.1333 20.05 17.0487 20.1346 16.95 20.2051C16.8655 20.2733 16.7668 20.3156 16.6822 20.3579C16.5976 20.3861 16.513 20.4002 16.4167 20.4284C16.3321 20.4566 16.2193 20.4989 16.1488 20.4989C16.0924 20.4989 16.0642 20.4848 15.9233 20.4566C15.7823 20.4284 15.545 20.4002 15.3476 20.3579C15.1361 20.3015 14.967 20.2474 14.8424 20.1628C14.7156 20.0782 14.6451 19.9653 14.5323 19.9089C14.4336 19.8384 14.3208 19.8243 14.1939 19.7961C14.0835 19.7538 13.9425 19.7115 13.8439 19.6269C13.7311 19.5563 13.6324 19.46 13.5196 19.3754C13.4068 19.2907 13.2823 19.2202 13.1836 19.1638C13.099 19.1074 13.0567 19.0651 13.0285 19.0087C12.9863 18.9664 12.9722 18.9241 12.8453 18.8394C12.7325 18.7689 12.5234 18.6725 12.3683 18.5315C12.2273 18.3905 12.1286 18.2212 12.0582 18.0943C12.0018 17.9674 11.9595 17.8851 11.9313 17.8287C11.9031 17.7723 11.889 17.7441 11.8608 17.73C11.5389 17.6454 11.5812 17.8992 11.4543 17.8851ZM10.5685 13.807C10.5967 13.807 10.6531 13.8916 10.7377 13.948C10.8223 14.0044 10.935 14.0326 10.9773 14.0467C11.0337 14.0749 11.0055 14.1031 10.9914 14.1572C10.9632 14.2136 10.935 14.2982 10.935 14.3687C10.9491 14.3828 10.9632 14.3828 10.9773 14.3969C11.076 14.4816 11.116 14.5662 11.1583 14.6367C11.2005 14.7072 11.2287 14.7636 11.2992 14.7777C11.3274 14.7777 11.3697 14.7636 11.412 14.7495C11.3979 14.679 11.3697 14.6085 11.3415 14.5521C11.3133 14.4816 11.2992 14.4111 11.3274 14.2136C11.3556 14.0326 11.4402 13.7082 11.4825 13.4544C11.4543 13.5108 11.4261 13.5531 11.412 13.5531C11.3697 13.5813 11.3979 13.4544 11.3979 13.3298C11.3979 13.217 11.3556 13.1183 11.271 13.0336C11.2428 13.0054 11.2005 12.9913 11.1724 12.9631C11.1724 12.9772 11.1724 12.9772 11.1724 12.9913C11.1442 13.0619 11.0478 13.1606 11.0337 13.217C11.0055 13.2734 11.0337 13.3016 11.076 13.3439C11.116 13.3839 11.1724 13.4403 11.1865 13.5108C11.2146 13.5672 11.2146 13.6377 11.2005 13.7082C11.1724 13.7647 11.1442 13.8352 11.0901 13.8352C11.0478 13.8493 10.9914 13.807 10.935 13.7506C10.8787 13.6941 10.8223 13.6236 10.7659 13.4826C10.7236 13.3439 10.6954 13.1324 10.6813 12.9631C10.6813 12.8785 10.6813 12.808 10.6954 12.7516C10.5685 12.6952 10.4557 12.6388 10.3711 12.5565C10.2466 12.4437 10.1761 12.3167 10.162 12.3167C10.1479 12.3167 10.1761 12.4578 10.2184 12.5988C10.2748 12.7375 10.3429 12.8926 10.4134 13.0336C10.4698 13.1747 10.5403 13.3016 10.5403 13.3439C10.5262 13.3721 10.4557 13.3157 10.3711 13.2452C10.2889 13.1747 10.1761 13.1042 10.0915 12.9772C10.021 12.8644 9.96466 12.6952 9.89417 12.5142C9.82368 12.3167 9.73909 12.1052 9.66861 11.9077C9.61222 11.7127 9.57227 11.5434 9.55817 11.3883C9.52998 11.219 9.52998 11.0522 9.55817 10.8688C9.58402 10.6996 9.62631 10.5303 9.6827 10.4739C9.75319 10.4175 9.82368 10.488 9.90826 10.6009C10.0069 10.7278 10.1056 10.8829 10.162 10.9957C10.2043 11.0921 10.2184 11.1485 10.2043 11.078C10.1902 11.024 10.1479 10.8406 10.1056 10.6855C10.0633 10.5162 9.99285 10.3611 9.92236 10.2365C9.85187 10.1237 9.76729 10.025 9.6968 9.92626C9.64041 9.82753 9.58402 9.72881 9.59812 9.61599C9.59812 9.50551 9.66861 9.36448 9.7109 9.27986C9.75319 9.18114 9.79548 9.12473 9.82368 9.02601C9.86597 8.92729 9.89417 8.78625 9.97875 8.61937C10.0351 8.49244 10.1056 8.18217 10.3171 8.295C10.3453 8.3091 10.3171 8.05524 10.3312 8.04114C10.7659 7.43705 11.0619 7.59219 11.2569 8.01528C11.2428 7.90246 11.2569 7.81784 11.2569 7.74732C11.2569 7.6627 11.2428 7.60629 11.1865 7.52167C11.1183 7.43705 11.0196 7.32423 11.0337 7.24196C11.0337 7.14324 11.1583 7.05862 11.2005 6.974C11.2569 6.88938 11.2146 6.80476 11.2569 6.69194C11.2992 6.56501 11.4261 6.42633 11.5671 6.32761C11.694 6.22889 11.8349 6.20068 11.9031 6.17247C11.9877 6.14427 12.0159 6.13016 12.03 6.22889C12.03 6.34171 12.0159 6.56501 12.0582 6.5368C12.1004 6.4945 12.1991 6.20068 12.2837 6.04555C12.3542 5.89041 12.3965 5.86221 12.4952 5.8199C12.608 5.77759 12.7607 5.72352 12.8876 5.68121C13.0144 5.63891 13.0849 5.6248 13.1695 5.65301C13.2541 5.69532 13.3387 5.79169 13.3669 5.90451C13.381 5.834 13.4209 5.74938 13.4632 5.69532C13.5196 5.6248 13.5901 5.58249 13.6465 5.54018C13.717 5.51198 13.7734 5.49787 13.8439 5.49787C13.9143 5.49787 13.9989 5.51198 14.0835 5.51198C14.154 5.49787 14.208 5.48377 14.2785 5.45556C14.349 5.42736 14.4336 5.39915 14.5182 5.39915C14.6028 5.38505 14.7015 5.39915 14.8001 5.41326C14.8988 5.42736 14.9811 5.45556 15.0938 5.45556C15.2066 5.45556 15.3335 5.44146 15.4181 5.44146C15.5027 5.45556 15.545 5.49787 15.6296 5.5966C15.6437 5.6107 15.6719 5.63891 15.6859 5.65301C15.6719 5.63891 15.6719 5.6107 15.6719 5.58249C15.6578 5.54018 15.7 5.46967 15.7259 5.44146C15.7682 5.39915 15.8105 5.39915 15.8951 5.39915C15.9796 5.41326 16.0924 5.44146 16.2334 5.44146C16.3744 5.45556 16.5271 5.44146 16.6681 5.45556C16.8091 5.46967 16.95 5.51198 17.1051 5.55429C17.2578 5.5966 17.427 5.6248 17.5398 5.65301C17.6526 5.66711 17.709 5.66711 17.8217 5.73763C17.8781 5.76348 17.9486 5.8199 18.0168 5.89041C18.0309 5.8622 18.045 5.834 18.0591 5.8199C18.1154 5.76348 18.2282 5.76348 18.4115 5.80579C18.6089 5.8481 18.8744 5.91862 19.0576 6.04555C19.255 6.15837 19.3537 6.32761 19.4101 6.51095C19.4665 6.69194 19.4665 6.90349 19.537 7.08683C19.6051 7.28427 19.7461 7.43705 19.8589 7.59219C19.9575 7.74732 20.0421 7.90246 20.0703 7.91656C20.0985 7.94477 20.0985 7.83194 20.0562 7.71912C20.028 7.60629 19.9434 7.49347 19.8589 7.38064C19.7884 7.27017 19.7038 7.17145 19.6615 7.07272C19.6333 6.9881 19.6474 6.90349 19.6192 6.80476C19.6051 6.72015 19.5487 6.60732 19.5769 6.60732C19.6051 6.59322 19.7038 6.67784 19.7884 6.80476C19.887 6.91759 19.9575 7.07272 20.1126 7.19965C20.2818 7.32423 20.505 7.45116 20.6742 7.62039C20.8433 7.80374 20.942 8.04349 20.9702 8.25269C20.9984 8.45013 20.9561 8.60526 20.9561 8.7604C20.9561 8.91318 20.9984 9.05421 21.0125 9.04011C21.0266 9.02601 20.9843 8.85677 21.0125 8.80271C21.0407 8.7604 21.137 8.82856 21.2075 9.02601C21.2639 9.20935 21.3203 9.53372 21.3626 9.81343C21.3908 10.0955 21.419 10.3352 21.419 10.5021C21.419 10.6714 21.3908 10.756 21.3485 10.8406C21.3203 10.9111 21.278 10.9816 21.2498 11.0804C21.2216 11.1767 21.1934 11.2896 21.0947 11.4447C21.0125 11.5857 20.8574 11.7691 20.7024 11.9077C20.5755 12.0206 20.4345 12.1052 20.3358 12.1898C20.3781 12.4014 20.4627 12.7234 20.4768 12.7798C20.4909 12.8362 20.505 13.1747 20.4909 13.2311C20.4768 13.3016 20.4204 13.3862 20.3076 13.4403C20.2113 13.4967 20.0562 13.539 19.9716 13.539C19.9575 13.5672 19.9575 13.5954 19.9434 13.6236C19.9152 13.7365 19.8589 13.8211 19.8307 13.9198C19.8025 14.0326 19.8025 14.1595 19.8307 14.2418C19.8448 14.3264 19.8729 14.3405 19.8729 14.3405C19.887 14.3405 19.8589 14.2982 19.8729 14.2418C19.9011 14.1713 19.9434 14.1031 19.9857 14.0326C20.0421 13.9762 20.0985 13.9198 20.1267 13.8634C20.1408 13.807 20.1408 13.7506 20.1831 13.7788C20.1972 13.7929 20.1972 13.7929 20.2113 13.807C20.2395 13.7647 20.2677 13.7365 20.2935 13.7082C20.364 13.6377 20.3922 13.5954 20.4627 13.539C20.5191 13.4685 20.6037 13.3862 20.6601 13.2452C20.7165 13.1042 20.7447 12.9067 20.7869 12.7516C20.8151 12.5988 20.8574 12.486 20.8715 12.4578C20.8856 12.4296 20.8715 12.5001 20.8856 12.6388C20.8856 12.7939 20.9138 13.0195 20.8997 13.1888C20.8856 13.3721 20.8433 13.4967 20.7729 13.5954C20.7165 13.6941 20.6319 13.7647 20.5614 13.8352C20.4909 13.9198 20.4204 14.0044 20.364 14.1031C20.3922 14.2277 20.4063 14.3405 20.3781 14.4534C20.364 14.5803 20.3076 14.7072 20.2959 14.8482C20.2959 14.9869 20.3499 15.1421 20.364 15.269C20.3781 15.3959 20.364 15.4946 20.3499 15.5652C20.3217 15.6498 20.2935 15.7038 20.2818 15.7603C20.2677 15.8167 20.2818 15.859 20.2818 15.9295C20.2677 16.0141 20.2536 16.0987 20.2254 16.2116C20.2113 16.3103 20.1831 16.409 20.1126 16.4913C20.0421 16.5759 19.9434 16.6464 19.8729 16.731C19.8166 16.8015 19.7743 16.8861 19.7602 16.9567C19.7461 17.0131 19.7461 17.0554 19.7179 17.0413C19.7038 17.0131 19.6615 16.9426 19.6192 16.8579C19.5769 16.7733 19.5229 16.6887 19.5088 16.59C19.4806 16.4772 19.4665 16.3385 19.4947 16.2257C19.5088 16.1128 19.5628 16.0141 19.5628 15.9718C19.5769 15.9436 19.5487 15.9718 19.5088 16.0282C19.4665 16.0987 19.4101 16.2116 19.3819 16.3385C19.3537 16.4631 19.3396 16.6041 19.3819 16.7733C19.4242 16.9285 19.5088 17.1259 19.5346 17.3069C19.5487 17.4902 19.4947 17.6736 19.4101 17.8146C19.3396 17.9415 19.2268 18.0379 19.1422 18.1366C19.0717 18.2353 19.0294 18.3341 19.0012 18.4046C18.973 18.4751 18.959 18.5315 18.9167 18.5738C18.8603 18.6302 18.7757 18.6725 18.7075 18.7149C18.6371 18.7431 18.5807 18.7689 18.5384 18.7971C18.5102 18.8253 18.4961 18.8676 18.4961 18.8394C18.5102 18.8253 18.5243 18.7548 18.5666 18.6725C18.6089 18.5879 18.6653 18.4892 18.6793 18.3905C18.7075 18.2918 18.7075 18.193 18.6934 18.0802C18.6934 17.9838 18.6793 17.8851 18.6653 17.8992C18.6512 17.9274 18.6371 18.0661 18.6089 18.1789C18.5807 18.2777 18.5384 18.3341 18.5102 18.4187C18.4679 18.5033 18.4397 18.602 18.4115 18.6866C18.3974 18.7689 18.3833 18.8394 18.341 18.8958C18.3128 18.9523 18.2564 19.0087 18.1859 19.0651C18.1295 19.1074 18.0591 19.1497 17.9768 19.2061C17.8781 19.2625 17.7654 19.333 17.5962 19.46C17.4129 19.5704 17.2038 19.7538 17.0487 19.8525C16.8795 19.9371 16.7809 19.9512 16.7386 19.9371C16.7104 19.923 16.7527 19.8807 16.795 19.8243C16.8373 19.7538 16.8795 19.6551 16.9077 19.5563C16.9218 19.46 16.9218 19.3471 16.9077 19.2343C16.9077 19.1356 16.8795 19.0369 16.9077 18.9664C16.9359 18.8817 17.0064 18.8112 17.0628 18.7431C17.1192 18.6866 17.1615 18.6302 17.1333 18.6302C17.1051 18.6443 17.0064 18.7149 16.9077 18.783C16.8091 18.8535 16.7245 18.9382 16.6822 19.051C16.654 19.1638 16.6681 19.3048 16.654 19.4318C16.6399 19.5563 16.5976 19.6551 16.5412 19.7397C16.4872 19.8102 16.4308 19.8525 16.3462 19.8948C16.2616 19.9371 16.1488 19.9653 16.0501 19.9935C15.9937 20.0076 15.9515 20.0217 15.9233 20.0217C15.881 20.0358 15.8387 20.0358 15.7964 20.0358C15.7682 20.0358 15.74 20.0358 15.7 20.0358C15.6578 20.0217 15.6155 20.0076 15.5732 19.9935C15.5168 19.9794 15.4463 19.9653 15.4181 19.9653C15.3899 19.9794 15.3899 20.0076 15.3476 19.9935C15.2912 19.9794 15.1925 19.923 15.0798 19.8666C14.967 19.8102 14.8424 19.7397 14.7579 19.6551C14.6733 19.5704 14.631 19.4741 14.5887 19.3612C14.5464 19.2625 14.5041 19.1497 14.4477 19.0651C14.4054 18.9805 14.349 18.9099 14.2644 18.8394C14.1822 18.7689 14.0694 18.7008 14.0694 18.7431C14.0835 18.7689 14.1963 18.9099 14.2644 19.0369C14.349 19.1638 14.3631 19.2625 14.3913 19.3471C14.4054 19.4459 14.4054 19.5164 14.4477 19.5845C14.4759 19.6551 14.5464 19.7115 14.5041 19.6974C14.4618 19.6833 14.3349 19.5987 14.2362 19.5281C14.1399 19.46 14.0694 19.3895 13.9989 19.333C13.9284 19.2766 13.858 19.2343 13.7875 19.192C13.717 19.1638 13.6606 19.1215 13.6183 19.0792C13.5901 19.051 13.5619 19.0087 13.5478 18.9946C13.5337 18.9805 13.5196 18.9805 13.4773 18.9805C13.4374 18.9805 13.3528 18.9664 13.2541 18.9099C13.1554 18.8535 13.0567 18.7431 13.0003 18.6302C12.944 18.5174 12.9581 18.3905 13.0285 18.3482C13.0849 18.3059 13.1977 18.3482 13.2682 18.3623C13.3387 18.3905 13.3528 18.4046 13.3246 18.3623C13.2964 18.32 13.2118 18.2071 13.1413 18.1507C13.0567 18.0802 12.9722 18.0661 12.9158 18.0661C12.8453 18.0661 12.7889 18.0802 12.7043 18.0661C12.608 18.0661 12.467 18.0379 12.3824 17.9838C12.2837 17.9274 12.2414 17.8569 12.185 17.7723C12.1286 17.6877 12.0582 17.6031 12.0441 17.5466C12.03 17.4902 12.0582 17.462 12.1145 17.4197C12.1568 17.3774 12.2132 17.321 12.2414 17.2387C12.2837 17.1541 12.2837 17.0554 12.2837 16.9567C12.2696 16.872 12.2555 16.7874 12.2414 16.8015C12.2132 16.8156 12.185 16.9144 12.1427 16.9849C12.1004 17.0554 12.0582 17.0836 12.0159 17.1259C11.9736 17.1682 11.9454 17.2246 11.9195 17.2387C11.8913 17.2505 11.8631 17.2246 11.8208 17.1823C11.7927 17.1259 11.7363 17.0554 11.694 16.9708C11.6376 16.872 11.5671 16.7592 11.4684 16.59C11.3697 16.409 11.2287 16.1833 11.2005 15.9436C11.1606 15.7062 11.2287 15.4664 11.2851 15.2831C11.2992 15.2408 11.3133 15.1985 11.3274 15.1703C11.2569 15.128 11.1724 15.0574 11.1183 14.9728C11.0619 14.8765 11.0478 14.7636 10.9632 14.6508C10.8646 14.5239 10.7236 14.3969 10.639 14.27C10.5544 14.1595 10.5262 14.0467 10.498 13.9057C10.4839 13.7788 10.4698 13.6095 10.4839 13.5954C10.498 13.5813 10.5262 13.6941 10.5544 13.807H10.5685ZM16.3603 14.0749C16.3603 14.0185 16.3321 13.9621 16.3039 13.8775C16.2757 13.807 16.2475 13.7365 16.2334 13.68C16.2193 13.6095 16.2193 13.5672 16.2334 13.5672C16.2334 13.5672 16.2616 13.6236 16.3039 13.6941C16.3462 13.7506 16.4308 13.8211 16.513 13.9057C16.5976 13.9903 16.6963 14.0749 16.7809 14.1572C16.8514 14.2277 16.9077 14.2982 16.95 14.3687C17.0064 14.4393 17.0487 14.5239 17.0628 14.5662C17.0769 14.6226 17.0628 14.6367 17.0487 14.6367C17.0205 14.6226 16.9923 14.5803 16.9641 14.538C16.9359 14.4957 16.9077 14.4675 16.8795 14.4393C16.8795 14.5239 16.8795 14.6085 16.8795 14.7072C16.8655 14.8059 16.8514 14.9587 16.7809 15.0433C16.7104 15.1139 16.5976 15.1139 16.513 15.0998C16.4308 15.0857 16.3885 15.0574 16.3462 15.0433C16.3039 15.0292 16.2757 15.0433 16.2052 15.0857C16.1347 15.1421 16.0219 15.2267 15.9374 15.2549C15.8669 15.2831 15.8246 15.2549 15.7541 15.2126C15.6836 15.1844 15.6014 15.1421 15.5309 15.128C15.4604 15.1139 15.404 15.128 15.3617 15.1421C15.3053 15.1562 15.2489 15.1703 15.1643 15.1703C15.0798 15.1703 14.967 15.1562 14.8847 15.1421C14.8142 15.1139 14.772 15.0857 14.7297 15.0574C14.6733 15.0433 14.6169 15.0151 14.5887 14.9587C14.49 14.82 14.4336 14.7213 14.4477 14.6226C14.4336 14.6367 14.4336 14.6367 14.4195 14.6649C14.3913 14.6931 14.3349 14.7495 14.2926 14.7918C14.2503 14.8341 14.2221 14.8624 14.2221 14.8341C14.2362 14.8059 14.2644 14.7213 14.3208 14.6085C14.3913 14.4957 14.4618 14.3405 14.5746 14.2136C14.7015 14.1031 14.8424 14.0185 14.9388 13.9057C15.0375 13.7929 15.0938 13.6518 15.122 13.5954C15.1502 13.539 15.1784 13.5672 15.1643 13.6659C15.1361 13.7647 15.0797 13.9339 15.0938 14.089C15.0938 14.2418 15.1502 14.3264 14.9388 14.3687C14.8847 14.3828 14.8283 14.4111 14.772 14.4675C14.7297 14.5239 14.7015 14.6085 14.6874 14.6931C14.6733 14.7918 14.6874 14.8906 14.7297 14.9305C14.772 14.9587 14.8424 14.9446 14.927 14.9164C15.0093 14.8765 15.0938 14.8482 15.1925 14.8482C15.2912 14.8341 15.3899 14.8624 15.4886 14.9047C15.6014 14.9446 15.7118 15.001 15.7964 15.0292C15.881 15.0433 15.9233 15.0292 15.9937 14.9869C16.0642 14.9587 16.1347 14.9047 16.2052 14.8624C16.2757 14.82 16.3462 14.8059 16.4167 14.7918C16.4707 14.7777 16.513 14.7918 16.5694 14.7918C16.6117 14.8059 16.6681 14.8059 16.6963 14.7495C16.7245 14.6931 16.7245 14.5662 16.7245 14.4957C16.6822 14.1713 16.3462 14.4675 16.3603 14.0749ZM17.9886 16.6746C18.0027 16.6605 18.045 16.59 18.0731 16.5054C18.1154 16.4372 18.1436 16.3667 18.1859 16.2962C18.2282 16.2257 18.2705 16.1269 18.2987 16.0282C18.3269 15.9295 18.341 15.8167 18.2987 15.7038C18.2564 15.5934 18.1718 15.4805 18.1154 15.3959C18.0591 15.3113 18.0168 15.2549 18.0027 15.1844C17.9886 15.128 18.0027 15.0574 17.8922 14.9587C17.7935 14.8624 17.5821 14.7354 17.6103 14.7213C17.6526 14.7072 17.9345 14.8059 18.0591 14.8341C18.1859 14.8765 18.1436 14.8341 18.0731 14.7354C18.0168 14.6367 17.9345 14.4816 17.9886 14.3687C18.0591 14.2418 18.2846 14.1713 18.4679 14.0608C18.6512 13.948 18.7898 13.7788 18.8885 13.6236C18.973 13.4685 19.0153 13.3298 19.0153 13.1888C19.0153 13.0619 18.973 12.9349 18.9871 12.808C19.0012 12.6811 19.0717 12.5424 19.114 12.4155C19.1704 12.3026 19.1986 12.2039 19.1986 12.077C19.1563 11.9924 19.1281 11.9077 19.0999 11.8114C19.0435 11.5998 19.0294 11.3319 19.0717 11.1062C19.114 10.8688 19.1986 10.6855 19.255 10.5585C19.2832 10.4175 19.2832 10.3352 19.2268 10.1801C19.1845 10.0391 19.0858 9.82753 19.0717 9.61599C19.0717 9.60188 19.0717 9.58778 19.0576 9.57368C19.0435 9.63009 19.0153 9.6865 18.9871 9.75702C18.9308 9.89805 18.8744 10.0391 18.8744 10.1519C18.8603 10.2647 18.8885 10.347 18.9449 10.4316C18.9871 10.5021 19.0435 10.5868 19.0717 10.6291C19.0858 10.6714 19.0576 10.6573 18.959 10.6009C18.8744 10.5303 18.7334 10.4175 18.6371 10.2788C18.5525 10.1378 18.5102 9.96857 18.5243 9.78523C18.5384 9.61599 18.5948 9.435 18.6089 9.27986C18.623 9.12473 18.5948 9.0119 18.5666 8.91318C18.5384 8.82856 18.5102 8.7745 18.4679 8.71809C18.4397 8.66168 18.3974 8.60526 18.3833 8.60526C18.3833 8.61937 18.4115 8.68988 18.4397 8.7604C18.4679 8.84267 18.482 8.94139 18.482 9.04011C18.4679 9.13883 18.4538 9.25166 18.4115 9.39269C18.3692 9.51962 18.2987 9.6724 18.2705 9.79933C18.2423 9.94036 18.2564 10.0532 18.2705 10.1237C18.2987 10.1801 18.3269 10.1942 18.2846 10.1237C18.2423 10.0391 18.1295 9.88395 18.0591 9.78523C17.9886 9.6724 17.9627 9.64419 17.9345 9.57603C17.9063 9.51962 17.8781 9.435 17.8922 9.29397C17.8922 9.15294 17.9204 8.96959 17.9345 8.81446C17.9486 8.66168 17.9345 8.54885 17.8781 8.43603C17.8076 8.3232 17.6949 8.22448 17.5821 8.15396C17.4552 8.09755 17.3424 8.06934 17.2155 8.02939C17.091 7.98708 16.9782 7.91656 16.8936 7.87425C16.8232 7.83194 16.795 7.80374 16.8232 7.81784C16.8514 7.84604 16.9218 7.90246 16.9923 7.97297C17.0628 8.04114 17.1051 8.11165 17.1333 8.13986C17.1756 8.18217 17.1756 8.19627 17.1615 8.18217C17.1333 8.18217 17.0769 8.13986 16.9923 8.09755C16.9218 8.06934 16.8232 8.02939 16.654 7.98708C16.4989 7.94477 16.2898 7.88836 16.0924 7.77553C15.8951 7.6627 15.7259 7.49347 15.6578 7.28192C15.5873 7.08683 15.5873 6.84707 15.6155 6.63553C15.6014 6.67784 15.5873 6.72015 15.5732 6.74835C15.5027 6.974 15.5168 7.15734 15.5732 7.32423C15.6296 7.50757 15.74 7.67681 15.8387 7.83194C15.9374 7.98708 16.0219 8.12576 16.036 8.3091C16.0501 8.49244 15.9937 8.71809 15.8387 8.92728C15.6695 9.15294 15.3899 9.36448 15.1502 9.50551C14.9247 9.64419 14.7438 9.72881 14.7015 9.72881C14.6592 9.72881 14.7579 9.6583 14.8283 9.57603C14.9106 9.50551 14.9529 9.42089 14.9529 9.40679C14.9529 9.37859 14.9106 9.42089 14.8424 9.50551C14.7579 9.57603 14.6592 9.6865 14.5464 9.75702C14.4336 9.84164 14.3067 9.88395 14.1939 9.92626C14.0976 9.95446 13.9989 9.99677 13.9566 9.99677C13.9284 9.98267 13.9566 9.94036 14.013 9.88395C14.0553 9.81343 14.1117 9.71471 14.1517 9.61599C14.1799 9.51962 14.1799 9.42089 14.1376 9.32217C14.0976 9.20935 14.0271 9.08242 14.013 9.06832C13.9848 9.05421 14.0271 9.15293 14.0412 9.23755C14.0694 9.32217 14.0694 9.39269 14.0694 9.40679C14.0694 9.42089 14.0694 9.39269 13.9989 9.30807C13.9284 9.22345 13.8016 9.08242 13.6747 8.94139C13.5478 8.81446 13.435 8.67578 13.3528 8.50654C13.2682 8.35141 13.2118 8.15396 13.2118 7.94477C13.2118 7.73322 13.24 7.49347 13.24 7.35244C13.2259 7.31013 13.2259 7.27017 13.2118 7.24196C13.2118 7.33833 13.2118 7.45116 13.1836 7.54988C13.1413 7.80374 12.9863 8.06934 12.9158 8.28089C12.8312 8.47834 12.803 8.60526 12.7889 8.71809C12.7607 8.82856 12.7466 8.94139 12.7043 9.04011C12.662 9.13883 12.5939 9.23755 12.5516 9.29397C12.5093 9.36448 12.4811 9.40679 12.467 9.35038C12.467 9.29397 12.467 9.15294 12.467 9.13883C12.467 9.12473 12.4529 9.25166 12.3965 9.36448C12.3401 9.47731 12.2555 9.58778 12.1991 9.71471C12.1568 9.82754 12.1427 9.94036 12.1568 10.0814C12.1709 10.2083 12.1991 10.347 12.185 10.3893C12.185 10.4175 12.1286 10.347 12.0723 10.2506C12.03 10.166 11.9877 10.0532 11.9454 9.94036C11.9031 9.82753 11.8749 9.71471 11.8467 9.57368C11.8349 9.435 11.8349 9.26576 11.7645 9.09652C11.694 8.92729 11.5671 8.7745 11.4684 8.59116C11.4684 8.57706 11.4543 8.56295 11.4402 8.54885C11.6094 9.19524 11.6658 9.94036 11.6658 9.94036C11.5248 9.64419 11.6376 10.1237 11.6517 10.1942C11.6799 10.3611 11.7504 10.5303 11.8208 10.6996C11.8749 10.8688 11.9454 11.0239 11.9736 11.2049C12.0018 11.3742 11.9877 11.5716 11.9736 11.7127C11.9454 11.8537 11.9172 11.9218 11.9031 11.9924C11.889 12.0629 11.889 12.1193 11.8749 12.218C11.8749 12.2885 11.8608 12.359 11.8608 12.4296C11.8608 12.486 11.8749 12.5283 11.889 12.5847C11.9595 12.8362 12.1004 13.0195 12.185 13.1606C12.2555 13.3016 12.2414 13.398 12.2555 13.5108C12.2696 13.6236 12.2978 13.7647 12.4952 13.8916C12.7043 14.0326 13.099 14.1572 13.2682 14.3687C13.435 14.5803 13.3786 14.8624 13.4209 14.9446C13.4632 15.0433 13.6042 14.9305 13.6888 14.8765C13.7734 14.8059 13.8016 14.7918 13.7593 14.8624C13.7029 14.9446 13.5901 15.128 13.4914 15.2408C13.4068 15.3677 13.3528 15.4241 13.3387 15.4946C13.3105 15.5511 13.3387 15.6357 13.3528 15.7038C13.3669 15.7885 13.3786 15.859 13.3528 15.9295C13.3387 16 13.2964 16.0705 13.2964 16.141C13.2964 16.2115 13.3387 16.2821 13.3786 16.3526C13.435 16.4372 13.5055 16.5054 13.5478 16.5477C13.5619 16.5618 13.576 16.5759 13.576 16.5759C13.5901 16.5618 13.5901 16.5336 13.6042 16.5054C13.6183 16.4513 13.6465 16.409 13.6888 16.3526C13.7311 16.3103 13.7875 16.268 13.8157 16.1974C13.858 16.141 13.8721 16.0705 13.8861 16.0141C13.9002 15.9577 13.8862 15.9295 13.8721 15.8872C13.8721 15.8449 13.858 15.7885 13.8439 15.7461C13.8439 15.6897 13.8439 15.6498 13.8439 15.6075C13.858 15.5652 13.8861 15.537 13.8861 15.537C13.9002 15.537 13.9002 15.5793 13.9002 15.6075C13.9143 15.6357 13.9284 15.6639 13.9425 15.7038C13.9848 15.7461 14.0412 15.8026 14.0694 15.8449C14.0976 15.8872 14.0694 15.9436 14.0835 15.9295C14.1094 15.9154 14.1517 15.859 14.2221 15.7885C14.2926 15.732 14.3772 15.678 14.4336 15.6639C14.5041 15.6357 14.5464 15.6357 14.5746 15.6357C14.6169 15.6216 14.631 15.6216 14.631 15.6498C14.631 15.6639 14.6028 15.7038 14.5746 15.732C14.5605 15.7603 14.5605 15.7744 14.5605 15.7744C14.5605 15.7744 14.5605 15.7744 14.6028 15.7461C14.6451 15.732 14.7015 15.678 14.7438 15.6639C14.786 15.6357 14.8142 15.6498 14.8683 15.6216C14.9388 15.6075 15.0516 15.5793 15.122 15.5228C15.1925 15.4523 15.2489 15.3536 15.263 15.3395C15.2912 15.3395 15.3053 15.41 15.3476 15.4805C15.3899 15.5511 15.4604 15.6216 15.545 15.6357C15.6155 15.6498 15.7118 15.5934 15.7682 15.5934C15.8246 15.5793 15.8528 15.6216 15.8951 15.5934C15.9374 15.5793 15.9937 15.4946 16.0219 15.4664C16.0501 15.4382 16.0501 15.4382 16.0924 15.4664C16.1206 15.4805 16.177 15.5087 16.2193 15.5228C16.2616 15.537 16.2757 15.5511 16.2757 15.5511C16.2757 15.5511 16.2616 15.537 16.2616 15.5087C16.2616 15.4946 16.2616 15.4523 16.2757 15.4382C16.2757 15.4241 16.2757 15.41 16.3603 15.4382C16.4284 15.4664 16.5694 15.537 16.6399 15.5087C16.7104 15.4805 16.7104 15.3536 16.7104 15.3113C16.7104 15.269 16.7386 15.2972 16.7668 15.3677C16.795 15.4523 16.8373 15.5652 16.8936 15.6216C16.9359 15.678 16.9782 15.6921 17.0064 15.7062C17.0346 15.7179 17.0487 15.732 17.0628 15.732C17.0769 15.732 17.0769 15.7179 17.091 15.6357C17.1051 15.5511 17.1192 15.3959 17.1333 15.41C17.1474 15.4382 17.1592 15.6216 17.1592 15.732C17.1732 15.8449 17.1733 15.8872 17.2014 15.9295C17.2437 15.9577 17.286 16.0141 17.3565 16.0423C17.4129 16.0705 17.4693 16.0987 17.4693 16.0705C17.4693 16.0564 17.4129 15.9859 17.3988 15.9154C17.3847 15.859 17.4129 15.7744 17.427 15.7603C17.4411 15.7603 17.4411 15.8167 17.4693 15.859C17.4975 15.9154 17.5539 15.9577 17.6103 16C17.6808 16.0282 17.7513 16.0705 17.8217 16.141C17.8781 16.1974 17.9181 16.2821 17.9463 16.3667C17.9604 16.4513 17.9745 16.5195 17.9745 16.6041C17.9745 16.6323 17.9886 16.6605 17.9886 16.6887C17.9886 16.6887 17.9886 16.6887 17.9886 16.6746ZM19.8166 12.5988C19.8448 12.6811 19.8729 12.7516 19.887 12.808C19.9293 12.9631 19.9716 13.0901 19.9716 13.2311C19.9857 13.2593 19.9857 13.2875 19.9857 13.3298C20.0139 13.3016 20.0421 13.2734 20.0844 13.2593C20.1549 13.2029 20.2254 13.1606 20.2395 13.1183C20.2395 13.076 20.2254 13.0195 20.2254 12.9631H20.2113C20.1972 12.9349 20.169 12.8926 20.1408 12.8503C20.1267 12.808 20.1267 12.7516 20.1267 12.6952C20.1408 12.6388 20.1549 12.5847 20.169 12.5283C20.1831 12.4719 20.1831 12.4155 20.1831 12.3731C20.1831 12.359 20.169 12.3449 20.1408 12.3167C20.0844 12.3731 20.028 12.4155 19.9857 12.4719C19.9152 12.5565 19.8729 12.6388 19.8589 12.6529C19.8307 12.6529 19.8448 12.5847 19.8307 12.5706C19.8307 12.5565 19.8307 12.5706 19.8166 12.5988ZM14.349 16C14.3067 16.0282 14.2362 16.0705 14.1939 16.1269C14.1117 16.2116 14.0835 16.3526 14.0835 16.4372C14.0835 16.5195 14.1376 16.5336 14.1658 16.5759C14.1939 16.6041 14.208 16.6464 14.1939 16.7028C14.1939 16.7733 14.1799 16.8438 14.208 16.9144C14.2221 16.9849 14.2926 17.0554 14.3913 17.0977C14.4759 17.1541 14.5746 17.1964 14.631 17.2505C14.7015 17.2928 14.7438 17.3633 14.8001 17.3915C14.8706 17.4197 14.9529 17.4197 15.0375 17.3774C15.122 17.321 15.2066 17.2223 15.2348 17.14C15.263 17.0413 15.2489 16.9567 15.2066 16.8861C15.1643 16.8015 15.1079 16.731 15.0798 16.6605C15.0375 16.6041 15.0375 16.5336 15.0234 16.4772C15.0093 16.4231 14.9952 16.3949 14.9388 16.3667C14.8706 16.3244 14.772 16.2962 14.8001 16.2962C14.8424 16.2962 15.0093 16.3244 15.1784 16.3385C15.3335 16.3667 15.5027 16.3808 15.6296 16.3808C15.7541 16.3949 15.8528 16.3949 15.9937 16.3949C16.1347 16.3949 16.3039 16.3808 16.4425 16.3667C16.5976 16.3385 16.7104 16.2962 16.7245 16.3103C16.7386 16.3244 16.6681 16.3808 16.5976 16.4231C16.5271 16.4772 16.4707 16.5195 16.4566 16.5759C16.4425 16.6323 16.4707 16.6887 16.513 16.7169C16.5694 16.7592 16.6258 16.7592 16.6822 16.7592C16.7386 16.7451 16.795 16.731 16.8091 16.7451C16.8091 16.7592 16.7527 16.8015 16.6822 16.8579C16.6258 16.9144 16.5553 16.9849 16.513 16.999C16.4566 17.0131 16.4026 16.9849 16.4026 17.0131C16.4026 17.0413 16.4425 17.1259 16.4707 17.1964C16.513 17.2787 16.5412 17.3351 16.6117 17.3633C16.6681 17.3774 16.7668 17.3633 16.8373 17.3351C16.9218 17.2928 16.9923 17.2364 17.091 17.2105C17.1897 17.1823 17.3142 17.1682 17.427 17.14C17.5257 17.1118 17.5962 17.0554 17.6385 16.9003C17.6526 16.7592 17.6526 16.5618 17.6808 16.4513C17.6667 16.4513 17.6667 16.4513 17.6526 16.4372C17.5539 16.3949 17.427 16.3667 17.3283 16.3244C17.2296 16.2821 17.1756 16.2398 17.1333 16.1833C17.0769 16.1269 17.0487 16.0705 16.9923 16.0282C16.9359 16 16.8514 16 16.7527 15.9718C16.6399 15.9436 16.4989 15.8872 16.3744 15.859C16.2475 15.8308 16.1347 15.8308 16.0219 15.8308C15.9092 15.8449 15.8105 15.8731 15.74 15.8731C15.6578 15.8872 15.6155 15.8872 15.5591 15.859C15.5027 15.8449 15.4322 15.8167 15.3194 15.8026C15.2207 15.8026 15.0938 15.8308 14.9811 15.859C14.8706 15.8872 14.7579 15.9295 14.6733 15.9436C14.6028 15.9718 14.5323 15.9718 14.4759 15.9859C14.4336 15.9859 14.3913 15.9859 14.349 16ZM13.1695 7.15734C13.1695 7.17145 13.1695 7.17145 13.1695 7.18555C13.1695 7.17145 13.1695 7.17145 13.1695 7.15734ZM19.9575 11.7691C19.9857 11.6985 20.0844 11.4588 20.2113 11.2614C20.3358 11.0804 20.505 10.9393 20.5755 10.7137C20.646 10.4739 20.6319 10.166 20.5755 9.88395C20.5332 9.60188 20.4486 9.36448 20.3781 9.18114C20.2935 9.0119 20.2113 8.91318 20.169 8.7886C20.1267 8.67578 20.1267 8.53475 20.1549 8.52064C20.1831 8.52064 20.2536 8.64757 20.364 8.82856C20.4909 9.02601 20.6742 9.27986 20.7729 9.51962C20.8715 9.74292 20.8856 9.95446 20.8715 10.1801C20.8433 10.4034 20.7728 10.6291 20.6742 10.7983C20.5755 10.9675 20.4627 11.0804 20.3499 11.219C20.2395 11.346 20.1408 11.5011 20.0703 11.628C19.9998 11.7409 19.9434 11.8396 19.9575 11.7691ZM13.1836 7.18555V7.19965V7.18555ZM13.1836 7.19965H13.1977C13.1977 7.21375 13.2118 7.22786 13.2118 7.24196C13.2118 7.22786 13.1977 7.21375 13.1977 7.19965H13.1836ZM10.6531 8.42192C10.5262 8.3373 10.4134 8.3091 10.3852 8.36551C10.3429 8.42192 10.3852 8.54885 10.4557 8.66168C10.5262 8.7745 10.639 8.87087 10.7236 8.9978C10.7941 9.12473 10.8505 9.27986 10.9209 9.40679C10.9773 9.54782 11.0478 9.64419 11.1583 9.71471C11.2851 9.78523 11.4543 9.81343 11.4402 9.77112C11.4261 9.71471 11.2428 9.60188 11.1442 9.4209C11.0337 9.25166 11.0055 9.04011 10.9491 8.85677C10.8787 8.66168 10.7659 8.50654 10.6531 8.42192ZM12.0441 6.9881C12.0441 7.05862 12.0159 7.15734 12.0441 7.25606C12.0582 7.33833 12.1145 7.42295 12.185 7.49347C12.2555 7.57809 12.326 7.6486 12.3542 7.73322C12.3824 7.81784 12.3542 7.91656 12.3119 8.01528C12.2837 8.11165 12.2273 8.21038 12.1991 8.3232C12.185 8.45013 12.1709 8.59116 12.185 8.68988C12.1991 8.7886 12.2132 8.85677 12.185 8.7886C12.1709 8.73219 12.1145 8.53475 12.1004 8.35141C12.1004 8.16807 12.1568 8.00118 12.1427 7.86015C12.1286 7.71912 12.0582 7.6345 12.0018 7.54988C11.9454 7.47936 11.9031 7.42295 11.9031 7.31013C11.889 7.21376 11.9454 7.05862 11.9736 6.974C12.0018 6.88938 12.0159 6.87528 12.03 6.87528C12.0441 6.88938 12.0582 6.91759 12.0441 6.9881ZM16.6681 6.11606C16.6681 6.14427 16.7104 6.25709 16.7104 6.32761C16.7104 6.41223 16.6681 6.46864 16.6399 6.55091C16.5976 6.63553 16.5694 6.76245 16.5835 6.87528C16.5835 6.974 16.6399 7.07272 16.7104 7.15734C16.7668 7.24196 16.8514 7.31013 16.9359 7.38064C17.0346 7.45116 17.1474 7.52167 17.2437 7.57809C17.3424 7.6204 17.4129 7.6486 17.4129 7.6345C17.3988 7.62039 17.3142 7.56398 17.1897 7.46526C17.0769 7.38064 16.9218 7.26782 16.8373 7.15734C16.7527 7.03041 16.7245 6.93169 16.7386 6.83297C16.7527 6.73425 16.8091 6.64963 16.8373 6.57911C16.8655 6.5086 16.8936 6.44043 16.8795 6.38402C16.8655 6.31351 16.8373 6.24299 16.7809 6.18658C16.7386 6.13016 16.6822 6.08786 16.6681 6.11606ZM14.786 10.8547C14.9388 10.8688 15.2066 10.897 15.4745 10.897C15.74 10.897 16.0078 10.8688 16.2193 10.8406C16.4308 10.7983 16.5976 10.756 16.6681 10.7419C16.7527 10.7278 16.7527 10.7419 16.6399 10.7983C16.5271 10.8547 16.3039 10.9534 16.036 11.0098C15.7682 11.0522 15.4604 11.0522 15.2066 11.024C14.9529 10.9957 14.772 10.9252 14.7015 10.8829C14.6169 10.8547 14.6451 10.8406 14.786 10.8547ZM13.3387 10.5444C13.4632 10.5162 13.7029 10.4457 13.9425 10.4175C14.1799 10.3893 14.4054 10.3893 14.631 10.4175C14.8424 10.4457 15.0375 10.5021 15.3617 10.5162C15.6695 10.5303 16.1206 10.488 16.4848 10.4316C16.8514 10.3752 17.1615 10.2788 17.3283 10.2224C17.4975 10.1519 17.5539 10.1378 17.4411 10.1519C17.3283 10.166 17.0628 10.2365 16.6822 10.2506C16.3039 10.2788 15.8246 10.2647 15.4181 10.2506C15.0234 10.2224 14.7156 10.1942 14.4336 10.2224C14.1517 10.2365 13.8861 10.2929 13.6747 10.3611C13.4632 10.4316 13.2964 10.5021 13.24 10.5444C13.1695 10.5868 13.1977 10.5868 13.3387 10.5444ZM15.9233 11.8396C15.9092 11.8537 15.9656 11.8936 16.0078 11.936C16.036 11.9783 16.0501 12.0206 16.0501 12.0629C16.0501 12.1052 16.036 12.1616 16.036 12.218C16.036 12.2744 16.0501 12.3308 16.0783 12.5283C16.0924 12.7234 16.1347 13.0619 16.1488 13.1465C16.1629 13.2311 16.177 13.0619 16.177 12.8644C16.177 12.667 16.177 12.4578 16.177 12.3308C16.1911 12.2039 16.2193 12.1616 16.2475 12.1334C16.2616 12.1193 16.2898 12.1193 16.2898 12.1475C16.2898 12.1757 16.2898 12.2321 16.2757 12.2744C16.2757 12.3167 16.2757 12.359 16.2898 12.3731C16.3039 12.3873 16.318 12.3873 16.3744 12.3731C16.4167 12.359 16.4848 12.3308 16.5553 12.3449C16.6258 12.3449 16.6963 12.3731 16.795 12.4155C16.8795 12.4578 16.9923 12.5001 17.1192 12.5142C17.2437 12.5424 17.3847 12.5565 17.5257 12.5424C17.6526 12.5283 17.7654 12.486 17.8781 12.4014C17.9745 12.3308 18.0731 12.2039 18.1154 12.1334C18.1436 12.0488 18.1295 12.0206 18.0872 11.9783C18.045 11.936 17.9745 11.8654 17.8922 11.8255C17.8076 11.7691 17.6949 11.7409 17.5398 11.7268C17.3847 11.7127 17.1897 11.7268 17.0487 11.755C16.9077 11.7973 16.8373 11.8396 16.795 11.8795C16.7386 11.9077 16.7245 11.9218 16.7668 11.8795C16.8091 11.8396 16.9218 11.7268 17.0487 11.6421C17.1756 11.5716 17.3142 11.5293 17.4834 11.5293C17.6385 11.5434 17.8076 11.5857 17.9345 11.6703C18.0591 11.7409 18.1295 11.8396 18.1859 11.9077C18.2423 11.9783 18.2987 12.0488 18.3692 12.0488C18.4397 12.0629 18.5384 12.0206 18.623 11.9642C18.6934 11.9077 18.7475 11.8396 18.7898 11.7832C18.818 11.7268 18.8321 11.6986 18.7898 11.628C18.7475 11.5575 18.6653 11.4588 18.623 11.4024C18.5666 11.346 18.5384 11.3319 18.5666 11.3601C18.5807 11.3883 18.623 11.4729 18.6512 11.5293C18.6934 11.5998 18.7075 11.6421 18.6653 11.6985C18.6089 11.755 18.5102 11.8255 18.4256 11.8255C18.3269 11.8255 18.2564 11.755 18.1718 11.6562C18.0872 11.5434 18.0168 11.4024 17.9204 11.3037C17.8358 11.219 17.7231 11.1767 17.5539 11.1908C17.3847 11.2049 17.1756 11.2472 17.0064 11.3037C16.8373 11.3601 16.7245 11.4165 16.6258 11.4447C16.5271 11.487 16.4425 11.487 16.3885 11.5011C16.3321 11.5152 16.3039 11.5293 16.2757 11.5716C16.2475 11.6139 16.2334 11.6844 16.2052 11.7268C16.177 11.7691 16.1629 11.7973 16.0924 11.8114C16.036 11.8255 15.9374 11.8255 15.9233 11.8396ZM16.6963 12.1898C16.7245 12.1475 16.795 12.0629 16.8655 12.0065C16.9359 11.9501 17.0205 11.8936 17.1474 11.8654C17.2578 11.8396 17.4129 11.8255 17.5539 11.8537C17.6808 11.8654 17.8076 11.9218 17.8781 11.9642C17.9486 12.0206 17.9745 12.0488 17.9886 12.077C18.0027 12.0911 18.0027 12.1052 17.9886 12.1475C17.9627 12.1757 17.9204 12.2321 17.864 12.2885C17.8076 12.3308 17.7231 12.3731 17.6244 12.4014C17.5116 12.4155 17.3706 12.4296 17.2578 12.4155C17.1333 12.4155 17.0346 12.3731 16.95 12.3449C16.8655 12.3167 16.7809 12.2885 16.7386 12.2744C16.6822 12.2462 16.6681 12.2321 16.6963 12.1898ZM14.5182 12.2462C14.4759 12.2039 14.4054 12.1334 14.3067 12.077C14.208 12.0347 14.0835 12.0065 13.9707 11.9924C13.8439 11.9924 13.7311 12.0206 13.6183 12.0488C13.5055 12.0911 13.4068 12.1616 13.3387 12.2039C13.2823 12.2603 13.2541 12.3026 13.2682 12.3308C13.2823 12.3731 13.3387 12.4155 13.4068 12.4578C13.4914 12.486 13.576 12.5142 13.6747 12.5283C13.7734 12.5424 13.858 12.5424 13.9566 12.5283C14.0553 12.5142 14.154 12.486 14.2503 12.4578C14.3349 12.4296 14.4336 12.3873 14.4759 12.3449C14.5323 12.3167 14.5464 12.2885 14.5182 12.2462Z" fill="#111E6C"/>
<path d="M2.79603 8.88498L2.95111 8.57706L4.86369 8.7886L4.70861 9.09652L4.31388 9.05421L3.97788 9.71471L4.24339 10.0109L4.07657 10.3352L2.79603 8.88498ZM3.30355 8.95549L3.73822 9.4491L3.96379 9.02601L3.30355 8.95549ZM4.52534 6.2994L4.765 6.01734C4.89188 5.87631 5.00231 5.77759 5.0869 5.73763C5.17148 5.69532 5.25607 5.68122 5.35475 5.69532C5.45344 5.70942 5.53802 5.74938 5.62261 5.8199C5.72129 5.90451 5.77533 6.00324 5.78943 6.10196C5.81763 6.21478 5.80353 6.31351 5.74714 6.42633C5.72129 6.48274 5.6508 6.57911 5.53802 6.72015L6.11368 7.21376L5.88811 7.46526L4.52534 6.2994ZM5.28427 6.49685L5.35475 6.41223C5.41114 6.35581 5.45344 6.2994 5.45344 6.2712C5.46753 6.22889 5.48163 6.20068 5.46754 6.17247C5.45344 6.13017 5.43934 6.10196 5.41114 6.07375C5.35475 6.03144 5.29836 6.01734 5.24197 6.04555C5.19968 6.05965 5.14329 6.10196 5.0728 6.18658L5.00231 6.25709L5.28427 6.49685ZM6.75982 4.12047L7.04177 3.90892L8.15079 5.32864L7.88528 5.54018L6.75982 4.12047ZM9.50181 4.42839L9.51591 3.41766L8.6865 2.82533L9.66863 2.31997L9.80961 2.61614L9.31854 2.86764L9.8378 3.24843L9.82371 3.88072L10.343 3.61276L10.498 3.92303L9.50181 4.42839ZM11.4402 1.65947L12.3965 1.37741L12.4952 1.70178L12.171 1.80051L12.5657 3.20612L12.2415 3.29074L11.835 1.88512L11.5248 1.9815L11.4402 1.65947ZM15.3194 0.942566C15.5732 0.942566 15.7823 1.02718 15.9797 1.20817C16.1629 1.37741 16.2616 1.60306 16.2757 1.87102C16.2757 2.13663 16.1911 2.36228 16.0079 2.54562C15.8387 2.72661 15.6296 2.82533 15.3617 2.83944C15.0939 2.83944 14.8707 2.75482 14.6874 2.57383C14.5041 2.39049 14.4054 2.16484 14.4054 1.91333C14.3913 1.74409 14.4336 1.57486 14.5182 1.43382C14.5887 1.29279 14.7015 1.16587 14.8425 1.0836C14.9952 0.998978 15.1503 0.942566 15.3194 0.942566ZM15.3194 1.27869C15.1503 1.27869 15.0093 1.34921 14.913 1.46203C14.8002 1.58896 14.7438 1.72999 14.7438 1.91333C14.7579 2.10842 14.8284 2.26356 14.967 2.37638C15.0798 2.461 15.2067 2.50331 15.3617 2.50331C15.5168 2.50331 15.6578 2.4328 15.7682 2.31997C15.881 2.19304 15.9233 2.05201 15.9233 1.88512C15.9233 1.70178 15.8528 1.56075 15.74 1.44793C15.6296 1.3351 15.4886 1.27869 15.3194 1.27869ZM18.1437 1.15176L19.114 1.321L19.0577 1.65947L18.7358 1.60306L18.482 3.03688L18.1296 2.98047L18.3974 1.53255L18.0732 1.47613L18.1437 1.15176ZM21.2076 1.9956L22.1215 2.34818L22.0088 2.67255L21.4049 2.4328L21.2921 2.72661L21.8819 2.96636L21.7715 3.27663L21.1653 3.03688L20.9984 3.47173L21.5882 3.71148L21.4613 4.02175L20.5473 3.66917L21.2076 1.9956ZM21.0525 1.88512L20.8434 2.30587L20.6178 2.20715L20.7447 1.7582L21.0525 1.88512ZM23.9213 5.56839L24.2855 4.20509L23.106 4.97606L22.81 4.76686L24.4124 3.71148L24.6944 3.90892L24.215 5.77759L23.9213 5.56839ZM26.7174 5.74938L26.9429 6.01734L26.4213 6.45454L26.8161 6.91759L27.3353 6.46864L27.5609 6.73425L26.1981 7.90246L25.9726 7.6486L26.5764 7.12914L26.184 6.67784L25.5802 7.18555L25.3546 6.93169L26.7174 5.74938ZM27.098 9.27986L28.1083 9.29397L28.6981 8.46423L29.2056 9.4491L28.8955 9.60188L28.6441 9.11063L28.2775 9.63009L27.6455 9.61599L27.8992 10.1378L27.6032 10.2929L27.098 9.27986Z" fill="#F8F8F8"/>
<path d="M4.5817 22.5109C4.69448 22.7342 4.70858 22.974 4.62399 23.2278C4.5394 23.4652 4.37023 23.6486 4.13292 23.7614C3.90736 23.8742 3.6677 23.9024 3.41629 23.8178C3.17663 23.7332 2.99336 23.5781 2.88058 23.3383C2.7678 23.1009 2.7537 22.8612 2.83829 22.6073C2.93697 22.3699 3.09205 22.2007 3.31761 22.0878C3.47033 22.0032 3.6395 21.975 3.80868 21.9891C3.97785 22.0032 4.11882 22.0455 4.25745 22.1442C4.39843 22.243 4.51121 22.3558 4.5817 22.5109ZM4.27155 22.6496C4.20341 22.5109 4.09063 22.4122 3.93556 22.3558C3.78048 22.2994 3.62541 22.3135 3.47033 22.3981C3.28941 22.4827 3.17663 22.6214 3.13434 22.7906C3.10614 22.9317 3.12024 23.0727 3.17663 23.1996C3.26122 23.3383 3.374 23.437 3.52672 23.4934C3.6818 23.5358 3.83687 23.5216 3.99195 23.4511C4.14702 23.3806 4.24335 23.2701 4.29974 23.115C4.35613 22.9599 4.35613 22.8047 4.27155 22.6496ZM5.52389 24.0435L5.733 24.2809L5.34062 25.6442L6.24052 24.8708L6.46608 25.1388L5.10096 26.307L4.89184 26.0532L5.28423 24.704L4.38433 25.4773L4.16112 25.2093L5.52389 24.0435ZM7.2391 25.9262L7.49051 26.1519L6.53422 27.2613L6.91486 27.5998L6.70339 27.8396L6.07135 27.2895L7.2391 25.9262ZM8.67236 27.0521L8.95196 27.2331L7.98393 28.7375L7.70197 28.5565L8.67236 27.0521ZM9.93645 27.8254L10.2184 27.95L10.4275 29.358L10.935 28.2744L11.2428 28.4295L10.4839 30.0608L10.1902 29.9198L9.97874 28.5283L9.48767 29.5954L9.17753 29.4544L9.93645 27.8254ZM12.2978 28.7657L13.24 29.0477L13.1554 29.3721L12.5375 29.1888L12.4388 29.4967L13.0567 29.68L12.9721 29.9903L12.3542 29.821L12.2132 30.27L12.8312 30.4533L12.7466 30.7777L11.7926 30.4956L12.2978 28.7657ZM15.3476 29.2875L15.6977 29.3016L16.3321 31.1279L15.9796 31.1138L15.8387 30.7354L15.1079 30.7213L14.9529 31.0856L14.6028 31.0715L15.3476 29.2875ZM15.5027 29.7787L15.2489 30.3828L15.7259 30.3969L15.5027 29.7787ZM18.9307 29.3016L18.7357 29.5672C18.5525 29.4285 18.3551 29.3721 18.1436 29.4144C17.9745 29.4426 17.8499 29.5249 17.7512 29.6659C17.6667 29.7928 17.6244 29.948 17.6667 30.1172C17.6808 30.2418 17.723 30.3405 17.7935 30.4251C17.864 30.5097 17.9486 30.5662 18.0449 30.5944C18.1577 30.6367 18.2705 30.6367 18.3833 30.6226C18.482 30.5944 18.5666 30.5662 18.637 30.5097C18.7075 30.4533 18.7898 30.3828 18.8744 30.2559L19.1422 30.4533C19.0294 30.6085 18.9307 30.7213 18.818 30.7918C18.7216 30.8623 18.5807 30.9187 18.4397 30.9469C18.1577 30.9869 17.9204 30.9469 17.7089 30.8059C17.4975 30.6649 17.3706 30.4533 17.3283 30.1877C17.286 30.0044 17.3001 29.8492 17.3565 29.6941C17.4129 29.539 17.5116 29.4144 17.6385 29.3016C17.7794 29.1888 17.9204 29.1182 18.1013 29.09C18.2423 29.0618 18.3833 29.0618 18.5384 29.1041C18.6793 29.1323 18.818 29.2029 18.9307 29.3016ZM20.3217 28.5706L20.646 28.4436L21.9382 29.8775L21.6022 30.0044L21.3344 29.7082L20.646 29.9762V30.3687L20.3217 30.4956V28.5706ZM20.6601 28.949L20.646 29.6095L21.1088 29.4426L20.6601 28.949ZM22.1497 27.7549L22.5021 27.5575C22.7254 27.4165 22.9086 27.3459 23.0496 27.3459C23.2047 27.3318 23.3433 27.3742 23.4843 27.4588C23.6253 27.5434 23.7521 27.6703 23.8508 27.8396C23.9213 27.95 23.9636 28.077 23.9777 28.2039C24.0059 28.3308 23.9918 28.4436 23.9636 28.5424C23.9354 28.6552 23.879 28.7375 23.8226 28.8221C23.7521 28.8926 23.6112 28.9913 23.4138 29.1041L23.0637 29.3157L22.1497 27.7549ZM22.6126 27.8678L23.1906 28.8503L23.3175 28.7657C23.4561 28.6951 23.5407 28.6129 23.583 28.5565C23.6253 28.4859 23.6535 28.4013 23.6394 28.3026C23.6394 28.218 23.6112 28.1052 23.5407 28.0064C23.4561 27.8396 23.3292 27.7408 23.1906 27.6985C23.0496 27.6703 22.8945 27.6985 22.7113 27.8113L22.6126 27.8678ZM24.1586 26.4034L24.9034 25.7711L25.1149 26.025L24.6379 26.4457L24.847 26.6854L25.3264 26.2647L25.5378 26.5162L25.0585 26.9393L25.3687 27.3036L25.8456 26.8829L26.0712 27.1367L25.3264 27.7831L24.1586 26.4034ZM25.6906 25.0119L25.8879 24.7463L27.1403 25.1811L26.4072 24.0858L26.6046 23.8178L28.2211 24.6758L28.0096 24.9414L26.9993 24.3937L27.6595 25.3927L27.4763 25.6301L26.3531 25.2375L27.1262 26.0955L26.9147 26.3493L25.6906 25.0119ZM27.2084 22.9176L27.3776 22.5791L28.0942 22.565L27.6736 21.9891L27.8287 21.653L28.5171 22.5791L29.2056 22.9317L29.0646 23.2419L28.3621 22.8894L27.2084 22.9176Z" fill="#F8F8F8"/>
<path d="M2.09356 18.5174C2.10766 18.602 2.12176 18.6866 2.13585 18.7971C2.16405 18.8817 2.17815 18.9663 2.19224 19.0792L2.23454 19.2343L2.38961 19.192L2.96527 19.0651L3.10624 19.0228L3.07805 18.8676C3.06395 18.7971 3.04985 18.7289 3.03575 18.6443C3.02166 18.5738 3.00756 18.5033 2.99346 18.4046C2.96527 18.3199 2.96527 18.2494 2.95117 18.1789C2.93707 18.1225 2.92297 18.0379 2.90888 17.9556L2.89478 17.7864L2.7397 17.8146C2.55878 17.8428 2.37551 17.871 2.19224 17.8992L1.43332 18.0097L1.44742 18.1648C1.46151 18.3058 1.48971 18.4469 1.50381 18.5879C1.532 18.7148 1.5602 18.8535 1.58839 18.9945C1.61659 19.1215 1.64478 19.2625 1.67298 19.4035C1.71527 19.5422 1.74347 19.6691 1.78576 19.8102L1.82805 19.9653L1.98078 19.923C2.30503 19.8243 2.62927 19.7397 2.95117 19.655C2.97936 19.7256 2.99346 19.7961 3.02166 19.8666C3.04985 19.9935 3.09215 20.1204 3.13444 20.2333C3.17673 20.3578 3.23312 20.4707 3.27541 20.5976C3.30361 20.6681 3.33181 20.7245 3.36 20.795L2.57288 21.1171C2.55878 21.0889 2.54469 21.0607 2.53059 21.0348C2.50239 20.9502 2.4742 20.8656 2.4319 20.795C2.41781 20.7245 2.37551 20.6399 2.34732 20.5553L2.31912 20.4566L2.57288 20.372C2.58698 20.4143 2.60108 20.4566 2.61517 20.4989C2.64337 20.5835 2.67156 20.6681 2.71151 20.7668L3.00756 20.654C2.97936 20.5835 2.95117 20.4848 2.90888 20.3861C2.88068 20.3014 2.85248 20.2051 2.82429 20.1204L2.7679 19.9794C2.48829 20.0781 2.20634 20.1628 1.91264 20.2615L1.96668 20.4002C1.99488 20.4989 2.02307 20.5835 2.05127 20.654C2.07946 20.7386 2.10766 20.8091 2.13585 20.9079C2.17815 20.9784 2.20634 21.0607 2.23454 21.1453C2.27683 21.244 2.30503 21.3145 2.34732 21.385L2.40371 21.5261C2.85248 21.3427 3.31771 21.1594 3.76648 20.9784L3.71009 20.8233C3.6678 20.7104 3.61141 20.5976 3.56912 20.4848C3.52682 20.3578 3.47278 20.2474 3.43049 20.1345C3.3882 20.0076 3.36 19.8948 3.31771 19.782C3.27541 19.655 3.24722 19.5281 3.20493 19.4176L3.16263 19.2625C2.79609 19.3612 2.41781 19.4741 2.05127 19.5704C2.02307 19.4882 2.00897 19.4176 1.98078 19.333C1.95258 19.192 1.92674 19.0651 1.89854 18.924C1.87035 18.7971 1.84215 18.6725 1.81396 18.5315C1.81396 18.4469 1.79986 18.3623 1.78576 18.2776L2.62927 18.1507L2.64337 18.2353C2.65747 18.3199 2.67156 18.4046 2.67156 18.461C2.68566 18.5315 2.69976 18.6161 2.72561 18.7007L2.7397 18.783L2.4742 18.8535L2.446 18.7289C2.4319 18.6443 2.41781 18.5597 2.40371 18.4469L2.09356 18.5174Z" fill="white"/>
<path d="M29.2902 11.219C29.3184 11.3036 29.3466 11.3883 29.3889 11.487C29.4171 11.5716 29.443 11.6703 29.4711 11.7549L29.5275 11.9077L29.3748 11.9641L28.8109 12.1334L28.6699 12.1757L28.6159 12.0347C28.5877 11.9641 28.5736 11.8795 28.5454 11.8114C28.5172 11.7408 28.489 11.6703 28.4608 11.5857C28.4326 11.5011 28.4044 11.4306 28.3762 11.3601C28.3621 11.3036 28.3339 11.2331 28.2916 11.1485L28.2353 10.9957L28.3903 10.9393C28.5595 10.8688 28.7263 10.8124 28.8955 10.7419L29.6121 10.4598L29.6685 10.6008C29.7249 10.7278 29.7813 10.8688 29.8236 10.9957C29.88 11.1203 29.9223 11.2472 29.9646 11.3883C30.021 11.5152 30.0492 11.6562 30.0914 11.7832C30.1337 11.9218 30.1619 12.0488 30.2042 12.1898L30.2442 12.3449L30.0914 12.3872C29.7672 12.4719 29.4453 12.5565 29.107 12.6387C29.1352 12.7093 29.1493 12.7798 29.1633 12.8644C29.1915 12.9913 29.2197 13.1182 29.2479 13.2452C29.2761 13.3721 29.2902 13.4967 29.3043 13.6236C29.3184 13.6941 29.3325 13.7646 29.3325 13.8352L30.176 13.7223C30.176 13.68 30.176 13.6518 30.1619 13.6236C30.1619 13.539 30.1478 13.4544 30.1337 13.3721C30.1196 13.2875 30.1055 13.2029 30.0914 13.1182L30.0632 13.0195L29.8095 13.0759C29.8095 13.1182 29.8236 13.1606 29.8236 13.2029C29.8377 13.2875 29.8659 13.3862 29.88 13.4826L29.5698 13.539C29.5557 13.4544 29.5416 13.3721 29.5134 13.2593C29.4993 13.1606 29.4852 13.0618 29.4711 12.9772L29.4312 12.8362C29.7249 12.7657 30.021 12.7093 30.3147 12.6387L30.3429 12.7939C30.3569 12.8926 30.3851 12.9772 30.3992 13.0618C30.4133 13.1324 30.4274 13.217 30.4415 13.3157C30.4556 13.398 30.4697 13.4826 30.4838 13.5813C30.4838 13.68 30.4979 13.7646 30.512 13.8352L30.5261 13.9903C30.0351 14.0608 29.5557 14.1313 29.0647 14.1995L29.0506 14.0326C29.0224 13.9198 29.0083 13.7928 28.9942 13.6659C28.9801 13.539 28.9519 13.4121 28.9378 13.3016C28.9096 13.1606 28.8814 13.0477 28.8532 12.9349C28.825 12.808 28.7968 12.6811 28.7686 12.5565L28.7263 12.4154C29.107 12.3167 29.4852 12.218 29.8518 12.1193C29.8377 12.0347 29.8095 11.95 29.7954 11.8795C29.7531 11.7408 29.7108 11.6139 29.6685 11.487C29.6262 11.3601 29.5839 11.2331 29.5275 11.1062C29.4993 11.0239 29.4711 10.9393 29.4453 10.8688L28.6441 11.1767L28.6723 11.2472C28.7122 11.3319 28.7404 11.4024 28.7545 11.4729C28.7827 11.5434 28.8109 11.6139 28.8391 11.6985L28.8673 11.7832L29.1211 11.7126L29.0929 11.5857C29.0647 11.5011 29.0224 11.4165 28.9942 11.3177L29.2902 11.219Z" fill="white"/>
<path d="M1.91262 14.82C1.91262 14.9164 1.89852 15.001 1.89852 15.1139C1.88443 15.1985 1.88443 15.2972 1.87033 15.3959V15.5511L2.02305 15.5652L2.61515 15.5793L2.76788 15.5934V15.4382C2.78198 15.3536 2.78198 15.2831 2.78198 15.1985C2.79607 15.128 2.79607 15.0433 2.81017 14.9587C2.81017 14.8765 2.82427 14.7918 2.82427 14.7354C2.83837 14.6649 2.83837 14.5803 2.85246 14.4957L2.88066 14.3405L2.71149 14.3123C2.53057 14.2982 2.3614 14.2841 2.17813 14.2559L1.40511 14.1713L1.39101 14.3264C1.36281 14.4675 1.34872 14.6085 1.33462 14.7495C1.32052 14.8765 1.30642 15.0151 1.29233 15.1562C1.29233 15.2972 1.29233 15.4382 1.27823 15.5793C1.27823 15.7179 1.27823 15.859 1.27823 16V16.1551H1.4474C1.78574 16.1551 2.10764 16.1551 2.44598 16.1551C2.46008 16.2257 2.46008 16.2962 2.46008 16.3808C2.46008 16.5054 2.47418 16.6464 2.47418 16.7592C2.48827 16.8861 2.50237 17.0131 2.51647 17.1541C2.53057 17.2105 2.53057 17.2928 2.54467 17.3633L1.70116 17.4761C1.70116 17.4338 1.68706 17.4056 1.68706 17.3633C1.67296 17.2928 1.67296 17.2105 1.65886 17.1259C1.65886 17.0413 1.64477 16.9567 1.64477 16.8579L1.63067 16.7592L1.89852 16.7451C1.89852 16.8015 1.89852 16.8438 1.91027 16.8861C1.91027 16.9708 1.92437 17.0554 1.93847 17.1682L2.24862 17.14C2.23452 17.0554 2.23452 16.9567 2.22042 16.8579C2.20632 16.7592 2.20632 16.6605 2.20632 16.5759L2.19222 16.4231C1.89617 16.4372 1.58838 16.4513 1.29233 16.4631L1.30642 16.6182C1.30642 16.7169 1.32052 16.8156 1.32052 16.8861C1.33462 16.9708 1.33462 17.0554 1.34872 17.1541C1.34872 17.2364 1.36281 17.321 1.37691 17.4056C1.39101 17.5043 1.40511 17.589 1.4192 17.6736L1.4333 17.8287C1.92437 17.7582 2.41779 17.7018 2.90885 17.6454L2.88066 17.4761C2.86656 17.3633 2.85246 17.2364 2.82427 17.1118C2.81017 16.9849 2.81017 16.8579 2.79607 16.7451C2.78198 16.6041 2.78198 16.4772 2.76788 16.3667C2.76788 16.2398 2.76788 16.1128 2.76788 15.9859L2.75378 15.8308C2.37549 15.8308 1.98076 15.8308 1.60247 15.8449C1.60247 15.7602 1.60247 15.678 1.60247 15.5934C1.60247 15.4523 1.60247 15.3254 1.61657 15.1844C1.61657 15.0433 1.63067 14.9047 1.64477 14.7777C1.65886 14.6931 1.67296 14.6085 1.67296 14.5239L2.53057 14.6226L2.51647 14.6931C2.50237 14.7777 2.50237 14.8623 2.48827 14.9305C2.48827 15.001 2.47418 15.0856 2.47418 15.1703V15.2549H2.19222L2.20632 15.128C2.20632 15.0433 2.22042 14.9446 2.23452 14.8482L1.91027 14.82H1.91262Z" fill="white"/>
<path d="M30.0773 14.82C30.0773 14.9164 30.0914 15.001 30.0914 15.1139C30.1055 15.1985 30.1055 15.2972 30.1196 15.3959V15.5511L29.9645 15.5652L29.3748 15.5793L29.2197 15.5934V15.4382C29.2056 15.3536 29.2056 15.2831 29.2056 15.1985C29.1915 15.128 29.1915 15.0433 29.1774 14.9587C29.1774 14.8765 29.1633 14.7918 29.1633 14.7354C29.1492 14.6649 29.1492 14.5803 29.1351 14.4957L29.1069 14.3405L29.2761 14.3123C29.457 14.2982 29.6262 14.2841 29.8094 14.2559L30.5825 14.1713L30.5965 14.3264C30.6247 14.4675 30.6388 14.6085 30.6529 14.7495C30.667 14.8765 30.6811 15.0151 30.6952 15.1562C30.6952 15.2972 30.6952 15.4382 30.7093 15.5793C30.7093 15.7179 30.7093 15.859 30.7093 16V16.1551H30.5402C30.2018 16.1551 29.8799 16.1551 29.5416 16.1551C29.5275 16.2257 29.5275 16.2962 29.5275 16.3808C29.5275 16.5054 29.5134 16.6464 29.5134 16.7592C29.4993 16.8861 29.4852 17.0131 29.4711 17.1541C29.457 17.2105 29.457 17.2928 29.4429 17.3633L30.2864 17.4761C30.2864 17.4338 30.3005 17.4056 30.3005 17.3633C30.3146 17.2928 30.3146 17.2105 30.3287 17.1259C30.3287 17.0413 30.3428 16.9567 30.3428 16.8579L30.3569 16.7592L30.0914 16.7451C30.0914 16.8015 30.0914 16.8438 30.0773 16.8861C30.0773 16.9708 30.0632 17.0554 30.0491 17.1682L29.7389 17.14C29.753 17.0554 29.753 16.9567 29.7671 16.8579C29.7812 16.7592 29.7812 16.6605 29.7812 16.5759L29.7953 16.4231C30.0914 16.4372 30.3992 16.4513 30.6952 16.4631L30.6811 16.6182C30.6811 16.7169 30.667 16.8156 30.667 16.8861C30.6529 16.9708 30.6529 17.0554 30.6388 17.1541C30.6388 17.2364 30.6247 17.321 30.6106 17.4056C30.5965 17.5043 30.5825 17.589 30.5684 17.6736L30.5543 17.8287C30.0632 17.7582 29.5698 17.7018 29.0787 17.6454L29.1069 17.4761C29.121 17.3633 29.1351 17.2364 29.1633 17.1118C29.1774 16.9849 29.1774 16.8579 29.1915 16.7451C29.2056 16.6041 29.2056 16.4772 29.2197 16.3667C29.2197 16.2398 29.2197 16.1128 29.2197 15.9859L29.2338 15.8308C29.6121 15.8308 30.0068 15.8308 30.3851 15.8449C30.3851 15.7602 30.3851 15.678 30.3851 15.5934C30.3851 15.4523 30.3851 15.3254 30.371 15.1844C30.371 15.0433 30.3569 14.9047 30.3428 14.7777C30.3287 14.6931 30.3146 14.6085 30.3146 14.5239L29.4593 14.6226L29.4711 14.6931C29.4852 14.7777 29.4852 14.8623 29.4993 14.9305C29.4993 15.001 29.5134 15.0856 29.5134 15.1703V15.2549H29.7953L29.7812 15.128C29.7812 15.0433 29.7671 14.9446 29.753 14.8482L30.0773 14.82Z" fill="white"/>
<path d="M2.69732 11.219C2.67148 11.3036 2.62918 11.3883 2.60099 11.487C2.57279 11.5716 2.5446 11.6703 2.5164 11.7549L2.46001 11.9077L2.61509 11.9641L3.17664 12.1334L3.31762 12.1757L3.37401 12.0347C3.4022 11.9641 3.4163 11.8795 3.44215 11.8114C3.47034 11.7408 3.49854 11.6703 3.52673 11.5857C3.55493 11.5011 3.58312 11.4306 3.61132 11.3601C3.62542 11.3036 3.65361 11.2331 3.69591 11.1485L3.7523 10.9957L3.59722 10.9393C3.4304 10.8688 3.26123 10.8124 3.09206 10.7419L2.37543 10.4598L2.31904 10.6008C2.26265 10.7278 2.20626 10.8688 2.16396 10.9957C2.10757 11.1203 2.06528 11.2472 2.02299 11.3883C1.9666 11.5152 1.9384 11.6562 1.89846 11.7832C1.85616 11.9218 1.82797 12.0488 1.78568 12.1898L1.74338 12.3449L1.89846 12.3872C2.22035 12.4719 2.5446 12.5565 2.88059 12.6387C2.8524 12.7093 2.8383 12.7798 2.8242 12.8644C2.79601 12.9913 2.76781 13.1182 2.73962 13.2452C2.71142 13.3721 2.69732 13.4967 2.68323 13.6236C2.66913 13.6941 2.65738 13.7646 2.65738 13.8352L1.81387 13.7223C1.81387 13.68 1.81387 13.6518 1.82797 13.6236C1.82797 13.539 1.84207 13.4544 1.85616 13.3721C1.87026 13.2875 1.88436 13.2029 1.89846 13.1182L1.9243 13.0195L2.17806 13.0759C2.17806 13.1182 2.16396 13.1606 2.16396 13.2029C2.14986 13.2875 2.12167 13.3862 2.10757 13.4826L2.41772 13.539C2.43182 13.4544 2.44591 13.3721 2.47411 13.2593C2.48821 13.1606 2.50231 13.0618 2.5164 12.9772L2.5587 12.8362C2.26265 12.7657 1.9666 12.7093 1.67289 12.6387L1.6447 12.7939C1.6306 12.8926 1.60241 12.9772 1.58831 13.0618C1.57421 13.1324 1.56011 13.217 1.54602 13.3157C1.53192 13.398 1.51782 13.4826 1.50372 13.5813C1.50372 13.68 1.48962 13.7646 1.47553 13.8352L1.46143 13.9903C1.9525 14.0608 2.43182 14.1313 2.92289 14.1995L2.93698 14.0326C2.96518 13.9198 2.97928 13.7928 2.99337 13.6659C3.00747 13.539 3.03567 13.4121 3.04976 13.3016C3.07796 13.1606 3.10615 13.0477 3.13435 12.9349C3.16255 12.808 3.19074 12.6811 3.21894 12.5565L3.26123 12.4154C2.88059 12.3167 2.50231 12.218 2.13577 12.1193C2.14986 12.0347 2.17806 11.95 2.19216 11.8795C2.23445 11.7408 2.27674 11.6139 2.31904 11.487C2.36133 11.3601 2.40362 11.2331 2.46001 11.1062C2.48821 11.0239 2.5164 10.9393 2.5446 10.8688L3.34581 11.1767L3.31762 11.2472C3.27533 11.3319 3.24713 11.4024 3.23303 11.4729C3.20484 11.5434 3.17664 11.6139 3.14845 11.6985L3.12025 11.7832L2.86649 11.7126L2.89469 11.5857C2.92289 11.5011 2.96518 11.4165 2.99337 11.3177L2.69732 11.219Z" fill="white"/>
<path d="M29.8941 18.5174C29.88 18.602 29.8659 18.6866 29.8518 18.7971C29.8236 18.8817 29.8095 18.9663 29.7954 19.0792L29.7531 19.2343L29.598 19.192L29.0224 19.0651L28.8814 19.0228L28.9096 18.8676C28.9237 18.7971 28.9378 18.7289 28.9519 18.6443C28.966 18.5738 28.9801 18.5033 28.9942 18.4046C29.0224 18.3199 29.0224 18.2494 29.0365 18.1789C29.0506 18.1225 29.0647 18.0379 29.0788 17.9556L29.0929 17.7864L29.2479 17.8146C29.4289 17.8428 29.6121 17.871 29.7954 17.8992L30.5543 18.0097L30.5402 18.1648C30.5261 18.3058 30.4979 18.4469 30.4838 18.5879C30.4556 18.7148 30.4274 18.8535 30.3993 18.9945C30.3711 19.1215 30.3429 19.2625 30.3147 19.4035C30.2724 19.5422 30.2442 19.6691 30.2019 19.8102L30.1619 19.9653L30.0069 19.923C29.6826 19.8243 29.3607 19.7397 29.0365 19.655C29.0083 19.7256 28.9942 19.7961 28.966 19.8666C28.9378 19.9935 28.8955 20.1204 28.8532 20.2333C28.8109 20.3578 28.7545 20.4707 28.7122 20.5976C28.684 20.6681 28.6582 20.7245 28.63 20.795L29.4171 21.1171C29.4289 21.0889 29.443 21.0607 29.4571 21.0348C29.4853 20.9502 29.5134 20.8656 29.5557 20.795C29.5698 20.7245 29.6121 20.6399 29.6403 20.5553L29.6685 20.4566L29.4171 20.372C29.403 20.4143 29.3889 20.4566 29.3748 20.4989C29.3466 20.5835 29.3184 20.6681 29.2761 20.7668L28.9801 20.654C29.0083 20.5835 29.0365 20.4848 29.0788 20.3861C29.107 20.3014 29.1352 20.2051 29.1634 20.1204L29.2197 19.9794C29.4994 20.0781 29.7813 20.1628 30.0774 20.2615L30.021 20.4002C29.9928 20.4989 29.9646 20.5835 29.9364 20.654C29.9082 20.7386 29.88 20.8091 29.8518 20.9079C29.8095 20.9784 29.7813 21.0607 29.7531 21.1453C29.7108 21.244 29.6826 21.3145 29.6403 21.385L29.5839 21.5261C29.1352 21.3427 28.6699 21.1594 28.2212 20.9784L28.2776 20.8233C28.3198 20.7104 28.3762 20.5976 28.4185 20.4848C28.4608 20.3578 28.5172 20.2474 28.5595 20.1345C28.6018 20.0076 28.63 19.8948 28.6699 19.782C28.7122 19.655 28.7404 19.5281 28.7827 19.4176L28.825 19.2625C29.1916 19.3612 29.5698 19.4741 29.9364 19.5704C29.9646 19.4882 29.9787 19.4176 30.0069 19.333C30.0351 19.192 30.0633 19.0651 30.0915 18.924C30.1196 18.7971 30.1478 18.6725 30.1737 18.5315C30.1737 18.4469 30.1878 18.3623 30.2019 18.2776L29.3607 18.1507L29.3466 18.2353C29.3325 18.3199 29.3184 18.4046 29.3184 18.461C29.3043 18.5315 29.2902 18.6161 29.262 18.7007L29.2479 18.783L29.5134 18.8535L29.5416 18.7289C29.5557 18.6443 29.5698 18.5597 29.5839 18.4469L29.8941 18.5174Z" fill="white"/>
<path d="M42.3024 21.0396C42.871 21.0396 43.3597 21.2464 43.7685 21.6577C44.1773 22.0691 44.3818 22.5721 44.3818 23.1644C44.3818 23.7497 44.1797 24.248 43.7756 24.6523C43.3738 25.0589 42.8827 25.2634 42.3071 25.2634C41.7032 25.2634 41.2027 25.0542 40.8057 24.6358C40.4062 24.2198 40.2065 23.7238 40.2065 23.1503C40.2065 22.7672 40.2981 22.4123 40.4838 22.0902C40.6694 21.7682 40.9255 21.512 41.2497 21.324C41.5763 21.1359 41.9264 21.0396 42.3024 21.0396ZM42.2906 21.7917C41.9194 21.7917 41.6092 21.921 41.3578 22.1796C41.1041 22.4381 40.9772 22.7672 40.9772 23.1644C40.9772 23.6087 41.137 23.9612 41.4542 24.2198C41.7032 24.4219 41.9852 24.523 42.3047 24.523C42.6665 24.523 42.9743 24.3914 43.2281 24.1305C43.4819 23.8672 43.6087 23.5452 43.6087 23.1597C43.6087 22.7766 43.4819 22.4546 43.2234 22.189C42.9696 21.9233 42.6571 21.7917 42.2906 21.7917Z" fill="#232C38"/>
<path d="M46.5434 21.1406H47.2695L49.0011 23.7873V21.1406H49.7624V25.1623H49.0317L47.3047 22.5251V25.1623H46.5434V21.1406Z" fill="#232C38"/>
<path d="M52.1025 21.1406H52.8638V24.4337H53.9892V25.1623H52.1025V21.1406Z" fill="#232C38"/>
<path d="M55.9465 21.1406H56.7078V25.1623H55.9465V21.1406Z" fill="#232C38"/>
<path d="M59.0057 21.1406H59.7317L61.4634 23.7873V21.1406H62.2247V25.1623H61.4916L59.767 22.5251V25.1623H59.0057V21.1406Z" fill="#232C38"/>
<path d="M64.5766 21.1406H66.7711V21.8928H65.3378V22.6144H66.7711V23.3524H65.3378V24.4102H66.7711V25.1623H64.5766V21.1406Z" fill="#232C38"/>
<path d="M73.2725 21.1406H74.0432L75.5892 25.1623H74.7951L74.4802 24.3326H72.8331L72.5112 25.1623H71.7171L73.2725 21.1406ZM73.6579 22.2101L73.1151 23.5945H74.2006L73.6579 22.2101Z" fill="#232C38"/>
<path d="M81.3081 21.8458L80.7724 22.3558C80.4082 21.9727 79.9971 21.78 79.5412 21.78C79.1582 21.78 78.834 21.9116 78.5708 22.1725C78.3053 22.4358 78.1737 22.7578 78.1737 23.1433C78.1737 23.4112 78.2325 23.6486 78.35 23.8555C78.4675 24.0647 78.6319 24.2269 78.8434 24.3467C79.0572 24.4643 79.2945 24.523 79.5553 24.523C79.7785 24.523 79.9806 24.4831 80.1662 24.3984C80.3495 24.3162 80.5516 24.1657 80.7724 23.9471L81.2917 24.4901C80.9956 24.7792 80.7137 24.9814 80.4505 25.0942C80.1874 25.207 79.8843 25.2634 79.5459 25.2634C78.9209 25.2634 78.4087 25.0636 78.0093 24.6688C77.6122 24.2715 77.4125 23.7638 77.4125 23.1456C77.4125 22.7437 77.5041 22.3887 77.685 22.0761C77.866 21.7659 78.1268 21.5144 78.4651 21.3263C78.8011 21.1359 79.1653 21.0396 79.5577 21.0396C79.889 21.0396 80.2062 21.1101 80.514 21.2511C80.8218 21.3898 81.0873 21.5896 81.3081 21.8458Z" fill="#232C38"/>
<path d="M84.6399 21.1406H85.4082L86.9566 25.1623H86.1601L85.8476 24.3326H84.2005L83.8786 25.1623H83.0821L84.6399 21.1406ZM85.0252 22.2101L84.4801 23.5945H85.568L85.0252 22.2101Z" fill="#232C38"/>
<path d="M88.9867 21.1406H89.8913C90.4764 21.1406 90.9111 21.2135 91.1954 21.3592C91.4773 21.5026 91.7123 21.7376 91.8955 22.0643C92.0788 22.3911 92.1704 22.7719 92.1704 23.2067C92.1704 23.517 92.1211 23.8014 92.0177 24.0623C91.9143 24.3209 91.771 24.5371 91.5901 24.7087C91.4092 24.8779 91.2142 24.9978 91.0027 25.0636C90.7936 25.1294 90.427 25.1623 89.9054 25.1623H88.9867V21.1406ZM89.748 21.881V24.4172H90.1028C90.4529 24.4172 90.7043 24.3773 90.8617 24.2973C91.0191 24.2174 91.1484 24.0811 91.2494 23.8907C91.3481 23.7027 91.3998 23.4676 91.3998 23.1903C91.3998 22.7648 91.28 22.4334 91.0426 22.1983C90.8265 21.9868 90.4811 21.881 90.0065 21.881H89.748Z" fill="#232C38"/>
<path d="M94.3368 21.1406H96.5314V21.8928H95.0981V22.6144H96.5314V23.3524H95.0981V24.4102H96.5314V25.1623H94.3368V21.1406Z" fill="#232C38"/>
<path d="M99.0572 21.1406H99.7996L100.735 23.9448L101.675 21.1406H102.415L103.089 25.1623H102.349L101.921 22.6214L101.071 25.1623H100.394L99.5482 22.6214L99.1112 25.1623H98.364L99.0572 21.1406Z" fill="#232C38"/>
<path d="M104.851 21.1406H105.669L106.416 22.5862L107.161 21.1406H107.978L106.801 23.4206V25.1623H106.028V23.4206L104.851 21.1406Z" fill="#232C38"/>
<path d="M43.1247 8.71573H44.5721L47.4739 16.2609H45.9818L45.3921 14.7049H42.3024L41.6985 16.2609H40.2065L43.1247 8.71573ZM43.8508 10.7207L42.8287 13.318H44.8681L43.8508 10.7207Z" fill="#232C38"/>
<path d="M50.6739 8.71573H52.1988C53.0235 8.71573 53.618 8.79094 53.9821 8.94373C54.3463 9.09651 54.6353 9.34332 54.8445 9.68179C55.0559 10.0226 55.1593 10.4316 55.1593 10.9064C55.1593 11.4353 55.0207 11.8725 54.7458 12.2204C54.4709 12.5682 54.0949 12.8127 53.6203 12.949C53.3431 13.0289 52.8355 13.0665 52.1025 13.0665V16.2609H50.6739V8.71573ZM52.1025 11.668H52.563C52.9248 11.668 53.1762 11.6421 53.3172 11.5928C53.4605 11.5387 53.571 11.4541 53.6532 11.3366C53.7331 11.2167 53.773 11.0733 53.773 10.9041C53.773 10.6102 53.6603 10.3964 53.4323 10.2647C53.2679 10.1636 52.9601 10.1143 52.5113 10.1143H52.1025V11.668Z" fill="#232C38"/>
<path d="M58.5569 8.71573H59.9855V16.2609H58.5569V8.71573Z" fill="#232C38"/>
<path d="M62.9718 16.2609L64.9666 12.5142L63.0047 8.71573H67.6264V10.1237H65.2862L66.515 12.5001L65.2533 14.8529H67.6898V16.2609H62.9718Z" fill="#232C38"/>
<path d="M70.3262 8.71573H74.4943V10.1354H73.1198V16.2609H71.6584V10.1354H70.3262V8.71573Z" fill="#232C38"/>
<path d="M81.1227 8.52768C82.1894 8.52768 83.1057 8.91317 83.874 9.68649C84.6424 10.4575 85.0254 11.4 85.0254 12.5118C85.0254 13.6119 84.6471 14.545 83.8905 15.3066C83.1339 16.0682 82.2129 16.4513 81.1344 16.4513C80.0019 16.4513 79.0597 16.0587 78.3125 15.276C77.563 14.4933 77.1894 13.5625 77.1894 12.486C77.1894 11.7643 77.3633 11.1015 77.7134 10.4951C78.0611 9.89098 78.5404 9.41148 79.149 9.05655C79.7622 8.70397 80.4201 8.52768 81.1227 8.52768ZM81.1015 9.93564C80.406 9.93564 79.8233 10.1777 79.3487 10.6643C78.8741 11.1485 78.6391 11.7643 78.6391 12.5142C78.6391 13.3486 78.9375 14.0091 79.5343 14.4933C79.9972 14.8741 80.5282 15.0621 81.1274 15.0621C81.8064 15.0621 82.3844 14.8153 82.859 14.3241C83.3383 13.8328 83.5757 13.2264 83.5757 12.5048C83.5757 11.7855 83.336 11.1791 82.8543 10.6808C82.375 10.1824 81.79 9.93564 81.1015 9.93564Z" fill="#232C38"/>
<path d="M87.7484 8.71573H91.919V10.1354H90.5444V16.2609H89.083V10.1354H87.7484V8.71573Z" fill="#232C38"/>
<path d="M95.8429 8.71572H99.9594V10.1237H97.2714V11.4799H99.9594V12.8667H97.2714V14.8529H99.9594V16.2609H95.8429V8.71572ZM95.0746 8.52768L94.856 10.4927H93.8457L93.6248 8.52768H95.0746Z" fill="#232C38"/>
<path d="M108.272 16.2609L106.181 10.7301L104.057 16.2609H102.532L105.446 8.71573H106.902L109.807 16.2609H108.272Z" fill="#232C38"/>
<path d="M112.758 8.71573H114.219V11.5646H116.74V8.71573H118.19V16.2609H116.74V12.9514H114.219V16.2609H112.758V8.71573Z" fill="#232C38"/>
<path d="M121.284 16.2609L123.279 12.5142L121.315 8.71573H125.939V10.1237H123.596L124.828 12.5001L123.566 14.8529H126V16.2609H121.284Z" fill="#232C38"/>
</svg>
