<svg width="24" height="24" viewBox="0 0 24 24" fill="none" xmlns="http://www.w3.org/2000/svg">
<path d="M20 20.0802C19.9581 17.5453 19.1225 15.2404 17.6369 13.5716C16.1599 11.9129 14.1582 10.9995 11.9999 10.9995C9.84162 10.9995 7.83992 11.9129 6.36292 13.5716C4.87869 15.2386 4.04365 17.5403 4 20.0721C4.83927 20.4694 8.31229 21.9995 11.9999 21.9995C15.9875 21.9995 19.2217 20.4784 20 20.0802V20.0802Z" fill="#CBCBDE"/>
<path fill-rule="evenodd" clip-rule="evenodd" d="M20 20.0802C19.9581 17.5453 19.1225 15.2404 17.6369 13.5716C16.1599 11.9129 14.1582 10.9995 11.9999 10.9995C9.84162 10.9995 7.83992 11.9129 6.36292 13.5716C4.87869 15.2386 4.04365 17.5403 4 20.0721C4.83927 20.4694 8.31229 21.9995 11.9999 21.9995C15.9875 21.9995 19.2217 20.4784 20 20.0802ZM5.0305 19.4373C6.34405 19.9941 9.11965 20.9995 11.9999 20.9995C15.1091 20.9995 17.7462 20.0125 18.9714 19.4632C18.8166 17.3932 18.0751 15.5677 16.89 14.2365C15.5964 12.7839 13.8635 11.9995 11.9999 11.9995C10.1363 11.9995 8.40335 12.7839 7.10979 14.2365M5.0305 19.4373C5.18955 17.3778 5.92956 15.5622 7.10973 14.2366Z" fill="#CBCBDE"/>
<path d="M12 9.99951C14.2091 9.99951 16 8.20865 16 5.99951C16 3.79037 14.2091 1.99951 12 1.99951C9.79086 1.99951 8 3.79037 8 5.99951C8 8.20865 9.79086 9.99951 12 9.99951Z" fill="#CBCBDE"/>
<path fill-rule="evenodd" clip-rule="evenodd" d="M12 8.99951C13.6569 8.99951 15 7.65637 15 5.99951C15 4.34266 13.6569 2.99951 12 2.99951C10.3431 2.99951 9 4.34266 9 5.99951C9 7.65637 10.3431 8.99951 12 8.99951ZM16 5.99951C16 8.20865 14.2091 9.99951 12 9.99951C9.79086 9.99951 8 8.20865 8 5.99951C8 3.79037 9.79086 1.99951 12 1.99951C14.2091 1.99951 16 3.79037 16 5.99951Z" fill="#CBCBDE"/>
</svg>
