<svg width="12" height="13" viewBox="0 0 12 13" fill="none" xmlns="http://www.w3.org/2000/svg">
<path fill-rule="evenodd" clip-rule="evenodd" d="M0.625 2.5C0.625 2.01675 1.01675 1.625 1.5 1.625H10.5C10.9833 1.625 11.375 2.01675 11.375 2.5V9C11.375 9.48326 10.9833 9.875 10.5 9.875H1.5C1.01675 9.875 0.625 9.48326 0.625 9V2.5ZM1.5 2.375C1.43096 2.375 1.375 2.43096 1.375 2.5V9C1.375 9.06904 1.43096 9.125 1.5 9.125H10.5C10.569 9.125 10.625 9.06904 10.625 9V2.5C10.625 2.43096 10.569 2.375 10.5 2.375H1.5Z" fill="#CBCBDE"/>
<path fill-rule="evenodd" clip-rule="evenodd" d="M2.625 4C2.625 3.79289 2.79289 3.625 3 3.625H9C9.20711 3.625 9.375 3.79289 9.375 4C9.375 4.20711 9.20711 4.375 9 4.375H3C2.79289 4.375 2.625 4.20711 2.625 4Z" fill="#CBCBDE"/>
<path fill-rule="evenodd" clip-rule="evenodd" d="M2.625 5.75C2.625 5.54289 2.79289 5.375 3 5.375H4.5C4.70711 5.375 4.875 5.54289 4.875 5.75C4.875 5.95711 4.70711 6.125 4.5 6.125H3C2.79289 6.125 2.625 5.95711 2.625 5.75Z" fill="#CBCBDE"/>
<path fill-rule="evenodd" clip-rule="evenodd" d="M2.625 7.5C2.625 7.29289 2.79289 7.125 3 7.125H4C4.20711 7.125 4.375 7.29289 4.375 7.5C4.375 7.70711 4.20711 7.875 4 7.875H3C2.79289 7.875 2.625 7.70711 2.625 7.5Z" fill="#CBCBDE"/>
<path d="M7.5 8.75C8.32843 8.75 9 8.07843 9 7.25C9 6.42157 8.32843 5.75 7.5 5.75C6.67157 5.75 6 6.42157 6 7.25C6 8.07843 6.67157 8.75 7.5 8.75Z" fill="#CBCBDE"/>
<path fill-rule="evenodd" clip-rule="evenodd" d="M7.5 6.125C6.87868 6.125 6.375 6.62868 6.375 7.25C6.375 7.87132 6.87868 8.375 7.5 8.375C8.12132 8.375 8.625 7.87132 8.625 7.25C8.625 6.62868 8.12132 6.125 7.5 6.125ZM5.625 7.25C5.625 6.21447 6.46447 5.375 7.5 5.375C8.53553 5.375 9.375 6.21447 9.375 7.25C9.375 8.28553 8.53553 9.125 7.5 9.125C6.46447 9.125 5.625 8.28553 5.625 7.25Z" fill="#CBCBDE"/>
<path d="M7.5 10.5L8.5 11V8.36807C8.5 8.36807 8.21485 8.75002 7.5 8.75002C6.78515 8.75002 6.5 8.37502 6.5 8.37502V11L7.5 10.5Z" fill="#CBCBDE"/>
<path fill-rule="evenodd" clip-rule="evenodd" d="M8.61819 8.01215C8.77152 8.06307 8.875 8.20647 8.875 8.36804V11C8.875 11.13 8.80771 11.2507 8.69715 11.319C8.58659 11.3873 8.44854 11.3935 8.33229 11.3354L7.5 10.9192L6.66771 11.3354C6.55146 11.3935 6.41341 11.3873 6.30285 11.319C6.19229 11.2507 6.125 11.13 6.125 11V8.37499C6.125 8.21403 6.22771 8.07103 6.38024 8.01962C6.52986 7.9692 6.69468 8.01795 6.79287 8.14077C6.79477 8.14316 6.79665 8.14557 6.7985 8.148M6.875 9.03285V10.3932L7.33229 10.1646C7.43787 10.1118 7.56213 10.1118 7.66771 10.1646L8.125 10.3932V9.03147C7.95164 9.08749 7.74406 9.12499 7.5 9.12499C7.25585 9.12499 7.04829 9.08804 6.875 9.03285ZM8.19977 8.14335L8.20002 8.14301L8.20051 8.14235L8.20143 8.14114L8.20301 8.13909L8.20507 8.13648C8.20594 8.1354 8.20591 8.13548 8.20496 8.13657C8.30241 8.0123 8.46771 7.96217 8.61819 8.01215M8.20487 8.13667C8.20277 8.13905 8.1968 8.14563 8.18675 8.15513L8.20487 8.13667ZM8.18675 8.15513C8.16664 8.17413 8.13049 8.20454 8.07646 8.23666L8.18675 8.15513ZM8.07646 8.23666C7.97102 8.29933 7.78684 8.37499 7.5 8.37499L8.07646 8.23666ZM7.5 8.37499C7.21177 8.37499 7.02666 8.3003 6.92094 8.2386L7.5 8.37499ZM6.92094 8.2386C6.86682 8.20702 6.83071 8.17716 6.81074 8.15864L6.92094 8.2386ZM6.81074 8.15864C6.80076 8.14939 6.79488 8.14302 6.79287 8.14077L6.81074 8.15864Z" fill="#CBCBDE"/>
</svg>
