<svg width="24" height="24" viewBox="0 0 24 24" fill="none" xmlns="http://www.w3.org/2000/svg">
<path fill-rule="evenodd" clip-rule="evenodd" d="M12.416 3.17821C12.1641 3.01026 11.8359 3.01026 11.584 3.17821L10.869 3.65484L10.4551 3.03396L10.869 3.65484C8.29568 5.3704 6.75 8.25853 6.75 11.3513V15.7495H17.25V11.3513C17.25 8.25853 15.7043 5.3704 13.131 3.65484L13.5467 3.03126L13.131 3.65484L12.416 3.17821ZM13.2481 1.93013L12.8321 2.55417L13.2481 1.93013L13.963 2.40677C16.9537 4.40053 18.75 7.75701 18.75 11.3513V16.4995C18.75 16.9137 18.4142 17.2495 18 17.2495H6C5.58579 17.2495 5.25 16.9137 5.25 16.4995V11.3513C5.25 7.75701 7.04632 4.40053 10.037 2.40677L10.453 3.03081L10.037 2.40677L10.7519 1.93013L11.1679 2.55417L10.7519 1.93013C11.5077 1.42628 12.4923 1.42628 13.2481 1.93013Z" fill="#CBCBDE"/>
<path d="M12 12.9995C13.6569 12.9995 15 11.6564 15 9.99951C15 8.34266 13.6569 6.99951 12 6.99951C10.3431 6.99951 9 8.34266 9 9.99951C9 11.6564 10.3431 12.9995 12 12.9995Z" fill="#CBCBDE"/>
<path fill-rule="evenodd" clip-rule="evenodd" d="M12 7.74951C10.7574 7.74951 9.75 8.75687 9.75 9.99951C9.75 11.2422 10.7574 12.2495 12 12.2495C13.2426 12.2495 14.25 11.2422 14.25 9.99951C14.25 8.75687 13.2426 7.74951 12 7.74951ZM8.25 9.99951C8.25 7.92844 9.92893 6.24951 12 6.24951C14.0711 6.24951 15.75 7.92844 15.75 9.99951C15.75 12.0706 14.0711 13.7495 12 13.7495C9.92893 13.7495 8.25 12.0706 8.25 9.99951Z" fill="#CBCBDE"/>
<path fill-rule="evenodd" clip-rule="evenodd" d="M6.52081 10.4598C6.81887 10.7475 6.82732 11.2223 6.53968 11.5203L3.75 14.4111V15.7495H20.25V14.4111L17.4603 11.5203C17.1727 11.2223 17.1811 10.7475 17.4792 10.4598C17.7772 10.1722 18.252 10.1806 18.5397 10.4787L21.5397 13.5874C21.6746 13.7272 21.75 13.9139 21.75 14.1082V16.4995C21.75 16.9137 21.4142 17.2495 21 17.2495H3C2.58579 17.2495 2.25 16.9137 2.25 16.4995V14.1082C2.25 13.9139 2.3254 13.7272 2.46032 13.5874L5.46032 10.4787C5.74795 10.1806 6.22275 10.1722 6.52081 10.4598Z" fill="#CBCBDE"/>
<path fill-rule="evenodd" clip-rule="evenodd" d="M12 18.2495C12.4142 18.2495 12.75 18.5853 12.75 18.9995V21.9995C12.75 22.4137 12.4142 22.7495 12 22.7495C11.5858 22.7495 11.25 22.4137 11.25 21.9995V18.9995C11.25 18.5853 11.5858 18.2495 12 18.2495Z" fill="#CBCBDE"/>
<path fill-rule="evenodd" clip-rule="evenodd" d="M8 19.2495C8.41421 19.2495 8.75 19.5853 8.75 19.9995V20.9995C8.75 21.4137 8.41421 21.7495 8 21.7495C7.58579 21.7495 7.25 21.4137 7.25 20.9995V19.9995C7.25 19.5853 7.58579 19.2495 8 19.2495Z" fill="#CBCBDE"/>
<path fill-rule="evenodd" clip-rule="evenodd" d="M16 19.2495C16.4142 19.2495 16.75 19.5853 16.75 19.9995V20.9995C16.75 21.4137 16.4142 21.7495 16 21.7495C15.5858 21.7495 15.25 21.4137 15.25 20.9995V19.9995C15.25 19.5853 15.5858 19.2495 16 19.2495Z" fill="#CBCBDE"/>
</svg>
