<svg width="24" height="24" viewBox="0 0 24 24" fill="none" xmlns="http://www.w3.org/2000/svg">
<path d="M19.5 16H6.5L4 6H22L19.5 16Z" fill="#3445CB"/>
<path fill-rule="evenodd" clip-rule="evenodd" d="M0.820817 2.68188C0.944252 2.41834 1.209 2.25 1.50001 2.25H3.25001C3.59416 2.25 3.89415 2.48422 3.97762 2.8181L4.58559 5.25H22C22.231 5.25 22.449 5.3564 22.5912 5.53844C22.7333 5.72048 22.7836 5.95785 22.7276 6.1819L20.2276 16.1819C20.1441 16.5158 19.8442 16.75 19.5 16.75H6.50001C6.15586 16.75 5.85587 16.5158 5.7724 16.1819L3.31401 6.34834L0.923843 3.48014C0.737541 3.25658 0.697382 2.94542 0.820817 2.68188Z" fill="#3445CB"/>
<path fill-rule="evenodd" clip-rule="evenodd" d="M6.5 18.75C6.08579 18.75 5.75 19.0858 5.75 19.5C5.75 19.9142 6.08579 20.25 6.5 20.25C6.91421 20.25 7.25 19.9142 7.25 19.5C7.25 19.0858 6.91421 18.75 6.5 18.75ZM4.25 19.5C4.25 18.2574 5.25736 17.25 6.5 17.25C7.74264 17.25 8.75 18.2574 8.75 19.5C8.75 20.7426 7.74264 21.75 6.5 21.75C5.25736 21.75 4.25 20.7426 4.25 19.5Z" fill="#3445CB"/>
<path fill-rule="evenodd" clip-rule="evenodd" d="M19.5 18.75C19.0858 18.75 18.75 19.0858 18.75 19.5C18.75 19.9142 19.0858 20.25 19.5 20.25C19.9142 20.25 20.25 19.9142 20.25 19.5C20.25 19.0858 19.9142 18.75 19.5 18.75ZM17.25 19.5C17.25 18.2574 18.2574 17.25 19.5 17.25C20.7426 17.25 21.75 18.2574 21.75 19.5C21.75 20.7426 20.7426 21.75 19.5 21.75C18.2574 21.75 17.25 20.7426 17.25 19.5Z" fill="#3445CB"/>
</svg>
